<svg xmlns="http://www.w3.org/2000/svg" width="500pt" height="500pt" version="1" viewBox="0 0 500.000000 500.000000"><path d="M0 250v250h500V0H0v250zM406.4 64.3c.3 4.4 1.4 9.8 2.4 12 2.3 5.3 8 10.3 13.2 11.7 4.3 1.2 8.4 0 14.1-4 1.6-1.2 2.9-1.6 2.9-1 0 2-3.8 8.5-7.9 13.5-8.7 10.5-9 16-1.4 23.3 2.5 2.4 4.3 4.5 4.1 4.6-1.4 1.2-5 2.6-6.8 2.6-1.2 0-4.4-1.8-7-4-2.6-2.2-5.2-4-5.7-4s-2.5 2.1-4.4 4.7c-3.1 4.3-3.4 5.5-3.4 11.5 0 8.1-1.5 8.9-6.4 3.3-1.7-1.9-3.3-3.5-3.5-3.5-.3 0-1.1 1.1-1.9 2.5l-1.3 2.6-2.6-2c-3.1-2.5-5.8-7.9-5.8-11.8 0-1.5 1.2-5.5 2.6-8.8 1.4-3.3 2.8-7.1 3.1-8.5l.6-2.5-2.7 2.4c-4 3.8-4.9 1.9-4.4-9.1.4-6.6 1.1-10.7 2.7-14.2 1.8-4.2 2-5.4 1-7.8-2.4-5.8-9.2-4.6-18.2 3.3-10.2 9-15.2 22.7-14.5 39.4.7 14.1 2.2 16.3 31 46.2 18 18.6 24 26.3 28.8 36.5 6.8 14.6 8 39.3 2.6 55.3-8.8 26.1-23.8 36.6-50.3 35.2-6.1-.4-13.5-1.5-18.2-2.8l-7.8-2.3-.7-11.5c-.3-6.4-.9-13-1.2-14.6-.6-2.7-.2-2.4 4.1 2.7 5.7 6.9 12.1 11.3 19.4 13.5 6.9 2 12.7 1.2 20.7-2.7 7.9-3.8 13.9-9.9 17.5-17.4 3.9-8.1 4.6-13.6 2.5-19.1-1.8-4.6-7.9-10.9-12.2-12.5-6.2-2.4-15.1-.3-17.5 4.1-.9 1.8-.6 2.8 1.9 6.3 2.8 4.1 2.9 4.3 1.1 6.4-2.4 3-5.8 2.8-10.5-.8-4.7-3.5-6.5-3.7-9-.9-1.5 1.7-1.9 3.6-1.9 10 0 5-.3 7.8-1 7.6-.5-.2-2.5-2.5-4.2-5.1-4.4-6.4-4.6-13.7-.7-20.3l2.6-4.5-4.1-3.4c-4-3.5-6.6-9.1-5.4-12 .5-1.3.9-1.2 2.7.4 3.2 3 8.9 6.2 10.9 6.2 1 0 3.1-1.6 4.8-3.5 1.7-1.9 3.9-3.7 5-4 1.3-.5 1.7-1.1 1.1-1.8-1.4-1.9-3.2-9.1-3.2-12.8 0-4.1 2.1-7.4 6-9.4 3.8-2 4.3-1.9 3 .4-.5 1.1-1 4.4-1 7.4 0 7 2.3 10 8.7 11.7 6.7 1.6 14 5.8 17.4 9.9 2.8 3.4 2.9 3.5 2.9 1.1 0-4.5-5.7-18.8-10.4-26.2-5.7-9-8-11.6-19.4-21.2-13.2-11.1-19.7-18.7-24.7-28.9l-4.2-8.7-2.6 3.4c-1.5 1.9-4.8 4.4-7.4 5.7-6.2 2.9-5.9 2.6-3.7 5 2.5 2.8 6.7 4.9 9.9 4.9 2.9 0 3.2 1.2.8 3.6-2.5 2.4-7.7 4.4-11.8 4.4-2.9 0-3.5.4-3.5 2.2 0 3.7 4.1 10.9 7.4 12.9 1.7 1 4.8 1.9 7 1.9 3.7 0 3.8.1 2.4 2.2-2.3 3.7-9.5 6.8-15.5 6.8H320v5.4c0 5 .3 5.7 3.2 8l3.2 2.5-2.9 1.1c-3.8 1.5-8.7.7-12.4-2-2.9-2-3-2-3.6-.1-.8 2.5.4 5.3 6.2 14.1 8.6 13.1 20.2 36.2 22.4 44.6 1.9 7.2 2 9.6 1.4 28.5l-.6 20.6 3.1 2.6c4.7 4 10.2 5.3 15.8 3.8 6-1.6 13.4-6.3 17.2-10.9l3-3.7v5.3c0 4.3.5 5.8 2.5 7.7 1.3 1.4 3.6 2.5 5.1 2.5 2.6 0 2.6.1 1.1 1.8-2 2.2-2.2 8-.4 10.3 1.6 2.1 7.1 4.9 9.7 4.9 1.1 0 2 .3 2 .7-.1 1.7-3.7 4.9-7.5 6.7l-4 1.9 3.5 1.4c1.9.8 3.6 1.6 3.7 1.7.7.7-3.9 8-6.1 9.7-2.1 1.7-2.4 2.4-1.5 3.5.6.8 1.7 1.4 2.4 1.4s2.2.8 3.4 1.7l2 1.8-2.3 2.7c-1.3 1.4-3.8 3.4-5.7 4.3l-3.3 1.7 3.3 1.7c3 1.6 3.1 1.9 1.6 3.1-1 .8-2.1 2.4-2.6 3.6-.5 1.6-2.5 2.8-6.3 4-3.1 1-5.6 2.1-5.6 2.4 0 .4 1.9 1.8 4.3 3l4.3 2.3-3.3 3.3c-1.8 1.9-4.8 3.6-6.7 4-7.7 1.4-8.9 8.1-2.2 12.4l3.9 2.5-.6 7.6c-.8 9.4-1.8 12.1-5.6 14.9l-3.1 2.1v-3.7c0-3.8-2.2-7.4-4.6-7.4-2.6 0-4.6-4.7-3.9-8.9.8-4.9-.7-6.1-4.3-3.4-3.6 2.7-7.2 9.1-7.2 13 0 2.4-1.2 4.5-4.5 8.3-3.3 3.8-4.5 5.9-4.5 8.3v3.2l-3.1-3.1c-2.1-2.1-3.2-4.4-3.6-7.3-.3-2.3-1-4.4-1.5-4.7-1.5-1-5.7 1.7-6.4 4-.6 2-.7 2-2.5-.3-2.8-3.5-2.2-9.7 1.7-17.3.8-1.4 1.4-2.9 1.4-3.2 0-1.4-9.4-.5-11.2 1.1-1.7 1.5-1.8 1.5-1.8-.3.1-5.3 7-14.4 10.9-14.4.6 0 1.1-.9 1.1-1.9 0-3.1 1.6-3.4 8.4-1.7 8 2 10.7 1 13.6-4.9 1.1-2.3 2-4.6 2-5.1 0-.6 1.2-2.1 2.6-3.5 5.5-5.1 6.7-11 3.9-18.9-2.5-7.2-3.3-7.6-7.4-3.7-7.7 7.3-12 8.3-19.1 4.7-2.2-1.1-5.1-2-6.5-2-2.2 0-2.5.4-2.5 3.9 0 3.2.6 4.4 3.1 6.5 1.7 1.4 3.5 2.6 4 2.6s.9.4.9 1c0 1.8-5.1 2.3-9.2.9-3.8-1.2-4.2-1.2-5.9 1-1.1 1.3-1.9 3.2-1.9 4.3 0 3.3-2.3.6-4.4-5.1-.9-2.7-2.5-5.2-3.4-5.6-1.9-.7-4.2 1.9-4.2 4.7 0 2.9-1.8 2-2.5-1.3-.9-4 .2-9.6 2.6-13.6 1.8-2.9 10.1-9.3 12.1-9.3 2.3 0-.9-10-7.6-24-2.6-5.4-3.6-8.8-3.6-12.3 0-2.7-.4-5.6-1-6.6-1.3-2.6 1.7-12.5 4.8-15.6 2.9-2.9 9.2-4.8 13.9-4.3 3.9.5 4.4-.9.7-1.8-4.8-1.2-13 1.4-16.3 5.1-3.7 4.3-7.2 15.7-5.2 16.9.6.4 1.1 2.6 1.1 4.9v4.3l-7.1 1.1c-12.2 1.9-19.7 9.4-22.1 21.9-1.3 7.3-.1 10.6 5.2 14.2 3.1 2.1 4.2 2.3 10.3 1.8l6.7-.6-2.6 5-2.6 5h-7c-6 0-7.2.3-9.2 2.5-1.2 1.3-3.4 2.9-4.9 3.4-2.3.9-2.8.7-4.7-2.4-1.2-1.9-2.6-3.2-3.3-2.9-.7.2-2.6 2.4-4.2 4.9-1.7 2.4-3.3 4.5-3.7 4.5-.8 0-7.8-8.1-7.8-9.1 0-.4-.7-1-1.6-1.3-1.1-.4-2.8.6-4.9 2.9l-3.3 3.4-5.8-5.9c-5.5-5.7-5.8-5.8-8.4-4.5-1.4.7-3.2 2.1-4 2.9-1.8 2.2-3.4.7-7.1-6.6-2.4-4.7-3.4-5.8-5.4-5.8-2.8 0-3.3.7-6 7.9-1.7 4.5-2.7 5.8-6.5 7.8-2.5 1.4-5.6 4-6.9 5.9-2.7 3.9-3.4 3.5-5.1-2.7-.7-2.6-.6-4.8.4-8.2.9-3 1-4.7.3-5-1.9-.6 1.2-4.7 4.1-5.2 1.5-.4 4.2-1.3 6.1-2.1 4.7-2.1 2.7-3.8-3.6-3-14.6 1.8-17.4 1.9-18.6.3-1.5-2.1-10-2.6-12.1-.8-1.4 1.2-1.6 1-1.6-.9 0-4 3.8-8.7 9.1-11.4l5-2.5-2.5-1.6c-2-1.3-2.9-1.4-4.6-.5-3 1.6-3.4.7-1.5-3.3 1.7-3.6 7.8-7.5 13.5-8.7 2.5-.5 2.5-.5-1.1-2.8-2-1.2-4.6-2.2-5.8-2.2-3.1 0-2.6-1.7 1.1-3.6 2.4-1.2 4.6-1.5 9.2-1 3.4.4 7.2.8 8.6.9 3.9.4 4.6 1.2 5.9 6.9 1 4.8 1.8 5.9 6.8 9.8l5.7 4.4 11.6.7c6.3.4 16.3.8 22.3.8 12 .1 12.2 0 8.9-6.7-1.1-2-2.9-6.6-4.1-10.2-2.3-6.4-2.3-6.5-7.7-8.2-2.9-1-6.1-1.5-7-1.1-1.3.5-1.5.2-.9-1.5.8-2.7-.1-2.8-4-.2-3.4 2.2-10.3 2.6-15.4.9-4.3-1.5-3.9-2.9.9-2.9 3.2 0 4.8-.7 8-3.6 2.2-2 4-4.2 4-4.9 0-.6-1.7-1.7-3.8-2.3-7.3-2.2-16.2-12.6-16.2-18.9 0-1.4.5-1.2 2.8.9 4.2 3.9 7.6 5.8 13.2 7.3 4.8 1.3 5.1 1.2 4.4-.3-2.5-6-2.7-8.9-.8-12.2 1-1.8 3.4-4.4 5.3-5.9l3.4-2.6-.9 3.5c-1.2 5-.8 9.9 1 11.9.9 1 3.9 2.3 6.7 2.9 5.7 1.3 5.5 1.4 21.9-8.7 9.7-6 14.4-6.4 22.5-2 4.9 2.6 7.4 3.3 13.8 3.7 7.6.4 7.7.4 7.7-1.9 0-1.3-.9-4.3-2-6.6-2-4.4-2-4.5-12.2-6.2-10.1-1.8-16.7-5.9-23.5-14.6-2-2.5-4-4.5-4.6-4.5-.6 0-2.2 1.1-3.6 2.4-3.3 3-8.1 4.3-8.1 2.1 0-2-.8-1.9-4.9.6-3.5 2.1-5.5 2-12.8-.8-1.2-.5-1.4-.1-.8 1.5.5 1.8.2 2.2-1.5 2.2-1.2 0-2.9-.4-3.9-1-2.3-1.2-6.1 1.4-6.1 4.2 0 1.7-.3 1.8-1.5.8-2.1-1.8-4.3-.6-4.7 2.6l-.3 2.7-5.2-4.2c-2.9-2.2-5.4-4.1-5.6-4.1-.2 0-1.2 1.9-2.3 4.1l-1.8 4.1-2.3-2.6-2.2-2.6-1.4 2.2c-.8 1.3-2 3.2-2.6 4.3-1 2-1.1 2-1.7-.3-1.3-4.5-2.9-2.1-3.6 5.3l-.3 3-2.1-2.3-2.1-2.3-3.4 4.5c-2 2.6-5 5.1-7.1 5.9l-3.7 1.5-.3-8.6c-.3-7.9-.5-8.7-2.3-8.7-3.1 0-6.1 5.6-7.4 13.9-1.1 6.4-1.8 8.2-4.7 11.2-1.8 2-3.9 5.2-4.6 7-.7 1.9-1.6 3.4-2.1 3.4-.4 0-1.7-2.1-2.9-4.7-1.5-3.3-1.9-5.8-1.5-8.8.4-2.3.2-4.6-.4-5.2-.6-.6.6-2.9 3.6-6.8 4.4-5.7 5.5-8.5 3.5-8.5-1.8 0-7.3 3.1-10.7 6.1-1.8 1.5-6 4.1-9.5 5.8-7.2 3.5-9 4.8-10.5 7.4-.9 1.7-1.1 1.6-2.2-1.2-1.1-2.5-1-3.8.4-8 .9-2.8 2.1-5.3 2.6-5.6.5-.4.5-1.4-.1-2.5-1.4-2.6 1.9-4.7 11.5-7.5l7.4-2.1-7.7-3.8c-6.8-3.2-8.1-3.6-10.6-2.6-3.7 1.4-4.3.7-2.2-2.5 2-3 7.3-6.5 9.8-6.5 1 0 2.2-.9 2.8-2 1.6-3 3.9-2.5 10.5 2.4 8.1 6.2 13.8 6.8 23.5 2.9 5.3-2.2 58.1-37.7 56.7-38.2-1.6-.6-3.1-2.6-6.8-9.6-4.2-7.7-5.7-8.9-7.9-6.2-1.6 2-1.7 1.8-2.3-3.5-1-8.4-1.5-9.2-3.9-6.5l-1.9 2.2.5-4c.3-2.2.8-5.5 1.2-7.3.6-2.7.4-3.2-1.3-3.2-1.1 0-2.5 1-3.1 2.2-1 1.9-1.2.8-1.1-6.2.1-11 .2-10.6-2.1-8.5-2 1.8-2 1.7-2-6.6 0-9-1.3-12.3-3.6-9.2-1 1.5-1.7.2-4.3-8.2-1.8-5.5-3.9-10.6-4.8-11.3-2.7-2-8.5-1.4-12.4 1.2-5.1 3.5-8.1 4-14 2.6-5.5-1.3-12.9-6.9-12.9-9.7 0-1.2.9-1.4 4.4-.9 6 .9 8.8 0 10.8-3.4 1.3-2.3 2.4-3 4.7-3 4.9 0 8.1-1.7 8.1-4.3 0-3.2-1.8-4.7-5.6-4.7-4 0-9.7-1.9-10.7-3.7-.4-.7-1.9-1.3-3.2-1.3-1.3 0-2.7-.5-3.1-1.1-.3-.6-2.3-.9-4.4-.7l-3.8.3 1.6-2.9c1.8-3.1 8.2-6.5 12.1-6.6 1.4 0 3.2-.7 4.2-1.6 1.4-1.2 2.2-1.3 3.9-.4 1.2.6 2.4.9 2.8.6 1-1.1-4-5.5-6.9-6.1-3.4-.8-3.6-1.6-1.1-3.8 4.2-3.8 11.7-3 19.4 1.9 2 1.3 4.4 2.1 5.3 1.8 2.2-.9 1.9-6.2-.6-10.3-2.3-3.8-2-4.6 1.5-3.7 3.5.9 8.2 5.9 10.7 11.4 1.9 4.2 2 5.8 1.5 14.9l-.7 10.2 10.4 8.5c13.5 11.2 18.4 17.4 26.1 33.1 4.6 9.2 8 14.8 12 19.2 6.1 6.6 16.6 14.3 19.7 14.3 1.1 0 5.7-1.4 10.2-3.2 5.2-2 11-3.4 16-3.8 8.5-.8 11.7-2.6 11.7-6.7 0-2.4-.1-2.4-5.7-1.6-3.2.4-9.2.7-13.3.6-4.1-.1-9.2-.2-11.3-.3h-3.8l2-2.7c1.2-1.5 2.1-4.1 2.1-6 0-2.7.3-3.4 1.5-2.9.8.3 1.5.1 1.5-.3 0-.5.3-1.6.6-2.4.4-1.2-1.2-1.5-8.8-1.9-7-.3-10.3-1-13.3-2.6-3.2-1.7-3.6-2.1-1.7-2.2 2.7 0 2.7.1-.3-5.1-1.6-2.8-2.5-6-2.5-8.7 0-6.3 3.2-13.1 6.3-13.2.4 0 .7 2.3.7 5.1v5.1l1.9-2.3c1.6-1.9 2.3-2.2 3.7-1.3 2.5 1.5 2.9 3.2.7 3-1.3-.1-1.9.7-2.1 3.1-.4 4 2.7 6.3 9.3 7.1l4.6.5-1.1-2.9c-.6-1.6-2.1-3.8-3.4-4.9-2.1-1.8-2.4-3.1-2.9-12.6l-.5-10.6 6.3-.5c4.4-.4 8.9-1.7 15.1-4.6 4.9-2.2 11.6-4.5 14.8-5.1 7.4-1.4 10.5-3.3 11.3-7.1.3-1.7.9-3 1.4-3 1.6 0 3.9 4.5 3.9 7.8 0 2.7.3 3.3 1.6 2.8.9-.3 1.9-.6 2.4-.6 2 0 6.9-5.3 7.5-8 .9-4 1.9-3.8 4 .7 1.4 2.9 1.6 5.1 1.1 10.5L313 96h4.9c3.9 0 5.6-.6 8-2.6 1.7-1.4 3.1-3.3 3.1-4.2.1-1.4.3-1.4 1.6.3 2.5 3.2 1.3 10.5-2.9 17.2-3.9 6.4-3.6 7.3 2.5 7.3 2.4 0 4.6-.8 6.6-2.5 2.9-2.4 3-2.4 3.5-.5 1.1 4.1-1.3 8.8-7.3 14.3-6.4 5.9-6.4 6.4-.3 9.6 2.8 1.4 8.3 1.4 8.3 0 0-.6.6-.9 1.4-.6 2.5 1 3.4-1.2 2.4-5.6-1.2-5.1-.3-21.4 1.5-28.2 2-7.2 6.6-16.1 10.8-20.9 5-5.6 12.2-9.4 21.6-11.2 10.7-2 16.8-4.1 20.3-7.1 2.5-2.1 3-3.2 3-7.1l.1-4.7 1.8 3.5c1 2 2.1 6.9 2.5 11.3zm-293.9 73.9c5.7 2.9 6.9 6.5 3.9 11.6-1.6 2.7-1.6 2.7.2.6 1.1-1.2 2.9-2.7 4.1-3.3 6.5-3.3 15.5 8.8 15.7 21 .1 7.6-2 10.2-8.1 9.7-5.1-.4-5.3.1-1.3 2.4 2.6 1.5 3 2.3 3 5.8 0 3.6-.6 4.7-4.7 8.8-5.3 5.2-10.6 8.2-16.2 8.9-2.9.4-4 0-5.9-2-2.3-2.5-2.4-2.5-4.3-.6-4.4 4.4-15 1.4-22.6-6.3-5.6-5.7-6.5-9.7-3-13.2 2.6-2.6 2.6-2.6.4-2.6-2.6-.1-5-1.7-6.5-4.7-3-5.5.1-17.8 5.8-23.5 4.4-4.5 7.7-4.9 11-1.3 3.1 3.3 4.3 3.2 2.3-.3-4.3-7.5 5.1-13.8 18.7-12.5 3 .3 6.4 1 7.5 1.5zM272.7 98.7c-2.1.8-3.6 2.1-3.4 2.7.6 1.9 8.7 1.9 10.8 0 4.6-4.1.1-5.8-7.4-2.7zM258.1 121.8c-5.9 2.9-4.9 3.8 4.9 4.1l9 .2v-3c0-3.1-.1-3.1-5.2-3.1-3.1 0-6.8.7-8.7 1.8zM255.6 135.8c-1 1.7 1.5 8.1 3.4 8.7 3.1 1 9.7-1.3 13.6-4.7 2.6-2.3 3.2-3.3 2.2-3.9-1.7-1.1-18.5-1.1-19.2-.1zM234.4 183.7c-4.7 6.4-5 7-1.6 3.4 3.3-3.6 5.7-7.1 4.8-7.1-.3 0-1.7 1.7-3.2 3.7zM224.3 193.1c-3.5 2.2-4.6 3.7-1.5 2 2.2-1.3 5.8-4 5.2-4.1-.3 0-2 1-3.7 2.1zM217.4 197.6c-1.8 1.4-1.8 1.5.4.4 1.2-.6 2.2-1.3 2.2-1.5 0-.8-.5-.6-2.6 1.1zM211.3 201.1c-3.5 2.2-4.6 3.7-1.5 2 2.2-1.3 5.8-4 5.2-4.1-.3 0-2 1-3.7 2.1zM88.8 142.1l-2.3 2 2.7-1.6c2.3-1.4 3.3-1.5 6.4-.5 2.3.8 5.7 1 9.3.6 7.4-.9 7.3-.9 9.6-.1 1.9.6 1.9.6.2-.8-1.3-1-4.7-1.5-12.6-1.5-9.7-.1-11.2.1-13.3 1.9zM89.3 153.5c-2.7 2.6-4 4.2-2.8 3.9 1.1-.4 3.6-2.1 5.5-3.9 1.9-1.8 4.2-3.5 5-3.8 1-.4.8-.6-.7-.6-1.2-.1-4.2 1.8-7 4.4zM125.2 151.5c.9 1.1 2 4.5 2.4 7.5.4 3 1.5 6.7 2.5 8.1 1.1 1.5 2.3 3.7 2.9 5 .9 2.1 1 2 .6-1.1-.9-7.4-4.2-16-7.1-18.8-1.6-1.5-2.2-1.8-1.3-.7zM110.6 153.1c1 1.2 3.4 2.8 5.2 3.6 1.8.7 3.7 2.4 4.2 3.6.6 1.6.9 1.7.9.5.1-.9-2.2-3.5-5-5.7-5.5-4.4-8.4-5.5-5.3-2zM72.8 160.3c-2.8 8.1-3.5 14.1-2 15.1.4.2.6-1.3.4-3.3-.3-2.8.3-4.7 2.2-7.6 1.8-2.6 2.6-5.1 2.6-8.1 0-2.4-.1-4.4-.2-4.4-.2 0-1.5 3.8-3 8.3zM80.7 165.7c-.4.3-.7 1.8-.6 3.2.1 2.6.1 2.5 1-.3.9-3.1.7-4.1-.4-2.9zM120.1 172.8c-1.7 3.1-1.3 4 .5 1.4.9-1.3 1.4-2.6 1.1-2.9-.3-.2-1 .4-1.6 1.5zM82.2 176c1.4 4.3 1.8 4.9 1.8 2.4 0-1.1-.7-2.9-1.5-4-1.3-1.7-1.4-1.6-.3 1.6zM73.1 184.7c0 2 .6 3.9 1.7 4.9C78.9 193.3 90.6 201 92 201c1.1-.1.9-.4-.5-1.2-1.1-.7-2.8-2.2-3.9-3.6-1-1.3-4.4-3.5-7.5-5-4.9-2.4-5.7-3.1-6.2-6.2l-.6-3.5-.2 3.2zM128.1 184.5c-.2 3.4-2.9 6.4-7.1 7.6-2.1.7-5.6 2.9-7.6 5-4.5 4.6-4.1 5 .9 1.1 1.9-1.5 5.5-3.9 8.1-5.2 4.5-2.4 7.3-6.6 6.3-9.2-.3-.7-.6-.4-.6.7zM110 187.5c-.7.9-.8 1.5-.2 1.5.5 0 1.2-.7 1.6-1.5.3-.8.4-1.5.2-1.5s-.9.7-1.6 1.5zM92.7 188.1c.7.7 1.5 1 1.8.7.3-.3-.2-.9-1.2-1.2-1.4-.6-1.5-.5-.6.5zM100.8 188.7c1.2.2 3 .2 4 0 .9-.3-.1-.5-2.3-.4-2.2 0-3 .2-1.7.4z"/></svg>