<?xml version="1.0" encoding="utf-8"?>
<!-- Generator: Adobe Illustrator 17.1.0, SVG Export Plug-In . SVG Version: 6.00 Build 0)  -->
<!DOCTYPE svg PUBLIC "-//W3C//DTD SVG 1.1//EN" "http://www.w3.org/Graphics/SVG/1.1/DTD/svg11.dtd">
<svg version="1.1" id="Layer_1" xmlns="http://www.w3.org/2000/svg" xmlns:xlink="http://www.w3.org/1999/xlink" x="0px" y="0px"
	 viewBox="0 0 255.3 63" enable-background="new 0 0 255.3 63" xml:space="preserve">
<g>
	<g>
		<path fill="#EF4481" d="M196.2,2.4c-1.2,1.6-1.8,3.9-1.8,6.9v13.5c0,1.6-0.5,3-1.4,4c-1,1.1-2,1.6-3.2,1.6v5.7
			c1.2,0,2.2,0.5,3.2,1.6c1,1.1,1.4,2.4,1.4,4v13.3c0,3,0.6,5.3,1.8,6.9c1.2,1.6,3,2.4,5.4,2.4h6.2v-7h-2.1c-1.1,0-1.8-0.5-2.2-1.5
			c-0.3-1-0.5-2.2-0.5-3.5V39.1c0-2.1-0.5-3.8-1.4-5.2c-0.9-1.4-2.1-2.2-3.6-2.5v-0.1c1.5-0.3,2.7-1.1,3.6-2.5
			c0.9-1.4,1.4-3.1,1.4-5.2V12c0-1.3,0.2-2.5,0.5-3.5c0.3-1,1.1-1.5,2.2-1.5h2.1V0h-6.2C199.2,0,197.4,0.8,196.2,2.4z M252.2,26.9
			c-1-1.1-1.4-2.4-1.4-4V9.4c0-3-0.6-5.3-1.8-6.9c-1.2-1.6-3-2.4-5.4-2.4h-6.2v7h2.1c1.1,0,1.8,0.5,2.2,1.5c0.3,1,0.5,2.2,0.5,3.5
			v11.6c0,2.1,0.5,3.8,1.4,5.2c0.9,1.4,2.1,2.2,3.6,2.5v0.1c-1.5,0.3-2.7,1.1-3.6,2.5c-0.9,1.4-1.4,3.1-1.4,5.2v11.4
			c0,1.3-0.2,2.5-0.5,3.5c-0.3,1-1.1,1.5-2.2,1.5h-2.1v7h6.2c2.4,0,4.2-0.8,5.4-2.4c1.2-1.6,1.8-3.9,1.8-6.9V39.9c0-1.6,0.5-3,1.4-4
			c1-1.1,2-1.6,3.2-1.6v-5.7C254.2,28.5,253.1,27.9,252.2,26.9z"/>
	</g>
</g>
<path fill="#4555A5" d="M12.3,5.9c-0.5-1-1.4-1.4-2.8-1.4c-0.7,0-1.3,0.2-1.8,0.6C7.3,5.5,6.9,6.1,6.6,7C6.3,7.9,6.2,9,6,10.5
	c-0.1,1.4-0.2,3.2-0.2,5.2c0,2.2,0.1,4,0.2,5.3c0.1,1.4,0.4,2.4,0.7,3.2C7.1,25,7.5,25.5,8,25.7c0.5,0.3,1,0.4,1.7,0.4
	c0.5,0,1-0.1,1.5-0.3c0.4-0.2,0.8-0.5,1.2-1.1s0.6-1.3,0.8-2.2c0.2-1,0.3-2.2,0.3-3.8h5.9c0,1.6-0.1,3.1-0.4,4.5
	c-0.2,1.4-0.7,2.7-1.4,3.7c-0.7,1.1-1.6,1.9-2.8,2.5c-1.2,0.6-2.8,0.9-4.7,0.9c-2.2,0-4-0.4-5.3-1.1c-1.3-0.7-2.3-1.7-3-3.1
	c-0.7-1.3-1.1-2.9-1.3-4.8C0.1,19.6,0,17.5,0,15.3c0-2.2,0.1-4.2,0.3-6.1C0.5,7.3,1,5.7,1.7,4.4c0.7-1.3,1.7-2.4,3-3.1
	C6,0.5,7.7,0.2,9.9,0.2c2.1,0,3.8,0.3,5,1c1.2,0.7,2.1,1.5,2.7,2.6c0.6,1,1,2.2,1.1,3.4c0.1,1.2,0.2,2.3,0.2,3.4h-5.9
	C13.1,8.5,12.8,6.9,12.3,5.9z"/>
<path fill="#4555A5" d="M28,20.3c0.1,1.4,0.3,2.5,0.6,3.3c0.3,0.9,0.7,1.5,1.2,1.9c0.5,0.4,1.2,0.6,2.1,0.6c0.9,0,1.6-0.2,2.1-0.6
	c0.5-0.4,0.9-1,1.2-1.9c0.3-0.9,0.5-2,0.6-3.3c0.1-1.4,0.1-3,0.1-5s0-3.6-0.1-5C35.7,9,35.5,7.9,35.2,7c-0.3-0.9-0.7-1.5-1.2-1.9
	c-0.5-0.4-1.2-0.6-2.1-0.6c-0.9,0-1.6,0.2-2.1,0.6c-0.5,0.4-0.9,1-1.2,1.9c-0.3,0.9-0.5,2-0.6,3.3c-0.1,1.4-0.1,3-0.1,5
	S27.9,18.9,28,20.3z M22.3,9.2c0.2-1.9,0.7-3.5,1.3-4.8c0.7-1.3,1.7-2.4,3-3.1c1.3-0.7,3.1-1.1,5.3-1.1s4,0.4,5.3,1.1
	c1.3,0.7,2.3,1.8,3,3.1c0.7,1.3,1.1,2.9,1.3,4.8c0.2,1.9,0.3,3.9,0.3,6.1c0,2.2-0.1,4.3-0.3,6.1c-0.2,1.9-0.7,3.4-1.3,4.8
	c-0.7,1.3-1.7,2.4-3,3.1c-1.3,0.7-3.1,1.1-5.3,1.1s-4-0.4-5.3-1.1c-1.3-0.7-2.3-1.7-3-3.1c-0.7-1.3-1.1-2.9-1.3-4.8
	c-0.2-1.8-0.3-3.9-0.3-6.1C21.9,13.1,22,11.1,22.3,9.2z"/>
<path fill="#4555A5" d="M45.3,0.7h5.9v24.3h10.4v4.8H45.3V0.7z"/>
<path fill="#4555A5" d="M69.6,20.3c0.1,1.4,0.3,2.5,0.6,3.3c0.3,0.9,0.7,1.5,1.2,1.9c0.5,0.4,1.2,0.6,2.1,0.6c0.9,0,1.6-0.2,2.1-0.6
	c0.5-0.4,0.9-1,1.2-1.9c0.3-0.9,0.5-2,0.6-3.3c0.1-1.4,0.1-3,0.1-5s0-3.6-0.1-5C77.3,9,77.1,7.9,76.8,7c-0.3-0.9-0.7-1.5-1.2-1.9
	c-0.5-0.4-1.2-0.6-2.1-0.6c-0.9,0-1.6,0.2-2.1,0.6c-0.5,0.4-0.9,1-1.2,1.9c-0.3,0.9-0.5,2-0.6,3.3c-0.1,1.4-0.1,3-0.1,5
	S69.5,18.9,69.6,20.3z M63.9,9.2c0.2-1.9,0.7-3.5,1.3-4.8c0.7-1.3,1.7-2.4,3-3.1c1.3-0.7,3.1-1.1,5.3-1.1c2.2,0,4,0.4,5.3,1.1
	c1.3,0.7,2.3,1.8,3,3.1c0.7,1.3,1.1,2.9,1.3,4.8c0.2,1.9,0.3,3.9,0.3,6.1c0,2.2-0.1,4.3-0.3,6.1c-0.2,1.9-0.7,3.4-1.3,4.8
	c-0.7,1.3-1.7,2.4-3,3.1c-1.3,0.7-3.1,1.1-5.3,1.1c-2.2,0-4-0.4-5.3-1.1c-1.3-0.7-2.3-1.7-3-3.1c-0.7-1.3-1.1-2.9-1.3-4.8
	c-0.2-1.8-0.3-3.9-0.3-6.1C63.6,13.1,63.7,11.1,63.9,9.2z"/>
<path fill="#4555A5" d="M92.4,21.1c0,0.7,0,1.4,0.1,2c0.1,0.6,0.3,1.1,0.5,1.6c0.3,0.4,0.6,0.8,1.1,1.1c0.4,0.3,1,0.4,1.7,0.4
	c0.7,0,1.3-0.1,1.7-0.4c0.4-0.3,0.8-0.6,1-1.1c0.3-0.4,0.4-1,0.5-1.6c0.1-0.6,0.1-1.3,0.1-2V0.7h5.9v20.3c0,1.9-0.3,3.4-0.8,4.6
	c-0.5,1.2-1.2,2.2-2.1,2.9c-0.9,0.7-1.9,1.2-3,1.4c-1.1,0.2-2.3,0.4-3.5,0.4c-1.2,0-2.4-0.1-3.5-0.3c-1.1-0.2-2.1-0.7-3-1.3
	c-0.9-0.7-1.6-1.6-2.1-2.8c-0.5-1.2-0.8-2.8-0.8-4.8V0.7h5.9V21.1z"/>
<path fill="#4555A5" d="M119.8,0.7c2.5,0,4.4,0.6,5.7,1.9c1.4,1.2,2,3.1,2,5.7c0,2-0.4,3.6-1.2,4.8c-0.8,1.2-2,2-3.7,2.4v0.1
	c1.5,0.2,2.5,0.7,3.2,1.4c0.7,0.7,1.1,1.9,1.3,3.6c0.1,0.5,0.1,1.1,0.1,1.8c0,0.6,0.1,1.4,0.1,2.1c0.1,1.6,0.1,2.7,0.2,3.6
	c0.2,0.8,0.5,1.4,1.1,1.7v0.2h-6.4c-0.3-0.4-0.5-0.9-0.6-1.4c-0.1-0.5-0.1-1.1-0.2-1.7l-0.2-5.6c-0.1-1.1-0.3-2-0.9-2.7
	c-0.5-0.7-1.4-1-2.6-1h-3.1v12.3h-5.9V0.7H119.8z M117.2,13.5c1.4,0,2.5-0.3,3.3-1c0.8-0.7,1.1-1.8,1.1-3.4c0-2.7-1.4-4-4.1-4h-2.8
	v8.4H117.2z"/>
<path fill="#4555A5" d="M131.9,0.7h5.9v29.1h-5.9V0.7z"/>
<path fill="#4555A5" d="M156.1,20.7L156.1,20.7l0.1-20h5.4v29.1h-6.7l-7.2-20.4h-0.1v20.4h-5.4V0.7h6.8L156.1,20.7z"/>
<path fill="#4555A5" d="M178.4,7.7c-0.1-0.6-0.3-1.1-0.6-1.6c-0.3-0.5-0.6-0.9-1-1.2c-0.4-0.3-0.9-0.5-1.5-0.5
	c-1.4,0-2.4,0.8-3.1,2.4c-0.6,1.6-0.9,4.2-0.9,7.8c0,1.7,0.1,3.3,0.2,4.7c0.1,1.4,0.3,2.6,0.6,3.6c0.3,1,0.7,1.8,1.2,2.3
	c0.5,0.5,1.2,0.8,2.1,0.8c0.4,0,0.7-0.1,1.2-0.3c0.4-0.2,0.8-0.5,1.2-0.9c0.4-0.4,0.7-0.9,0.9-1.4c0.2-0.6,0.4-1.3,0.4-2.1v-3H175
	v-4.3h9.5v15.7h-4.3v-2.7h-0.1c-0.7,1.1-1.6,2-2.6,2.4c-1,0.5-2.2,0.7-3.6,0.7c-1.8,0-3.3-0.3-4.4-0.9c-1.1-0.6-2-1.6-2.7-2.9
	c-0.6-1.3-1.1-2.9-1.3-4.8c-0.2-1.9-0.3-4.1-0.3-6.7c0-2.4,0.2-4.6,0.5-6.4c0.3-1.8,0.9-3.4,1.6-4.6c0.8-1.2,1.8-2.2,3-2.8
	c1.3-0.6,2.8-0.9,4.7-0.9c3.2,0,5.5,0.8,6.9,2.4c1.4,1.6,2.1,3.9,2.1,6.8h-5.6C178.6,8.9,178.5,8.3,178.4,7.7z"/>
<path fill="#4555A5" d="M112.3,38.6c-0.5-1-1.4-1.4-2.8-1.4c-0.7,0-1.3,0.2-1.8,0.6c-0.5,0.4-0.9,1-1.1,1.9c-0.3,0.9-0.5,2-0.6,3.5
	c-0.1,1.4-0.2,3.2-0.2,5.2c0,2.2,0.1,4,0.2,5.3c0.1,1.4,0.4,2.4,0.7,3.2c0.3,0.7,0.7,1.3,1.2,1.5c0.5,0.3,1,0.4,1.7,0.4
	c0.5,0,1-0.1,1.5-0.3c0.4-0.2,0.8-0.5,1.2-1.1c0.3-0.5,0.6-1.3,0.8-2.2c0.2-1,0.3-2.2,0.3-3.8h5.9c0,1.6-0.1,3.1-0.4,4.5
	c-0.2,1.4-0.7,2.7-1.4,3.7c-0.7,1.1-1.6,1.9-2.8,2.5c-1.2,0.6-2.8,0.9-4.7,0.9c-2.2,0-4-0.4-5.3-1.1c-1.3-0.7-2.3-1.7-3-3.1
	c-0.7-1.3-1.1-2.9-1.3-4.8c-0.2-1.8-0.3-3.9-0.3-6.1c0-2.2,0.1-4.2,0.3-6.1c0.2-1.9,0.7-3.5,1.3-4.8c0.7-1.3,1.7-2.4,3-3.1
	c1.3-0.7,3.1-1.1,5.3-1.1c2.1,0,3.8,0.3,5,1c1.2,0.7,2.1,1.5,2.7,2.6c0.6,1,1,2.2,1.1,3.4c0.1,1.2,0.2,2.3,0.2,3.4H113
	C113,41.1,112.8,39.6,112.3,38.6z"/>
<path fill="#4555A5" d="M127.9,53c0.1,1.4,0.3,2.5,0.6,3.3c0.3,0.9,0.7,1.5,1.2,1.9c0.5,0.4,1.2,0.6,2.1,0.6c0.9,0,1.6-0.2,2.1-0.6
	c0.5-0.4,0.9-1,1.2-1.9s0.5-2,0.6-3.3c0.1-1.4,0.1-3,0.1-5c0-2,0-3.6-0.1-5c-0.1-1.4-0.3-2.5-0.6-3.3c-0.3-0.9-0.7-1.5-1.2-1.9
	c-0.5-0.4-1.2-0.6-2.1-0.6c-0.9,0-1.6,0.2-2.1,0.6c-0.5,0.4-0.9,1-1.2,1.9c-0.3,0.9-0.5,2-0.6,3.3c-0.1,1.4-0.1,3-0.1,5
	C127.8,49.9,127.8,51.6,127.9,53z M122.2,41.9c0.2-1.9,0.7-3.5,1.3-4.8c0.7-1.3,1.7-2.4,3-3.1c1.3-0.7,3.1-1.1,5.3-1.1
	c2.2,0,4,0.4,5.3,1.1c1.3,0.7,2.3,1.8,3,3.1c0.7,1.3,1.1,2.9,1.3,4.8c0.2,1.9,0.3,3.9,0.3,6.1c0,2.2-0.1,4.3-0.3,6.1
	c-0.2,1.9-0.7,3.4-1.3,4.8c-0.7,1.3-1.7,2.4-3,3.1c-1.3,0.7-3.1,1.1-5.3,1.1c-2.2,0-4-0.4-5.3-1.1c-1.3-0.7-2.3-1.7-3-3.1
	c-0.7-1.3-1.1-2.9-1.3-4.8c-0.2-1.8-0.3-3.9-0.3-6.1C121.9,45.8,122,43.7,122.2,41.9z"/>
<path fill="#4555A5" d="M154,58.2c1,0,1.9-0.2,2.5-0.5c0.6-0.4,1.1-0.9,1.5-1.8c0.4-0.8,0.6-1.9,0.7-3.2c0.1-1.3,0.2-3,0.2-5
	c0-1.7-0.1-3.1-0.2-4.4c-0.1-1.3-0.3-2.3-0.7-3.1c-0.3-0.8-0.8-1.5-1.5-1.9c-0.7-0.4-1.6-0.6-2.7-0.6h-2.5v20.5H154z M155.2,33.4
	c2,0,3.7,0.3,4.9,1c1.3,0.7,2.2,1.6,2.9,2.9c0.7,1.2,1.2,2.7,1.4,4.5c0.2,1.7,0.4,3.7,0.4,5.8c0,2.6-0.2,4.8-0.5,6.7
	c-0.3,1.9-0.9,3.4-1.6,4.7c-0.8,1.2-1.8,2.1-3.1,2.7c-1.3,0.6-2.9,0.9-4.9,0.9h-9.3V33.4H155.2z"/>
<path fill="#4555A5" d="M185,38.2h-10.4v6.9h9.8v4.8h-9.8v7.8h10.8v4.8h-16.7V33.4H185V38.2z"/>
</svg>
