<svg xmlns="http://www.w3.org/2000/svg" viewBox="0 0 255.3 63" enable-background="new 0 0 255.3 63"><path fill="#EF4481" d="M196.2 2.4c-1.2 1.6-1.8 3.9-1.8 6.9v13.5c0 1.6-.5 3-1.4 4-1 1.1-2 1.6-3.2 1.6v5.7c1.2 0 2.2.5 3.2 1.6s1.4 2.4 1.4 4V53c0 3 .6 5.3 1.8 6.9 1.2 1.6 3 2.4 5.4 2.4h6.2v-7h-2.1c-1.1 0-1.8-.5-2.2-1.5-.3-1-.5-2.2-.5-3.5V39.1c0-2.1-.5-3.8-1.4-5.2-.9-1.4-2.1-2.2-3.6-2.5v-.1c1.5-.3 2.7-1.1 3.6-2.5.9-1.4 1.4-3.1 1.4-5.2V12c0-1.3.2-2.5.5-3.5s1.1-1.5 2.2-1.5h2.1V0h-6.2c-2.4 0-4.2.8-5.4 2.4zm56 24.5c-1-1.1-1.4-2.4-1.4-4V9.4c0-3-.6-5.3-1.8-6.9-1.2-1.6-3-2.4-5.4-2.4h-6.2v7h2.1c1.1 0 1.8.5 2.2 1.5.3 1 .5 2.2.5 3.5v11.6c0 2.1.5 3.8 1.4 5.2.9 1.4 2.1 2.2 3.6 2.5v.1c-1.5.3-2.7 1.1-3.6 2.5-.9 1.4-1.4 3.1-1.4 5.2v11.4c0 1.3-.2 2.5-.5 3.5s-1.1 1.5-2.2 1.5h-2.1v7h6.2c2.4 0 4.2-.8 5.4-2.4 1.2-1.6 1.8-3.9 1.8-6.9V39.9c0-1.6.5-3 1.4-4 1-1.1 2-1.6 3.2-1.6v-5.7c-1.2-.1-2.3-.7-3.2-1.7z"/><path fill="#4555A5" d="M12.3 5.9c-.5-1-1.4-1.4-2.8-1.4-.7 0-1.3.2-1.8.6-.4.4-.8 1-1.1 1.9-.3.9-.4 2-.6 3.5-.1 1.4-.2 3.2-.2 5.2 0 2.2.1 4 .2 5.3.1 1.4.4 2.4.7 3.2.4.8.8 1.3 1.3 1.5.5.3 1 .4 1.7.4.5 0 1-.1 1.5-.3.4-.2.8-.5 1.2-1.1s.6-1.3.8-2.2c.2-1 .3-2.2.3-3.8h5.9c0 1.6-.1 3.1-.4 4.5-.2 1.4-.7 2.7-1.4 3.7-.7 1.1-1.6 1.9-2.8 2.5-1.2.6-2.8.9-4.7.9-2.2 0-4-.4-5.3-1.1-1.3-.7-2.3-1.7-3-3.1-.7-1.3-1.1-2.9-1.3-4.8-.4-1.7-.5-3.8-.5-6s.1-4.2.3-6.1c.2-1.9.7-3.5 1.4-4.8.7-1.3 1.7-2.4 3-3.1C6 .5 7.7.2 9.9.2c2.1 0 3.8.3 5 1 1.2.7 2.1 1.5 2.7 2.6.6 1 1 2.2 1.1 3.4.1 1.2.2 2.3.2 3.4H13c.1-2.1-.2-3.7-.7-4.7zM28 20.3c.1 1.4.3 2.5.6 3.3.3.9.7 1.5 1.2 1.9.5.4 1.2.6 2.1.6.9 0 1.6-.2 2.1-.6.5-.4.9-1 1.2-1.9.3-.9.5-2 .6-3.3.1-1.4.1-3 .1-5s0-3.6-.1-5c-.1-1.3-.3-2.4-.6-3.3-.3-.9-.7-1.5-1.2-1.9-.5-.4-1.2-.6-2.1-.6-.9 0-1.6.2-2.1.6-.5.4-.9 1-1.2 1.9-.3.9-.5 2-.6 3.3-.1 1.4-.1 3-.1 5s0 3.6.1 5zM22.3 9.2c.2-1.9.7-3.5 1.3-4.8.7-1.3 1.7-2.4 3-3.1C27.9.6 29.7.2 31.9.2s4 .4 5.3 1.1c1.3.7 2.3 1.8 3 3.1.7 1.3 1.1 2.9 1.3 4.8.2 1.9.3 3.9.3 6.1 0 2.2-.1 4.3-.3 6.1-.2 1.9-.7 3.4-1.3 4.8-.7 1.3-1.7 2.4-3 3.1-1.3.7-3.1 1.1-5.3 1.1s-4-.4-5.3-1.1c-1.3-.7-2.3-1.7-3-3.1-.7-1.3-1.1-2.9-1.3-4.8-.2-1.8-.3-3.9-.3-6.1-.1-2.2 0-4.2.3-6.1zM45.3.7h5.9V25h10.4v4.8H45.3V.7zM69.6 20.3c.1 1.4.3 2.5.6 3.3.3.9.7 1.5 1.2 1.9.5.4 1.2.6 2.1.6.9 0 1.6-.2 2.1-.6.5-.4.9-1 1.2-1.9.3-.9.5-2 .6-3.3.1-1.4.1-3 .1-5s0-3.6-.1-5c-.1-1.3-.3-2.4-.6-3.3-.3-.9-.7-1.5-1.2-1.9-.5-.4-1.2-.6-2.1-.6-.9 0-1.6.2-2.1.6-.5.4-.9 1-1.2 1.9-.3.9-.5 2-.6 3.3-.1 1.4-.1 3-.1 5s0 3.6.1 5zM63.9 9.2c.2-1.9.7-3.5 1.3-4.8.7-1.3 1.7-2.4 3-3.1C69.5.6 71.3.2 73.5.2c2.2 0 4 .4 5.3 1.1 1.3.7 2.3 1.8 3 3.1.7 1.3 1.1 2.9 1.3 4.8.2 1.9.3 3.9.3 6.1 0 2.2-.1 4.3-.3 6.1-.2 1.9-.7 3.4-1.3 4.8-.7 1.3-1.7 2.4-3 3.1-1.3.7-3.1 1.1-5.3 1.1-2.2 0-4-.4-5.3-1.1-1.3-.7-2.3-1.7-3-3.1-.7-1.3-1.1-2.9-1.3-4.8-.2-1.8-.3-3.9-.3-6.1 0-2.2.1-4.2.3-6.1zM92.4 21.1c0 .7 0 1.4.1 2 .1.6.3 1.1.5 1.6.3.4.6.8 1.1 1.1.4.3 1 .4 1.7.4s1.3-.1 1.7-.4c.4-.3.8-.6 1-1.1.3-.4.4-1 .5-1.6.1-.6.1-1.3.1-2V.7h5.9V21c0 1.9-.3 3.4-.8 4.6-.5 1.2-1.2 2.2-2.1 2.9-.9.7-1.9 1.2-3 1.4-1.1.2-2.3.4-3.5.4-1.2 0-2.4-.1-3.5-.3-1.1-.2-2.1-.7-3-1.3-.9-.7-1.6-1.6-2.1-2.8-.5-1.2-.8-2.8-.8-4.8V.7h5.9v20.4zM119.8.7c2.5 0 4.4.6 5.7 1.9 1.4 1.2 2 3.1 2 5.7 0 2-.4 3.6-1.2 4.8-.8 1.2-2 2-3.7 2.4v.1c1.5.2 2.5.7 3.2 1.4.7.7 1.1 1.9 1.3 3.6.1.5.1 1.1.1 1.8 0 .6.1 1.4.1 2.1.1 1.6.1 2.7.2 3.6.2.8.5 1.4 1.1 1.7v.2h-6.4c-.3-.4-.5-.9-.6-1.4-.1-.5-.1-1.1-.2-1.7l-.2-5.6c-.1-1.1-.3-2-.9-2.7-.5-.7-1.4-1-2.6-1h-3.1v12.3h-5.9V.7h11.1zm-2.6 12.8c1.4 0 2.5-.3 3.3-1 .8-.7 1.1-1.8 1.1-3.4 0-2.7-1.4-4-4.1-4h-2.8v8.4h2.5zM131.9.7h5.9v29.1h-5.9V.7zM156.1 20.7l.1-20h5.4v29.1h-6.7l-7.2-20.4h-.1v20.4h-5.4V.7h6.8l7.1 20zM178.4 7.7c-.1-.6-.3-1.1-.6-1.6s-.6-.9-1-1.2c-.4-.3-.9-.5-1.5-.5-1.4 0-2.4.8-3.1 2.4-.6 1.6-.9 4.2-.9 7.8 0 1.7.1 3.3.2 4.7.1 1.4.3 2.6.6 3.6s.7 1.8 1.2 2.3c.5.5 1.2.8 2.1.8.4 0 .7-.1 1.2-.3.4-.2.8-.5 1.2-.9.4-.4.7-.9.9-1.4.2-.6.4-1.3.4-2.1v-3H175V14h9.5v15.7h-4.3V27h-.1c-.7 1.1-1.6 2-2.6 2.4-1 .5-2.2.7-3.6.7-1.8 0-3.3-.3-4.4-.9-1.1-.6-2-1.6-2.7-2.9-.6-1.3-1.1-2.9-1.3-4.8-.2-1.9-.3-4.1-.3-6.7 0-2.4.2-4.6.5-6.4.3-1.8.9-3.4 1.6-4.6.8-1.2 1.8-2.2 3-2.8 1.3-.6 2.8-.9 4.7-.9 3.2 0 5.5.8 6.9 2.4 1.4 1.6 2.1 3.9 2.1 6.8h-5.6c.2-.4.1-1 0-1.6zM112.3 38.6c-.5-1-1.4-1.4-2.8-1.4-.7 0-1.3.2-1.8.6-.5.4-.9 1-1.1 1.9-.3.9-.5 2-.6 3.5-.1 1.4-.2 3.2-.2 5.2 0 2.2.1 4 .2 5.3.1 1.4.4 2.4.7 3.2.3.7.7 1.3 1.2 1.5.5.3 1 .4 1.7.4.5 0 1-.1 1.5-.3.4-.2.8-.5 1.2-1.1.3-.5.6-1.3.8-2.2.2-1 .3-2.2.3-3.8h5.9c0 1.6-.1 3.1-.4 4.5-.2 1.4-.7 2.7-1.4 3.7-.7 1.1-1.6 1.9-2.8 2.5-1.2.6-2.8.9-4.7.9-2.2 0-4-.4-5.3-1.1-1.3-.7-2.3-1.7-3-3.1-.7-1.3-1.1-2.9-1.3-4.8-.2-1.8-.3-3.9-.3-6.1 0-2.2.1-4.2.3-6.1.2-1.9.7-3.5 1.3-4.8.7-1.3 1.7-2.4 3-3.1 1.3-.7 3.1-1.1 5.3-1.1 2.1 0 3.8.3 5 1 1.2.7 2.1 1.5 2.7 2.6.6 1 1 2.2 1.1 3.4.1 1.2.2 2.3.2 3.4h-6c0-2.1-.2-3.6-.7-4.6zM127.9 53c.1 1.4.3 2.5.6 3.3.3.9.7 1.5 1.2 1.9.5.4 1.2.6 2.1.6.9 0 1.6-.2 2.1-.6.5-.4.9-1 1.2-1.9s.5-2 .6-3.3c.1-1.4.1-3 .1-5s0-3.6-.1-5-.3-2.5-.6-3.3c-.3-.9-.7-1.5-1.2-1.9-.5-.4-1.2-.6-2.1-.6-.9 0-1.6.2-2.1.6-.5.4-.9 1-1.2 1.9-.3.9-.5 2-.6 3.3-.1 1.4-.1 3-.1 5 0 1.9 0 3.6.1 5zm-5.7-11.1c.2-1.9.7-3.5 1.3-4.8.7-1.3 1.7-2.4 3-3.1 1.3-.7 3.1-1.1 5.3-1.1 2.2 0 4 .4 5.3 1.1 1.3.7 2.3 1.8 3 3.1.7 1.3 1.1 2.9 1.3 4.8.2 1.9.3 3.9.3 6.1 0 2.2-.1 4.3-.3 6.1-.2 1.9-.7 3.4-1.3 4.8-.7 1.3-1.7 2.4-3 3.1-1.3.7-3.1 1.1-5.3 1.1-2.2 0-4-.4-5.3-1.1-1.3-.7-2.3-1.7-3-3.1-.7-1.3-1.1-2.9-1.3-4.8-.2-1.8-.3-3.9-.3-6.1 0-2.2.1-4.3.3-6.1zM154 58.2c1 0 1.9-.2 2.5-.5.6-.4 1.1-.9 1.5-1.8.4-.8.6-1.9.7-3.2.1-1.3.2-3 .2-5 0-1.7-.1-3.1-.2-4.4-.1-1.3-.3-2.3-.7-3.1-.3-.8-.8-1.5-1.5-1.9-.7-.4-1.6-.6-2.7-.6h-2.5v20.5h2.7zm1.2-24.8c2 0 3.7.3 4.9 1 1.3.7 2.2 1.6 2.9 2.9.7 1.2 1.2 2.7 1.4 4.5.2 1.7.4 3.7.4 5.8 0 2.6-.2 4.8-.5 6.7-.3 1.9-.9 3.4-1.6 4.7-.8 1.2-1.8 2.1-3.1 2.7-1.3.6-2.9.9-4.9.9h-9.3V33.4h9.8zM185 38.2h-10.4v6.9h9.8v4.8h-9.8v7.8h10.8v4.8h-16.7V33.4H185v4.8z"/></svg>