<?xml version="1.0" encoding="utf-8"?>
<!-- Generator: Adobe Illustrator 20.0.0, SVG Export Plug-In . SVG Version: 6.00 Build 0)  -->
<svg version="1.1" id="Layer_1" xmlns="http://www.w3.org/2000/svg" xmlns:xlink="http://www.w3.org/1999/xlink" x="0px" y="0px"
	 viewBox="0 0 600 125.1" enable-background="new 0 0 600 125.1" xml:space="preserve">
<g>
	<g>
		<g>
			<path fill="#0080FF" d="M172.3,1.1c4.9,0,8.7,2.9,8.7,8.6c0,5.6-3.8,8.5-8.7,8.5h-7.6v11.1h-3.5V1.1H172.3z M164.7,15.2h7.2
				c3,0,5.6-1.8,5.6-5.5c0-3.8-2.5-5.5-5.6-5.5h-7.2V15.2z"/>
			<path fill="#0080FF" d="M206.8,19.7c0,6.1-4.3,10-9.9,10c-5.6,0-9.9-3.9-9.9-10c0-6.1,4.3-10,9.9-10
				C202.5,9.7,206.8,13.6,206.8,19.7z M190.3,19.7c0,4.5,2.9,7.2,6.6,7.2c3.7,0,6.6-2.7,6.6-7.2c0-4.5-2.9-7.1-6.6-7.1
				C193.2,12.6,190.3,15.2,190.3,19.7z"/>
			<path fill="#0080FF" d="M232.4,29.4l-5.2-13.8L222,29.4h-2.6l-7.3-19.3h3.6l5.2,14l5.2-14h2.3l5.3,14l5.2-14h3.5L235,29.4H232.4z
				"/>
			<path fill="#0080FF" d="M251,21c0.2,3.7,2.6,5.9,6,5.9c2.8,0,4.8-1.3,5.4-3.4l3.2,0.2c-0.8,3.5-4.1,6.1-8.6,6.1
				c-5.5,0-9.6-3.7-9.6-10c0-6.3,4-10,9.5-10c5.5,0,8.8,3.7,8.8,9.4V21H251z M251,18.3h11.6c-0.1-3.4-2-5.7-5.6-5.7
				C253.6,12.6,251.2,14.6,251,18.3z"/>
			<path fill="#0080FF" d="M283.4,13c-3.4,0-5.6,2.3-5.6,5.3v11.1h-3.2V10.1h3.2V13c0.7-1.6,2.5-3.1,5.7-3.1V13z"/>
			<path fill="#0080FF" d="M292.7,21c0.2,3.7,2.6,5.9,6,5.9c2.8,0,4.8-1.3,5.4-3.4l3.2,0.2c-0.8,3.5-4.1,6.1-8.6,6.1
				c-5.5,0-9.6-3.7-9.6-10c0-6.3,4-10,9.5-10c5.5,0,8.8,3.7,8.8,9.4V21H292.7z M292.7,18.3h11.6c-0.1-3.4-2-5.7-5.6-5.7
				C295.4,12.6,292.9,14.6,292.7,18.3z"/>
			<path fill="#0080FF" d="M331.1,29.4v-3.1c-1.1,2-3.6,3.5-6.8,3.5c-5.3,0-9.3-3.8-9.3-10c0-6.2,4-10,9.3-10c3.2,0,5.6,1.4,6.6,3.2
				V0h3.2v29.4H331.1z M318.3,19.7c0,4.6,2.8,7.2,6.5,7.2c3.6,0,6.2-2.2,6.2-6.6v-1.1c0-4.3-2.6-6.6-6.2-6.6
				C321.1,12.6,318.3,15.1,318.3,19.7z"/>
			<path fill="#0080FF" d="M359.8,13c1.1-1.9,3.4-3.2,6.7-3.2c5.3,0,9.3,3.8,9.3,10c0,6.2-4,10-9.3,10c-3.3,0-5.7-1.5-6.8-3.5v3.1
				h-3.1V0h3.2V13z M359.9,19.2v1.1c0,4.4,2.6,6.6,6.2,6.6c3.7,0,6.5-2.5,6.5-7.2c0-4.6-2.8-7.1-6.5-7.1
				C362.5,12.6,359.9,14.8,359.9,19.2z"/>
			<path fill="#0080FF" d="M384.3,39l4.6-10.7l-7.7-18.2h3.6l5.8,14.5l5.8-14.5h3.6L387.9,39H384.3z"/>
		</g>
	</g>
	<g id="XMLID_2369_">
		<g>
			<g id="XMLID_145_">
				<g>
					<g>
						<g id="XMLID_146_">
							<g id="XMLID_147_">
								<path fill="#0080FF" d="M62.4,125.1l0-24.2c25.6,0,45.5-25.4,35.7-52.3c-3.6-10-11.6-17.9-21.6-21.6
									c-27-9.8-52.3,10-52.3,35.7c0,0,0,0,0,0L0,62.7C0,21.9,39.5-10,82.3,3.4c18.7,5.8,33.6,20.7,39.4,39.4
									C135,85.6,103.2,125.1,62.4,125.1z"/>
							</g>
							<polygon fill-rule="evenodd" clip-rule="evenodd" fill="#0080FF" points="62.4,101 38.4,101 38.4,76.9 38.4,76.9 62.4,76.9 
								62.4,76.9 							"/>
							<polygon fill-rule="evenodd" clip-rule="evenodd" fill="#0080FF" points="38.3,119.5 19.8,119.5 19.8,119.5 19.8,101 
								38.4,101 38.4,119.5 							"/>
							<path fill-rule="evenodd" clip-rule="evenodd" fill="#0080FF" d="M19.9,101H4.3c0,0,0,0,0,0V85.5c0,0,0,0,0,0h15.5
								c0,0,0,0,0,0V101z"/>
						</g>
					</g>
				</g>
			</g>
			<g id="XMLID_132_">
				<path fill="#0080FF" d="M198.9,50.4c-5.5-3.8-12.4-5.8-20.5-5.8h-17.5v55.5h17.5c8,0,14.9-2.1,20.5-6.1c3-2.1,5.4-5.1,7.1-8.9
					c1.7-3.7,2.5-8.2,2.5-13.1c0-4.9-0.8-9.3-2.5-13C204.3,55.4,201.9,52.5,198.9,50.4z M171.1,54.1h5.5c6.1,0,11.1,1.2,15,3.6
					c4.2,2.6,6.4,7.4,6.4,14.4c0,7.2-2.2,12.3-6.4,15.1h0c-3.7,2.4-8.7,3.6-14.9,3.6h-5.6V54.1z"/>
				<path fill="#0080FF" d="M220.6,44c-1.7,0-3.1,0.6-4.3,1.8c-1.2,1.1-1.8,2.6-1.8,4.2c0,1.7,0.6,3.1,1.8,4.3
					c1.2,1.2,2.6,1.8,4.3,1.8c1.7,0,3.1-0.6,4.3-1.8c1.2-1.2,1.8-2.6,1.8-4.3c0-1.7-0.6-3.1-1.8-4.2C223.7,44.6,222.3,44,220.6,44z"
					/>
				<rect x="215.6" y="61.1" fill="#0080FF" width="9.8" height="39.1"/>
				<path fill="#0080FF" d="M261.2,64.4c-3-2.6-6.3-4.2-9.9-4.2c-5.4,0-9.9,1.9-13.4,5.6c-3.5,3.7-5.3,8.4-5.3,14.1
					c0,5.5,1.8,10.2,5.2,14c3.5,3.7,8,5.5,13.5,5.5c3.8,0,7.1-1.1,9.7-3.1v0.9c0,3.2-0.9,5.8-2.6,7.5c-1.7,1.7-4.1,2.6-7.1,2.6
					c-4.5,0-7.4-1.8-10.9-6.5l-6.7,6.4l0.2,0.3c1.4,2,3.7,4,6.6,5.9c2.9,1.9,6.6,2.8,10.9,2.8c5.8,0,10.6-1.8,14.1-5.4
					c3.5-3.6,5.3-8.4,5.3-14.2V61.1h-9.7V64.4z M258.6,87.5c-1.7,2-3.9,2.9-6.8,2.9c-2.8,0-5-0.9-6.7-2.9c-1.7-1.9-2.5-4.5-2.5-7.7
					c0-3.2,0.9-5.8,2.5-7.7c1.7-1.9,3.9-2.9,6.7-2.9c2.8,0,5,1,6.8,2.9c1.7,2,2.6,4.6,2.6,7.7C261.2,82.9,260.3,85.5,258.6,87.5z"/>
				<rect x="279.3" y="61.1" fill="#0080FF" width="9.8" height="39.1"/>
				<path fill="#0080FF" d="M284.3,44c-1.7,0-3.1,0.6-4.3,1.8c-1.2,1.1-1.8,2.6-1.8,4.2c0,1.7,0.6,3.1,1.8,4.3
					c1.2,1.2,2.6,1.8,4.3,1.8c1.7,0,3.1-0.6,4.3-1.8c1.2-1.2,1.8-2.6,1.8-4.3c0-1.7-0.6-3.1-1.8-4.2C287.4,44.6,286,44,284.3,44z"/>
				<path fill="#0080FF" d="M310.7,50.5H301v10.6h-5.6v9h5.6v16.2c0,5.1,1,8.7,3,10.8c2,2.1,5.6,3.2,10.6,3.2c1.6,0,3.2-0.1,4.8-0.2
					l0.4,0v-9l-3.4,0.2c-2.3,0-3.9-0.4-4.7-1.2c-0.8-0.8-1.1-2.6-1.1-5.2V70.1h9.2v-9h-9.2V50.5z"/>
				<rect x="366" y="44.7" fill="#0080FF" width="9.8" height="55.5"/>
				<path fill="#0080FF" d="M475.3,86.2c-1.8,2-3.6,3.7-4.9,4.6v0c-1.4,0.9-3.1,1.3-5.1,1.3c-2.9,0-5.2-1.1-7.1-3.2
					c-1.9-2.2-2.8-4.9-2.8-8.3c0-3.3,0.9-6.1,2.8-8.2c1.9-2.2,4.2-3.2,7.1-3.2c3.2,0,6.5,2,9.4,5.4l6.5-6.2l0,0
					c-4.2-5.5-9.7-8.1-16.1-8.1c-5.4,0-10.1,2-13.9,5.8c-3.8,3.9-5.7,8.8-5.7,14.6s1.9,10.7,5.7,14.6c3.8,3.9,8.5,5.9,13.9,5.9
					c7.1,0,12.9-3.1,16.8-8.7L475.3,86.2z"/>
				<path fill="#0080FF" d="M515.7,66.6c-1.4-1.9-3.3-3.5-5.7-4.7c-2.3-1.1-5.1-1.7-8.1-1.7c-5.5,0-10,2-13.4,6
					c-3.3,4-4.9,8.9-4.9,14.7c0,5.9,1.8,10.8,5.4,14.6c3.6,3.7,8.4,5.6,14.2,5.6c6.6,0,12.1-2.7,16.2-8l0.2-0.3l-6.4-6.2l0,0
					c-0.6,0.7-1.4,1.5-2.2,2.3c-1,0.9-1.9,1.6-2.9,2.1c-1.5,0.7-3.1,1.1-5,1.1c-2.7,0-5-0.8-6.7-2.4c-1.6-1.5-2.6-3.5-2.8-5.9h26.1
					l0.1-3.6c0-2.5-0.3-5-1-7.3C518.1,70.6,517.1,68.5,515.7,66.6z M494.2,75.8c0.5-1.9,1.3-3.4,2.6-4.6c1.3-1.3,3.1-2,5.2-2
					c2.4,0,4.2,0.7,5.5,2c1.2,1.2,1.8,2.8,2,4.6H494.2z"/>
				<path fill="#0080FF" d="M553.5,64L553.5,64c-3-2.5-7.1-3.8-12.3-3.8c-3.3,0-6.3,0.7-9.1,2.1c-2.6,1.3-5.1,3.5-6.7,6.3l0.1,0.1
					l6.3,6c2.6-4.1,5.5-5.6,9.3-5.6c2.1,0,3.8,0.6,5.1,1.6c1.3,1.1,1.9,2.5,1.9,4.2v1.9c-2.4-0.7-4.9-1.1-7.2-1.1
					c-4.9,0-8.9,1.2-11.8,3.4c-3,2.3-4.5,5.6-4.5,9.8c0,3.7,1.3,6.7,3.8,8.9c2.6,2.1,5.8,3.2,9.5,3.2c3.7,0,7.3-1.5,10.4-4.1v3.2
					h9.7V75.1C558,70.3,556.5,66.6,553.5,64z M536,85.3c1.1-0.8,2.7-1.2,4.7-1.2c2.4,0,4.9,0.5,7.5,1.4v3.8c-2.1,2-5,3-8.5,3
					c-1.7,0-3-0.4-3.9-1.1c-0.9-0.7-1.3-1.7-1.3-2.8C534.4,87,534.9,86,536,85.3z"/>
				<path fill="#0080FF" d="M595.9,64.8c-2.7-3.1-6.6-4.6-11.5-4.6c-3.9,0-7.1,1.1-9.4,3.3v-2.4h-9.7v39.1h9.8V78.6
					c0-3,0.7-5.3,2.1-7c1.4-1.7,3.3-2.5,5.8-2.5c2.2,0,3.9,0.7,5.2,2.2c1.3,1.5,1.9,3.6,1.9,6.2v22.7h9.8V77.5
					C600,72.1,598.6,67.8,595.9,64.8z"/>
				<path fill="#0080FF" d="M353.6,64L353.6,64c-3-2.5-7.1-3.8-12.3-3.8c-3.3,0-6.3,0.7-9.1,2.1c-2.6,1.3-5.1,3.5-6.7,6.3l0.1,0.1
					l6.3,6c2.6-4.1,5.5-5.6,9.3-5.6c2.1,0,3.8,0.6,5.1,1.6c1.3,1.1,1.9,2.5,1.9,4.2v1.9c-2.4-0.7-4.9-1.1-7.2-1.1
					c-4.9,0-8.9,1.2-11.8,3.4c-3,2.3-4.5,5.6-4.5,9.8c0,3.7,1.3,6.7,3.8,8.9c2.6,2.1,5.8,3.2,9.5,3.2c3.7,0,7.3-1.5,10.4-4.1v3.2
					h9.7V75.1C358.2,70.3,356.7,66.6,353.6,64z M336.2,85.3c1.1-0.8,2.7-1.2,4.7-1.2c2.4,0,4.9,0.5,7.5,1.4v3.8c-2.1,2-5,3-8.5,3
					c-1.7,0-3-0.4-3.9-1.1c-0.9-0.7-1.3-1.7-1.3-2.8C334.6,87,335.1,86,336.2,85.3z"/>
				<path fill="#0080FF" d="M411.6,101c-15.8,0-28.6-12.8-28.6-28.6s12.8-28.6,28.6-28.6s28.6,12.8,28.6,28.6S427.4,101,411.6,101z
					 M411.6,53.9c-10.2,0-18.5,8.3-18.5,18.5s8.3,18.5,18.5,18.5s18.5-8.3,18.5-18.5S421.8,53.9,411.6,53.9z"/>
			</g>
		</g>
	</g>
</g>
</svg>
