<?xml version="1.0" encoding="utf-8"?>
<!-- Generator: Adobe Illustrator 17.1.0, SVG Export Plug-In . SVG Version: 6.00 Build 0)  -->
<!DOCTYPE svg PUBLIC "-//W3C//DTD SVG 1.1//EN" "http://www.w3.org/Graphics/SVG/1.1/DTD/svg11.dtd">
<svg version="1.1" id="Layer_1" xmlns="http://www.w3.org/2000/svg" xmlns:xlink="http://www.w3.org/1999/xlink" x="0px" y="0px"
	 viewBox="0 0 448 41.6" enable-background="new 0 0 448 41.6" xml:space="preserve">
<path fill-rule="evenodd" clip-rule="evenodd" fill="#CB2027" d="M0,32.7h432.3l-1.3,8.9l-431,0V32.7z"/>
<g>
	<g>
		<path fill="#FFCB06" d="M55.8,8.8h-9l-4.8,7.9l-2.2-7.9h-7.6l-2.7,5.6h3.3l1.3,5l-7.5,11.3h9.1l5.2-7.5l2,7.5h9.5l-3.7-11.2
			L55.8,8.8z M70.9,8.8l-3,4.5l0.8-4.5h-9.2l-2.9,5.7h1.8l-4.4,25.1h9.2l1.6-8.9h11.9l3.8-3.8l2.5-14.3l-2.5-3.8H70.9z M71.7,25
			h-3.6l-3,4.5l2.6-15h5.8L71.7,25z M92.4,8.8l-3.8,3.8l-2.5,14.3l2.5,3.8h18.5l2.9-5.7H95.7l0.7-4.2h14.4l1.4-8.2l-2.5-3.8H92.4z
			 M102.8,16.4h-3.7l-2.5,3.3l1.1-6.5h5.6L102.8,16.4z M129.9,8.8l-3,4.5l0.8-4.5h0V8.8h-9.2l-2.9,5.8h1.8l-2.8,16.1h9.3l2.8-16.2
			h9.1l3.4-5.7H129.9z M152.4,4h-7.6l-6.1,10.4h2l-2.3,13.1l2.1,3.2h11.2l3.3-5.5h-6.7l1.9-10.8h4.9l3.3-5.6h-6.8L152.4,4z M186,0.1
			l-3.7,5.8l1.1-5.8h-10.4l-3.8,6.8h2.6l-4.2,23.8h25.4l3.8-3.8l1.7-9.6l-2-2.7l2.7-2.5l1.4-8.3l-2.4-3.8H186z M186.8,23.8h-5.1
			l-3.6,5.8l2-11.2h7.7L186.8,23.8z M188.8,11.6h-5.1l-3.4,5.5L182.1,7h7.6L188.8,11.6z M203.4,14.5h1.8l-2.8,16.2h9.2l3.8-21.9
			h-9.2L203.4,14.5z M206.6,6.9h9.2l1-5.6h-9.2L206.6,6.9z M236.7,9.2l-7.8,9.5l3.3-18.6H223l-2.9,5.7h1.8l-4.4,25h9.2l1.8-10.4
			l3.4,10.4h10.6l-4.9-11l8.4-10.5H236.7z M252.5,8.8l-3.8,3.8l-2.5,14.3l2.5,3.8h18.5l2.9-5.7h-14.4l0.7-4.2h14.4l1.4-8.2l-2.5-3.8
			H252.5z M262.9,16.4h-3.7l-2.5,3.3l1.1-6.5h5.6L262.9,16.4z M303.8,0.1l-3.7,5.8l1.1-5.8h-10.4l-3.8,6.8h2.6l-4.2,23.8h10.4
			l2.1-12.1l6.5,12.1h11.1l-6.9-12.1h4.2l3.8-3.8l1.9-11L316,0.1H303.8z M306.6,11.8h-4.9l-3.6,5.8L299.9,7h7.6L306.6,11.8z
			 M325.8,8.8l-3.8,3.8l-2.5,14.3l2.5,3.8h18.5l2.9-5.7H329l0.7-4.2h14.4l1.4-8.2l-2.5-3.8H325.8z M336.2,16.4h-3.7l-2.5,3.3
			l1.1-6.5h5.6L336.2,16.4z M363.2,8.8l-3,4.5l0.8-4.5h-9.2l-2.9,5.7h1.8l-4.4,25.1h9.2l1.6-8.9h11.9l3.8-3.8l2.5-14.3L373,8.8
			H363.2z M364,25h-3.6l-3,4.5l2.6-15h5.8L364,25z M380.1,12.6l-2.5,14.3l2.5,3.8h9.7l3-4.5l-0.8,4.5h9.2l3.8-21.9h-21.2L380.1,12.6
			z M389,14.5h3.6l3-4.5L393,25h-5.8L389,14.5z M409.3,14.5h1.8l-2.8,16.2h9.2l3.8-21.9h-9.2L409.3,14.5z M412.5,6.9h9.2l1-5.6h-9.2
			L412.5,6.9z M438.8,8.8l-3,4.5l0.8-4.5h0V8.8h-9.2l-2.9,5.8h1.8l-2.8,16.1h9.3l2.8-16.2h9.1l3.4-5.7H438.8z"/>
	</g>
</g>
<polyline fill="#FFCB06" points="5.4,0 1.6,6.8 4.2,6.8 0,30.7 3.4,30.7 3.5,30.7 22.3,30.7 26.3,23.6 12,23.6 12.9,18.5 23.7,18.5 
	27.6,11.7 16.7,11.7 13.1,17.5 14.9,7 26.2,7 30.2,0 8.7,0 "/>
</svg>
