<svg xmlns="http://www.w3.org/2000/svg" viewBox="0 0 448 41.6" enable-background="new 0 0 448 41.6"><path fill="#CB2027" fill-rule="evenodd" d="M0 32.7h432.3l-1.3 8.9H0v-8.9z" clip-rule="evenodd"/><path fill="#FFCB06" d="M55.8 8.8h-9L42 16.7l-2.2-7.9h-7.6l-2.7 5.6h3.3l1.3 5-7.5 11.3h9.1l5.2-7.5 2 7.5h9.5l-3.7-11.2 7.1-10.7zm15.1 0l-3 4.5.8-4.5h-9.2l-2.9 5.7h1.8L54 39.6h9.2l1.6-8.9h11.9l3.8-3.8L83 12.6l-2.5-3.8h-9.6zm.8 16.2h-3.6l-3 4.5 2.6-15h5.8L71.7 25zM92.4 8.8l-3.8 3.8-2.5 14.3 2.5 3.8h18.5L110 25H95.7l.7-4.2h14.4l1.4-8.2-2.5-3.8H92.4zm10.4 7.6h-3.7l-2.5 3.3 1.1-6.5h5.6l-.5 3.2zm27.1-7.6l-3 4.5.8-4.5h-9.2l-2.9 5.8h1.8l-2.8 16.1h9.3l2.8-16.2h9.1l3.4-5.7h-9.3zM152.4 4h-7.6l-6.1 10.4h2l-2.3 13.1 2.1 3.2h11.2l3.3-5.5h-6.7l1.9-10.8h4.9l3.3-5.6h-6.8l.8-4.8zM186 .1l-3.7 5.8 1.1-5.8H173l-3.8 6.8h2.6l-4.2 23.8H193l3.8-3.8 1.7-9.6-2-2.7 2.7-2.5 1.4-8.3-2.4-3.8H186zm.8 23.7h-5.1l-3.6 5.8 2-11.2h7.7l-1 5.4zm2-12.2h-5.1l-3.4 5.5L182.1 7h7.6l-.9 4.6zm14.6 2.9h1.8l-2.8 16.2h9.2l3.8-21.9h-9.2l-2.8 5.7zm3.2-7.6h9.2l1-5.6h-9.2l-1 5.6zm30.1 2.3l-7.8 9.5L232.2.1H223l-2.9 5.7h1.8l-4.4 25h9.2l1.8-10.4 3.4 10.4h10.6l-4.9-11L246 9.3h-9.3zm15.8-.4l-3.8 3.8-2.5 14.3 2.5 3.8h18.5l2.9-5.7h-14.4l.7-4.2h14.4l1.4-8.2-2.5-3.8h-17.2zm10.4 7.6h-3.7l-2.5 3.3 1.1-6.5h5.6l-.5 3.2zM303.8.1l-3.7 5.8 1.1-5.8h-10.4L287 6.9h2.6l-4.2 23.8h10.4l2.1-12.1 6.5 12.1h11.1l-6.9-12.1h4.2l3.8-3.8 1.9-11L316 .1h-12.2zm2.8 11.7h-4.9l-3.6 5.8L299.9 7h7.6l-.9 4.8zm19.2-3l-3.8 3.8-2.5 14.3 2.5 3.8h18.5l2.9-5.7H329l.7-4.2h14.4l1.4-8.2-2.5-3.8h-17.2zm10.4 7.6h-3.7l-2.5 3.3 1.1-6.5h5.6l-.5 3.2zm27-7.6l-3 4.5.8-4.5h-9.2l-2.9 5.7h1.8l-4.4 25.1h9.2l1.6-8.9H369l3.8-3.8 2.5-14.3-2.3-3.8h-9.8zM364 25h-3.6l-3 4.5 2.6-15h5.8L364 25zm16.1-12.4l-2.5 14.3 2.5 3.8h9.7l3-4.5-.8 4.5h9.2L405 8.8h-21.2l-3.7 3.8zm8.9 1.9h3.6l3-4.5-2.6 15h-5.8l1.8-10.5zm20.3 0h1.8l-2.8 16.2h9.2l3.8-21.9h-9.2l-2.8 5.7zm3.2-7.6h9.2l1-5.6h-9.2l-1 5.6zm26.3 1.9l-3 4.5.8-4.5h-9.2l-2.9 5.8h1.8l-2.8 16.1h9.3l2.8-16.2h9.1l3.4-5.7h-9.3zM5.4 0L1.6 6.8h2.6L0 30.7h22.3l4-7.1H12l.9-5.1h10.8l3.9-6.8H16.7l-3.6 5.8L14.9 7h11.3l4-7H8.7"/></svg>