<?xml version="1.0" encoding="utf-8"?>
<!-- Generator: Adobe Illustrator 21.1.0, SVG Export Plug-In . SVG Version: 6.00 Build 0)  -->
<svg version="1.1" id="Layer_1" xmlns="http://www.w3.org/2000/svg" xmlns:xlink="http://www.w3.org/1999/xlink" x="0px" y="0px"
	 viewBox="0 0 330.2 96.3" style="enable-background:new 0 0 330.2 96.3;" xml:space="preserve">
<g>
	<g>
		<path d="M34,23.5c0.2-0.5,0.4-1,0.5-1.5c0.2-1,0.9-1.8,1.6-2.5c0.9-0.8,1.8-1.2,2.9-1.4c0.9-0.2,1.7-0.3,2.6-0.3
			c4.6,0,9.3,0,13.9,0c0.5,0,0.9-0.1,1.3-0.5c3.2-2.9,6.9-4.9,11-6.1c2.9-0.9,5.7-1.4,8.7-1.4c62.6,0,125.1,0.1,187.6,0.1
			c2.1,0,4.3,0,6.4,0.2c4.6,0.6,8.9,2.1,12.8,4.8c4.3,2.9,7.6,6.7,9.9,11.3c2.7,5.6,3.7,11.5,2.5,17.7c-0.6,3-1.4,5.9-2.9,8.6
			c-2.2,4.2-5.3,7.7-9.2,10.4c-5.2,3.7-11.1,5.2-17.5,5.2c-61.5,0-123,0-184.6,0c-1.9,0-3.8,0-5.7,0.1c-2.5,0.1-4.8-0.5-7.2-1.1
			c-2.9-0.7-5.6-1.9-8.1-3.6c-3.3-2.1-6.1-4.8-8.4-8c-1.4-2.1-2.5-4.2-3.4-6.5c-0.2-0.5-0.5-0.7-1-0.7c-1.8,0-3.5-0.4-5-1.5
			c-1-0.8-1.7-1.7-2.1-2.9c-0.7-2-1.4-4-2.1-6c-0.3-0.9-0.4-1.8-0.6-2.8c0-0.1-0.1-0.2-0.1-0.3c-1-1-1.2-2.4-1.6-3.7
			c-0.7-2.1-1.4-4.4-2.1-6.6c0-0.1-0.2-0.2-0.2-0.3C34,24,34,23.8,34,23.5z M89.5,12.8c0,0.1,0,0.1,0,0.2c0.2,0.1,0.3,0.2,0.5,0.2
			c2,1.1,4,2.3,5.6,3.9c0.6,0.5,1,0.7,1.8,0.7c4.7-0.1,9.3-0.1,14,0c1.1,0,2.3,0.3,3.3,0.8c1.7,0.8,2.7,2.2,2.9,4.1
			c0.1,0.5,0.2,1,0.2,1.4c-0.2,0.9-0.3,1.7-0.6,2.5c-0.5,1.6-1,3.3-1.7,4.8c-0.4,1.1-0.6,2.3-1.5,3.3c-0.1,0.1-0.1,0.2-0.2,0.4
			c-0.2,1-0.4,2-0.7,2.9c-0.5,1.5-1,3-1.6,4.5c-0.5,1.3-0.7,2.6-1.7,3.6c-0.6,0.6-1.4,1.3-2.1,1.6c-1.1,0.4-2.3,0.4-3.4,0.6
			c-0.2,0-0.5,0.2-0.6,0.4c-0.9,2.5-2.1,4.8-3.5,6.9c-2.2,3.3-5,5.9-8.3,8c-0.8,0.6-1.7,1-2.5,1.5c0,0.1,0,0.2,0,0.2
			c0.8,0,1.7,0,2.5,0c58.2,0,116.4,0,174.5,0c0.4,0,0.8,0,1.2,0c3.8-0.1,7.5-1,11-2.6c11.9-5.8,17.7-19.4,13.5-32
			c-2.2-6.8-6.6-11.8-12.8-15.1c-4-2.1-8.2-3-12.6-3c-52.1,0-104.2,0.1-156.3,0.1c-2.7,0-5.5-0.1-8.2-0.1c-4.1,0-8.2,0-12.2,0.1
			C89.8,12.8,89.7,12.8,89.5,12.8z M92.5,35c0.4-1.2,0.8-2.2,1.1-3.3c0.2-0.4,0.5-0.4,0.8-0.4c4.8,0,9.6,0,14.4,0
			c0.5,0,0.7-0.2,0.9-0.6c0.7-2.1,1.5-4.2,2.2-6.4c0.2-0.6,0.1-0.7-0.5-0.7c-7.7,0-15.4,0-23,0c-0.4,0-0.7,0.1-0.9,0.6
			c-0.7,2.1-1.4,4.1-2.2,6.2c-1.4,3.9-2.8,7.9-4.2,11.8c-1.4,4.1-2.9,8.2-4.3,12.2c-0.2,0.7-0.2,0.8,0.6,0.8c2.3,0,4.6,0,6.8-0.1
			c1.1,0,1.1,0.2,1.5-1c1.3-3.7,2.6-7.3,3.9-11c0.2-0.4,0.4-0.6,0.9-0.6c4.7,0,9.5,0,14.1,0c0.7,0,1-0.2,1.2-0.9
			c0.6-2,1.4-3.9,2.1-5.8c0.2-0.7,0.2-0.8-0.6-0.8c-4.5,0-9.1,0-13.7,0.1C93.4,35,93,35,92.5,35z M59.5,35c-1.6,0-2.9,0-4.4,0
			c-3.5,0-7,0-10.4,0c-0.9,0-0.9,0.1-0.6,0.9c0.7,2,1.4,3.9,2.1,5.9c0.2,0.5,0.4,0.6,1,0.6c2.4,0,4.8,0,7.2,0c2.4,0,4.8,0,7.2,0
			c0.2,0,0.6,0.2,0.7,0.3c0.6,1.4,1,2.7,1.4,4.1c0.9,2.5,1.8,5.1,2.7,7.6c0.2,0.5,0.4,0.6,0.9,0.6c2.5,0,4.9,0,7.4,0
			c0.7,0,0.7-0.1,0.5-0.7c-0.8-2.2-1.6-4.5-2.4-6.7c-1.2-3.3-2.3-6.6-3.5-9.9c-1-3-2.1-6-3.3-9.1c-0.5-1.4-1-2.8-1.4-4.2
			c-0.2-0.6-0.5-0.8-1.1-0.8c-2.1,0.1-4.1,0.1-6.2,0.1c-0.7,0-1.4-0.1-2.1-0.1c-4,0-7.9,0-11.8,0c-1,0-1.9,0-2.8,0
			c-0.3,0-0.6,0-0.5,0.5c0.8,2.2,1.5,4.5,2.3,6.6c0.1,0.2,0.4,0.5,0.6,0.5c4.8,0,9.5,0.1,14.2,0c0.7,0,1.1,0.1,1.3,0.8
			C58.8,33,59.2,34,59.5,35z"/>
		<path d="M191.8,42.2c0.5-1.3,0.9-2.5,1.3-3.7c0.1-0.2,0.3-0.2,0.5-0.2c4.7,0,9.3,0,14,0c1,0,1.7,0.7,1.7,1.7
			c0.2,1.2-0.4,2.2-0.7,3.3c-1.3,3.7-2.5,7.3-3.8,10.9c-0.2,0.4-0.4,0.6-0.9,0.6c-4.5,0-8.9,0-13.4,0c-1.2,0-2-0.7-2.1-2
			c-0.2-1.1,0.3-2.1,0.6-3c0.4-1.3,0.9-2.5,1.4-3.9c0.4-1.2,1.3-1.7,2.5-1.7c3.3,0,6.6,0,9.9,0c0.7,0,1-0.4,1.1-1.2
			c0-0.6-0.3-0.7-1-0.7c-3.4,0-6.9,0-10.3,0C192.4,42.2,192.2,42.2,191.8,42.2z M202.3,48.1c-0.3,0-0.6-0.1-0.7-0.1
			c-1.8,0-3.7,0-5.6,0c-1.5,0-1.9,0.3-2.2,1.7c-0.2,0.6,0.1,1,0.7,1c2.1,0,4.3,0,6.4,0c0.2,0,0.5-0.2,0.5-0.2
			C201.7,49.8,202,49,202.3,48.1z"/>
		<path d="M262,54.7c-1.9,0-3.8-0.1-5.7,0c-2.4,0.1-3.1-1.3-2.5-3.4c0.5-1.6,1-3.1,1.6-4.7c0.8-2.3,1.6-4.6,2.5-6.8
			c0.3-0.9,1.1-1.5,2.1-1.5c4.2,0,8.5,0,12.7,0c1.5,0,2.4,1.3,1.9,2.9c-0.5,1.7-1,3.4-1.7,5.1c-0.8,2.2-1.6,4.5-2.4,6.8
			c-0.4,1.1-1.2,1.7-2.4,1.7C266.1,54.7,264.1,54.7,262,54.7z M265.6,42.2c-0.9,0-1.8,0-2.7,0s-1.4,0.3-1.7,1.2
			c-0.2,0.6-0.4,1.2-0.6,1.7c-0.6,1.5-1.1,3-1.6,4.5c-0.2,0.8,0.1,1.2,0.9,1.2c1.9,0,3.7,0,5.6,0c0.7,0,1.3-0.3,1.5-1
			c0.8-2.1,1.6-4.3,2.3-6.5c0.2-0.7-0.1-1.1-0.9-1.1C267.5,42.2,266.5,42.2,265.6,42.2z"/>
		<path d="M167.2,54.7c-1.9,0-3.7-0.1-5.6,0c-2.7,0.1-3.2-1.4-2.5-3.6c0.8-2.7,1.8-5.3,2.8-8c0.4-1.1,0.8-2.2,1.2-3.3
			c0.4-1,1.2-1.6,2.2-1.6c4.1,0,8.3,0,12.4,0c1.7,0,2.6,1.1,2.1,2.7c-0.6,2-1.2,4-1.9,6c-0.7,2.1-1.4,4.1-2.1,6.1
			c-0.4,1.1-1.2,1.7-2.4,1.7C171.3,54.7,169.2,54.7,167.2,54.7z M167.8,50.8c1,0,1.8,0,2.8,0c0.9,0,1.4-0.3,1.7-1.2
			c0.2-0.5,0.3-1,0.5-1.4c0.6-1.6,1.1-3.2,1.7-4.8c0.3-0.8,0-1.3-1-1.3c-1.8,0-3.7,0-5.6,0c-0.7,0-1.3,0.2-1.5,1
			c-0.8,2.1-1.6,4.4-2.3,6.6c-0.2,0.7,0.1,1.1,1,1.1C166,50.8,166.9,50.8,167.8,50.8z"/>
		<path d="M233.9,54.7c-2.5,0-4.8,0-7.3,0c-0.7,0-0.7-0.1-0.5-0.7c1.3-3.6,2.5-7.1,3.7-10.7c0.6-1.4,1.1-2.9,1.6-4.4
			c0.2-0.6,0.5-0.7,1-0.7c4.1,0,8.3,0,12.4,0c0.3,0,0.6,0,1,0.1c1.5,0.5,2.1,1.7,1.6,3.3c-1,2.9-2.1,6-3.2,8.9
			c-0.3,0.9-0.6,1.7-0.9,2.5c-0.4,1.1-1.2,1.7-2.4,1.7C238.5,54.7,236.2,54.7,233.9,54.7z M231.9,50.7c0.2,0.1,0.2,0.2,0.3,0.2
			c2.1,0,4.2,0,6.4,0c0.6,0,1.2-0.3,1.4-1c0.7-2.1,1.5-4.2,2.2-6.4c0.3-1,0.1-1.3-1-1.3c-1.9,0-3.8,0-5.7,0c-0.6,0-0.7,0.2-0.9,0.7
			c-0.5,1.5-1,3-1.6,4.5C232.6,48.4,232.2,49.6,231.9,50.7z"/>
		<path d="M228.7,38.3c-0.7,2.1-1.4,4.1-2.1,6c-1,2.9-2,5.6-2.9,8.5c-0.5,1.4-1.2,1.9-2.6,1.9c-4,0-7.9,0-11.8,0
			c-1.9,0-2.9-1-2.4-2.9c0.4-1.6,1-3.2,1.5-4.8c1-2.8,2-5.6,3-8.4c0.1-0.2,0.3-0.4,0.5-0.4c1.3,0,2.5,0,3.8,0c0.1,0,0.2,0.1,0.3,0.1
			c-0.2,0.7-0.5,1.5-0.8,2.2c-1,2.9-2.1,5.8-3.1,8.7c-0.4,1-0.1,1.4,1,1.4c1.7,0,3.5,0,5.2,0c1,0,1.6-0.4,1.9-1.4
			c1.2-3.5,2.5-7.1,3.7-10.6c0.2-0.4,0.3-0.6,0.8-0.6c1.1,0,2.2,0,3.3,0C228.2,38.3,228.4,38.3,228.7,38.3z"/>
		<path d="M121.2,54.7c0.3-1,0.6-1.9,1-2.8c1.5-4.4,3.1-8.7,4.6-13.1c0.2-0.5,0.4-0.6,1-0.6c4.1,0,8.3,0,12.4,0c0.4,0,0.8,0,1.2,0.2
			c1.5,0.5,2.1,1.6,1.5,3.2c-0.6,1.6-1.1,3.2-1.7,4.8c-0.3,1-1.2,1.7-2.5,1.7c-3.3-0.1-6.4,0-9.7,0c-0.6,0-0.8,0.2-1,0.7
			c-0.6,1.8-1.3,3.6-1.9,5.4c-0.2,0.5-0.4,0.6-0.9,0.6C123.9,54.7,122.7,54.7,121.2,54.7z M133.3,44.1L133.3,44.1
			c1-0.1,2.1,0,3.2-0.1c0.6,0,1.3-0.7,1.2-1.4c-0.1-0.7-0.7-0.6-1.2-0.6c-0.2,0-0.4,0-0.6,0c-1.4,0-2.8,0-4.2,0
			c-1.5,0-1.5,0-2.1,1.4c-0.2,0.5-0.1,0.6,0.4,0.6C131.2,44.1,132.3,44.1,133.3,44.1z"/>
		<path d="M170.7,24.6c0.6-1,1.4-1,2.4-1c3.1,0,6.2,0,9.4,0c0.7,0,0.7,0,0.5,0.7c-0.2,0.6-0.4,1.1-0.6,1.7c-0.2,0.6-0.5,0.7-1,0.7
			c-2.1,0-4.4,0-6.5,0c-1.1,0-1.3,0.2-1.7,1.2c-0.6,1.4-1,2.9-1.5,4.4c-0.2,0.7-0.1,1,0.7,1c1.7,0,3.6,0,5.3,0c0.6,0,1.4,0,2.1,0
			c-0.4,1-0.6,1.9-1,2.7c-0.1,0.2-0.4,0.2-0.6,0.2c-2.9,0-5.9,0-8.7,0c-1.5,0-2.3-1.2-1.8-2.6c0.7-2.1,1.5-4.3,2.2-6.4
			c0.1-0.2,0.1-0.3,0.1-0.5c-3,0-6,0-9,0c-0.7,0-1.2,0.5-1.4,1.1c-1,2.6-1.9,5.2-2.8,7.9c-0.2,0.5-0.4,0.7-1,0.7
			c-0.7-0.1-1.4,0-2.1,0c-0.5,0-0.6-0.2-0.5-0.6c1-2.7,1.9-5.4,2.9-8.1c0.2-0.6,0.5-1.3,0.6-1.9c0.5-1.4,1.3-2.1,2.9-2.1
			c3.6,0,7.2,0,10.7,0C171.3,23.6,170.7,24.1,170.7,24.6z"/>
		<path d="M194.4,33.3c-0.3,1-0.6,1.7-0.9,2.5c-0.1,0.2-0.4,0.4-0.6,0.4c-3.3,0-6.5,0-9.8,0c-0.4,0-0.9-0.1-1.3-0.2
			c-1-0.3-1.4-1.2-1-2.4c0.5-1.4,1-2.8,1.4-4.1c0.5-1.5,1-2.9,1.6-4.5c0.4-1.1,0.8-1.4,2-1.4c3.1,0,6.1,0,9.2,0
			c1.7,0,2.4,0.9,1.9,2.5c-0.5,1.7-1.1,3.3-1.7,5c-0.2,0.4-0.5,0.5-0.8,0.4c-2.9,0-5.6,0-8.5,0c-0.8,0-1.1,0.4-1.1,1.2
			c0,0.5,0.3,0.6,0.7,0.6c0.8,0,1.6,0,2.5,0c1.9,0,3.8,0,5.7,0C193.8,33.2,194,33.3,194.4,33.3z M189.3,28.4c0.9,0,1.7,0,2.5,0
			c0.6,0,1-0.4,1-1.1c0-0.6-0.5-0.6-0.9-0.6c-1.4,0-2.8,0-4.2,0c-0.8,0-1.2,0.3-1.4,1.1c-0.1,0.4,0,0.6,0.5,0.6
			C187.7,28.4,188.5,28.4,189.3,28.4z"/>
		<path d="M139.3,54.6c0.3-1,0.7-2,1-2.9c1.3-3.7,2.5-7.2,3.8-10.9c0.6-1.6,1.7-2.5,3.4-2.5c4.8,0,9.5,0,14.2,0
			c0.7,0,0.7,0.1,0.5,0.7c-0.3,0.9-0.6,1.7-1,2.6c-0.2,0.5-0.4,0.6-0.9,0.6c-3.4,0-6.8,0-10.2,0c-1.7,0-2.1,0.3-2.7,1.9
			c-1.2,3.3-2.4,6.8-3.7,10.1c-0.1,0.2-0.3,0.5-0.5,0.5c-1.3,0-2.6,0-3.9,0C139.6,54.7,139.5,54.6,139.3,54.6z"/>
		<path d="M255.4,36.2c-1.5,0-3,0-4.5,0c-1.4,0-2.1-0.8-1.8-2.2c0.3-1.4,0.8-2.6,1.3-3.9c0.6-1.7,1.3-3.5,1.8-5.2
			c0.3-1,1-1.4,1.9-1.4c3.1,0,6.2,0,9.4,0c1.3,0,1.9,0.6,1.7,1.9c-0.2,1.1-0.6,2.1-1,3.3c-0.7,2-1.4,4-2.1,6c-0.4,1.1-1,1.5-2.1,1.5
			C258.5,36.2,257,36.2,255.4,36.2z M258.2,26.6c-0.3,0-0.6,0-1,0c-0.3,0-0.6,0-1,0c-1,0-1.2,0.2-1.5,1c-0.6,1.4-1,2.9-1.5,4.4
			c-0.3,0.8-0.1,1.1,0.8,1.1c1.3,0,2.5,0,3.8,0c1,0,1.4-0.2,1.7-1.2c0.6-1.5,1-2.9,1.5-4.5c0.2-0.6,0-1-0.6-1
			C259.7,26.6,258.9,26.6,258.2,26.6z"/>
		<path d="M145.9,36.2c-1.5,0-3,0-4.5,0c-1.4,0-2.1-0.7-1.8-2.1c0.2-1.3,0.8-2.5,1.2-3.7c0.6-1.7,1.3-3.5,1.8-5.3
			c0.4-1.1,1-1.6,2.1-1.6c3,0,6,0,9,0c1.6,0,2.3,0.9,1.9,2.4c-0.6,1.9-1.3,3.8-1.9,5.7c-0.3,1-0.7,2-1,2.9c-0.4,1.2-1,1.6-2.2,1.6
			C149,36.2,147.5,36.2,145.9,36.2z M148.7,26.6c-0.7,0-1.4,0-2.1,0c-0.6,0-1,0.2-1.2,0.8c-0.2,0.6-0.5,1.4-0.7,2
			c-0.3,1-0.7,1.9-1,2.9c-0.2,0.6,0.1,1,0.6,1c1.5,0,2.9,0.1,4.5,0c0.3,0,0.9-0.3,1-0.6c0.6-1.7,1.3-3.3,1.8-5.1
			c0.2-0.6-0.1-0.9-0.7-0.9C150.2,26.6,149.4,26.6,148.7,26.6z"/>
		<path d="M234.6,36.2c-1.7,0-3.3,0-5.1,0c-0.6,0-0.7-0.2-0.5-0.7c0.2-0.6,0.5-1.1,0.6-1.7c0.2-0.5,0.4-0.6,0.9-0.6
			c2.2,0,4.4,0,6.6,0c1,0,1.4-0.2,1.7-1.1c0.2-0.3,0.1-0.6-0.2-0.6c-0.2-0.1-0.6-0.1-0.8-0.1c-1.8,0-3.7,0-5.5,0
			c-1.7,0-2.5-1.2-1.9-2.8c0.4-1.2,0.8-2.3,1.2-3.5c0.3-1,0.8-1.4,1.8-1.4c3.3,0,6.7,0,10.1,0c0.6,0,0.6,0.2,0.5,0.7
			c-0.2,0.6-0.5,1.2-0.6,1.8c-0.2,0.5-0.4,0.6-0.9,0.6c-2.2,0-4.5,0-6.8,0c-0.4,0-0.8,0.2-1.1,0.5c-0.2,0.2-0.2,0.6-0.2,0.9
			c0.1,0.2,0.5,0.3,0.7,0.3c1.8,0,3.6,0,5.4,0c0.2,0,0.4,0,0.6,0c1.4,0.2,2.1,1.2,1.7,2.6c-0.5,1.4-1,2.8-1.6,4.2
			c-0.3,0.8-0.9,1.1-1.7,1.1C238,36.2,236.3,36.2,234.6,36.2z"/>
		<path d="M272.8,36.2c0.3-1,0.6-1.8,0.9-2.7c0.6-1.9,1.4-3.9,2.1-5.8c0.3-0.9,0.1-1.1-0.8-1.2c-1.3,0-2.6,0-3.9,0
			c-0.9,0-1.2,0.2-1.5,1c-0.8,2.2-1.6,4.5-2.3,6.8c-0.6,1.7-0.6,1.7-2.4,1.7c-0.6,0-1,0-1.7,0c0.3-1,0.6-1.8,0.9-2.6
			c1.1-3.1,2.2-6.3,3.3-9.4c0.2-0.5,0.4-0.6,0.9-0.6c3.3,0,6.6,0,9.9,0c1.7,0,2.4,0.9,1.9,2.5c-0.6,2.1-1.4,4.2-2.1,6.3
			c-0.4,1.1-0.8,2.2-1.2,3.3c-0.2,0.5-0.4,0.6-0.8,0.6C274.7,36.2,273.8,36.2,272.8,36.2z"/>
		<path d="M221.1,36.2c-1.5,0-2.9,0-4.5,0c-1.6,0-2.3-0.9-1.9-2.4c0.2-0.9,0.6-1.7,0.9-2.6c0.8-2.3,1.7-4.5,2.5-6.8
			c0.2-0.6,0.6-0.9,1.2-0.8c0.6,0.1,1.4,0,2,0c0.5,0,0.6,0.2,0.4,0.6c-0.9,2.5-1.8,5.1-2.7,7.6c-0.1,0.2-0.2,0.4-0.2,0.6
			c-0.1,0.5,0.2,0.8,0.6,0.8c1.5,0,2.9,0,4.5,0c0.6,0,1-0.4,1.3-1c1-2.6,1.8-5.2,2.8-7.9c0.2-0.6,0.4-0.8,1-0.7c0.7,0.1,1.4,0,2.1,0
			c0.5,0,0.6,0.2,0.4,0.6c-1.2,3.3-2.3,6.5-3.5,9.9c-0.1,0.3-0.2,0.6-0.3,1c-0.4,1-0.9,1.4-2,1.4C224.2,36.2,222.6,36.2,221.1,36.2z
			"/>
		<path d="M202.9,36.2c0.5-1.3,0.8-2.4,1.2-3.5c1-2.9,2-5.6,3-8.5c0.2-0.5,0.4-0.7,1-0.7c2.8,0,5.6,0,8.4,0c0.7,0,0.8,0.1,0.6,0.7
			c-0.2,0.6-0.5,1.2-0.6,1.7c-0.2,0.5-0.4,0.6-0.8,0.6c-1.6,0-3.3,0-4.8,0c-0.7,0-1.1,0.2-1.2,0.9c0,0.2-0.1,0.4-0.2,0.6
			c0.3,0,0.5,0.1,0.7,0.1c1.6,0,3.3,0,4.8,0c0.6,0,0.7,0.1,0.5,0.7c-0.2,0.6-0.4,1.1-0.6,1.7c-0.2,0.5-0.4,0.6-0.9,0.6
			c-1.7,0-3.3,0-4.9,0c-0.6,0-0.9,0.2-1,0.8c-0.5,1.3-1,2.5-1.4,3.9c-0.2,0.4-0.4,0.6-0.8,0.6C204.9,36.2,204,36.2,202.9,36.2z"/>
		<path d="M133.9,28.1c2.1,0,4.1,0,6.2,0c-0.3,1-0.6,1.8-1,2.7c-0.1,0.2-0.5,0.3-0.8,0.3c-1.7,0-3.3,0-4.9,0c-0.5,0-0.8,0.1-1,0.6
			c-0.4,1.3-0.9,2.5-1.4,3.9c-0.2,0.4-0.3,0.6-0.9,0.6c-0.7,0-1.5,0-2.2,0c-0.5,0-0.6-0.2-0.5-0.6c1-2.6,1.9-5.3,2.8-7.9
			c0.4-1.2,0.9-2.4,1.3-3.6c0.2-0.4,0.3-0.5,0.7-0.5c2.9,0,5.8,0,8.7,0c0.6,0,0.6,0.2,0.4,0.6c-0.2,0.6-0.4,1.1-0.6,1.7
			c-0.2,0.5-0.4,0.7-1,0.6c-1.6,0-3.1,0-4.7,0C134.1,26.5,133.9,26.7,133.9,28.1z"/>
		<path d="M247.5,54.7c-0.6,0-1.2,0-1.8,0c-0.4,0-0.6-0.2-0.4-0.6c0.9-2.5,1.7-4.8,2.6-7.3c0.9-2.5,1.8-5.1,2.7-7.6
			c0.4-1,0.3-1,1.4-1c1,0,1.9,0,2.9,0c0.6,0,0.6,0.2,0.5,0.7c-1,2.7-1.9,5.5-2.9,8.2c-0.8,2.3-1.6,4.5-2.4,6.8
			c-0.2,0.6-0.5,1-1.2,0.9C248.4,54.6,247.9,54.7,247.5,54.7L247.5,54.7z"/>
		<path d="M242.5,36.2c0.2-0.6,0.4-1.2,0.6-1.7c1.2-3.4,2.4-6.8,3.6-10.2c0.2-0.6,0.5-1,1.2-0.9c0.8,0.1,1.7,0,2.6,0
			c-0.3,1-0.6,1.7-0.9,2.5c-1.1,3.2-2.2,6.3-3.3,9.5c-0.2,0.5-0.4,0.7-1,0.7C244.4,36.2,243.5,36.2,242.5,36.2z"/>
	</g>
	<g>
		<path d="M41.3,76.3v1.8h-5.2v2.1H41v1.7h-4.8v2.5h5.4v1.8h-7.6v-9.9H41.3z"/>
		<path d="M46.4,86.2l-3.3-9.9h2.2l2.2,7l0,0l2.2-7h2.2l-3.2,9.9H46.4z"/>
		<path d="M61.9,76.3v1.8h-5.2v2.1h4.8v1.7h-4.8v2.5h5.4v1.8h-7.6v-9.9H61.9z"/>
		<path d="M67.1,76.3l4.1,6.7l0,0v-6.7h2.1v9.9h-2.2l-4.1-6.7l0,0v6.7h-2.1v-9.9H67.1z"/>
		<path d="M75.8,78.1v-1.8H84v1.8h-3v8.1h-2.2v-8.1H75.8z"/>
		<path d="M96.3,76.3c0.6,0,1.1,0.1,1.6,0.2c0.4,0.2,0.8,0.4,1,0.7c0.2,0.3,0.5,0.6,0.6,1s0.2,0.8,0.2,1.2s-0.1,0.8-0.2,1.2
			c-0.2,0.4-0.3,0.7-0.6,1c-0.2,0.3-0.6,0.6-1,0.7c-0.4,0.2-1,0.2-1.6,0.2H94v3.6h-2.2v-9.9H96.3z M95.7,80.9c0.2,0,0.5,0,0.7-0.1
			c0.2,0,0.4-0.1,0.6-0.2c0.2-0.1,0.3-0.2,0.4-0.5c0.1-0.2,0.2-0.5,0.2-0.8c0-0.3-0.1-0.6-0.2-0.8c-0.1-0.2-0.2-0.3-0.4-0.5
			c-0.2-0.1-0.4-0.2-0.6-0.2c-0.2,0-0.5-0.1-0.7-0.1H94v3h1.7V80.9z"/>
		<path d="M107.9,76.3c0.5,0,0.9,0.1,1.2,0.2c0.4,0.2,0.6,0.3,1,0.6c0.2,0.2,0.5,0.6,0.6,0.9c0.2,0.3,0.2,0.7,0.2,1
			c0,0.6-0.2,1.1-0.4,1.5s-0.6,0.7-1.2,1l0,0c0.2,0.1,0.5,0.2,0.6,0.3c0.2,0.2,0.3,0.3,0.4,0.6c0.1,0.2,0.2,0.5,0.2,0.7
			c0.1,0.2,0.1,0.5,0.1,0.7c0,0.2,0,0.3,0,0.6c0,0.2,0,0.4,0.1,0.6c0,0.2,0.1,0.4,0.1,0.6c0.1,0.2,0.2,0.4,0.2,0.5h-2.2
			c-0.2-0.3-0.2-0.7-0.2-1.1c0-0.4-0.1-0.9-0.2-1.3c-0.1-0.6-0.2-0.9-0.5-1.1c-0.2-0.2-0.6-0.4-1.2-0.4h-2.2v4.1h-2.2v-9.9H107.9z
			 M107.1,80.7c0.5,0,0.9-0.1,1.1-0.3s0.4-0.6,0.4-1.1c0-0.5-0.2-0.8-0.4-1c-0.2-0.2-0.6-0.3-1.1-0.3h-2.4v2.8
			C104.7,80.7,107.1,80.7,107.1,80.7z"/>
		<path d="M113.8,79.2c0.2-0.6,0.6-1.2,1-1.7c0.4-0.5,1-0.9,1.5-1.1c0.6-0.2,1.3-0.4,2.1-0.4c0.8,0,1.4,0.2,2.1,0.4
			c0.6,0.2,1.1,0.6,1.5,1.1c0.4,0.5,0.7,1,1,1.7c0.2,0.6,0.3,1.4,0.3,2.1s-0.1,1.4-0.3,2.1c-0.2,0.6-0.6,1.2-1,1.7
			c-0.4,0.5-1,0.8-1.5,1.1c-0.6,0.2-1.3,0.4-2.1,0.4c-0.8,0-1.4-0.2-2.1-0.4c-0.6-0.2-1.1-0.6-1.5-1.1c-0.4-0.5-0.7-1-1-1.7
			c-0.2-0.6-0.3-1.3-0.3-2.1C113.5,80.5,113.7,79.8,113.8,79.2z M115.9,82.5c0.1,0.4,0.2,0.7,0.5,1c0.2,0.3,0.5,0.6,0.9,0.8
			c0.3,0.2,0.8,0.3,1.3,0.3c0.5,0,0.9-0.1,1.3-0.3c0.3-0.2,0.6-0.5,0.9-0.8s0.4-0.6,0.5-1c0.1-0.4,0.2-0.8,0.2-1.2s-0.1-0.9-0.2-1.3
			c-0.1-0.4-0.2-0.8-0.5-1.1c-0.2-0.3-0.5-0.6-0.9-0.8c-0.3-0.2-0.8-0.3-1.3-0.3c-0.5,0-0.9,0.1-1.3,0.3c-0.3,0.2-0.6,0.5-0.9,0.8
			c-0.2,0.3-0.4,0.7-0.5,1.1c-0.1,0.4-0.2,0.8-0.2,1.3C115.7,81.7,115.7,82.1,115.9,82.5z"/>
		<path d="M130.5,76.3c0.6,0,1.3,0.1,1.8,0.3c0.6,0.2,1,0.5,1.4,1c0.4,0.4,0.7,1,1,1.5c0.2,0.6,0.3,1.4,0.3,2.1c0,0.7-0.1,1.4-0.3,2
			c-0.2,0.6-0.5,1.1-0.9,1.6c-0.4,0.5-0.9,0.8-1.4,1c-0.6,0.2-1.2,0.4-2,0.4h-4.3v-9.9H130.5z M130.4,84.4c0.3,0,0.6-0.1,1-0.2
			c0.3-0.1,0.6-0.2,0.8-0.5c0.2-0.2,0.4-0.6,0.6-1c0.2-0.4,0.2-0.9,0.2-1.4c0-0.5-0.1-1-0.2-1.4s-0.2-0.7-0.5-1
			c-0.2-0.3-0.6-0.5-0.9-0.6c-0.4-0.2-0.8-0.2-1.4-0.2h-1.6v6.3H130.4z"/>
		<path d="M145.2,85.4c-0.7,0.6-1.8,1-3.1,1c-1.4,0-2.4-0.3-3.1-1c-0.7-0.6-1.1-1.7-1.1-3v-6.2h2.2v6.2c0,0.2,0,0.6,0.1,0.8
			s0.2,0.5,0.3,0.7s0.3,0.4,0.6,0.5c0.2,0.2,0.6,0.2,1,0.2c0.8,0,1.4-0.2,1.6-0.6c0.3-0.3,0.5-0.9,0.5-1.7v-6.2h2.2v6.2
			C146.4,83.7,146,84.8,145.2,85.4z"/>
		<path d="M156,78.9c-0.2-0.2-0.3-0.4-0.5-0.6s-0.4-0.3-0.6-0.4c-0.2-0.1-0.5-0.2-0.8-0.2c-0.5,0-0.9,0.1-1.3,0.3
			c-0.3,0.2-0.6,0.5-0.9,0.8c-0.2,0.3-0.4,0.7-0.5,1.1c-0.1,0.4-0.2,0.8-0.2,1.3c0,0.4,0.1,0.8,0.2,1.2c0.1,0.4,0.2,0.7,0.5,1
			s0.5,0.6,0.9,0.8c0.3,0.2,0.8,0.3,1.3,0.3c0.6,0,1.2-0.2,1.6-0.6c0.4-0.4,0.6-1,0.7-1.6h2.1c-0.1,0.6-0.2,1.2-0.4,1.7
			c-0.2,0.5-0.6,1-1,1.3c-0.4,0.3-0.8,0.6-1.4,0.8s-1.1,0.3-1.7,0.3c-0.8,0-1.4-0.2-2.1-0.4c-0.6-0.2-1.1-0.6-1.5-1.1
			c-0.4-0.5-0.7-1-1-1.7c-0.2-0.6-0.3-1.3-0.3-2.1c0-0.7,0.1-1.4,0.3-2.1s0.6-1.2,1-1.7c0.4-0.5,1-0.9,1.5-1.1
			c0.6-0.2,1.3-0.4,2.1-0.4c0.6,0,1,0.1,1.6,0.2c0.5,0.2,1,0.4,1.3,0.7c0.4,0.3,0.7,0.7,1,1.1c0.2,0.4,0.4,1,0.5,1.5h-2.2
			C156.3,79.4,156.2,79.1,156,78.9z"/>
		<path d="M160.6,78.1v-1.8h8.2v1.8h-3v8.1h-2.2v-8.1H160.6z"/>
		<path d="M173.4,76.3v9.9h-2.2v-9.9H173.4z"/>
		<path d="M176.7,79.2c0.2-0.6,0.6-1.2,1-1.7c0.4-0.5,1-0.9,1.5-1.1c0.6-0.2,1.3-0.4,2.1-0.4s1.4,0.2,2.1,0.4
			c0.6,0.2,1.1,0.6,1.5,1.1c0.4,0.5,0.7,1,1,1.7c0.2,0.6,0.3,1.4,0.3,2.1s-0.1,1.4-0.3,2.1c-0.2,0.6-0.6,1.2-1,1.7
			c-0.4,0.5-1,0.8-1.5,1.1c-0.6,0.2-1.3,0.4-2.1,0.4s-1.4-0.2-2.1-0.4c-0.6-0.2-1.1-0.6-1.5-1.1c-0.4-0.5-0.7-1-1-1.7
			s-0.3-1.3-0.3-2.1C176.4,80.5,176.5,79.8,176.7,79.2z M178.7,82.5c0.1,0.4,0.2,0.7,0.5,1c0.2,0.3,0.5,0.6,0.9,0.8
			c0.3,0.2,0.8,0.3,1.3,0.3s0.9-0.1,1.3-0.3c0.3-0.2,0.6-0.5,0.9-0.8c0.2-0.3,0.4-0.6,0.5-1s0.2-0.8,0.2-1.2s-0.1-0.9-0.2-1.3
			s-0.2-0.8-0.5-1.1c-0.2-0.3-0.5-0.6-0.9-0.8c-0.3-0.2-0.8-0.3-1.3-0.3s-0.9,0.1-1.3,0.3c-0.3,0.2-0.6,0.5-0.9,0.8
			c-0.2,0.3-0.4,0.7-0.5,1.1s-0.2,0.8-0.2,1.3C178.5,81.7,178.6,82.1,178.7,82.5z"/>
		<path d="M191.2,76.3l4.1,6.7l0,0v-6.7h2.1v9.9h-2.2l-4.1-6.7l0,0v6.7H189v-9.9H191.2z"/>
		<path d="M207.7,83.7c0.2,0.2,0.3,0.4,0.5,0.6c0.2,0.2,0.4,0.2,0.7,0.3c0.2,0.1,0.6,0.1,0.9,0.1c0.2,0,0.4,0,0.6-0.1
			c0.2,0,0.4-0.1,0.6-0.2c0.2-0.1,0.3-0.2,0.5-0.4c0.2-0.2,0.2-0.4,0.2-0.6c0-0.2-0.1-0.5-0.2-0.6c-0.2-0.2-0.4-0.3-0.7-0.4
			c-0.3-0.1-0.6-0.2-1-0.3c-0.3-0.1-0.7-0.2-1.1-0.3c-0.4-0.1-0.7-0.2-1.1-0.3c-0.3-0.2-0.6-0.3-1-0.6s-0.5-0.5-0.7-0.8
			c-0.2-0.3-0.2-0.7-0.2-1.2c0-0.5,0.1-1,0.3-1.4s0.5-0.7,0.9-1c0.3-0.2,0.7-0.4,1.2-0.6s0.9-0.2,1.4-0.2c0.6,0,1,0.1,1.5,0.2
			c0.5,0.1,0.9,0.3,1.3,0.6c0.4,0.2,0.6,0.6,0.9,1c0.2,0.4,0.3,0.9,0.3,1.5h-2.1c0-0.3-0.1-0.6-0.2-0.7c-0.1-0.2-0.2-0.3-0.4-0.5
			c-0.2-0.1-0.4-0.2-0.6-0.2c-0.2-0.1-0.5-0.1-0.7-0.1c-0.2,0-0.3,0-0.6,0.1c-0.2,0-0.3,0.1-0.5,0.2c-0.2,0.1-0.2,0.2-0.3,0.3
			c-0.1,0.2-0.2,0.3-0.2,0.6c0,0.2,0,0.3,0.1,0.5c0.1,0.2,0.2,0.2,0.5,0.3c0.2,0.1,0.6,0.2,0.9,0.3c0.4,0.1,0.9,0.2,1.5,0.4
			c0.2,0,0.5,0.1,0.8,0.2c0.3,0.1,0.6,0.2,1,0.5c0.3,0.2,0.6,0.5,0.9,0.9s0.3,0.8,0.3,1.4c0,0.5-0.1,0.9-0.2,1.3
			c-0.2,0.4-0.5,0.7-0.8,1c-0.3,0.3-0.8,0.5-1.3,0.6c-0.5,0.2-1.1,0.2-1.8,0.2c-0.6,0-1.1-0.1-1.6-0.2c-0.5-0.2-1-0.3-1.4-0.6
			c-0.4-0.3-0.7-0.6-1-1.1c-0.2-0.5-0.3-1-0.3-1.6h2.1C207.5,83.2,207.6,83.5,207.7,83.7z"/>
		<path d="M218.7,76.3v9.9h-2.2v-9.9H218.7z"/>
		<path d="M225,76.3l2.3,6.8l0,0l2.2-6.8h3.1v9.9h-2.1v-7.1l0,0l-2.5,7.1h-1.7l-2.5-7l0,0v7h-2.1v-9.9H225z"/>
		<path d="M240.5,76.3c0.6,0,1.1,0.1,1.6,0.2c0.4,0.2,0.8,0.4,1,0.7s0.5,0.6,0.6,1c0.2,0.4,0.2,0.8,0.2,1.2s-0.1,0.8-0.2,1.2
			c-0.2,0.4-0.3,0.7-0.6,1c-0.2,0.3-0.6,0.6-1,0.7c-0.4,0.2-1,0.2-1.6,0.2h-2.3v3.6H236v-9.9H240.5z M239.9,80.9
			c0.2,0,0.5,0,0.7-0.1c0.2,0,0.4-0.1,0.6-0.2c0.2-0.1,0.3-0.2,0.4-0.5c0.1-0.2,0.2-0.5,0.2-0.8c0-0.3-0.1-0.6-0.2-0.8
			c-0.1-0.2-0.2-0.3-0.4-0.5c-0.2-0.1-0.4-0.2-0.6-0.2c-0.2,0-0.5-0.1-0.7-0.1h-1.7v3h1.7V80.9z"/>
		<path d="M248.9,76.3v8.1h4.8v1.8h-7.1v-9.9H248.9z"/>
		<path d="M258.6,76.3v9.9h-2.2v-9.9H258.6z"/>
		<path d="M268.9,76.3v1.8h-4.8v2.3h4.1v1.7h-4.1v4.1h-2.2v-9.9H268.9z"/>
		<path d="M273.8,76.3v9.9h-2.2v-9.9H273.8z"/>
		<path d="M284.5,76.3v1.8h-5.2v2.1h4.8v1.7h-4.8v2.5h5.4v1.8h-7.6v-9.9H284.5z"/>
		<path d="M291.8,76.3c0.6,0,1.3,0.1,1.8,0.3c0.6,0.2,1,0.5,1.4,1c0.4,0.4,0.7,1,1,1.5c0.2,0.6,0.3,1.4,0.3,2.1c0,0.7-0.1,1.4-0.3,2
			c-0.2,0.6-0.5,1.1-0.9,1.6c-0.4,0.5-0.9,0.8-1.4,1c-0.6,0.2-1.2,0.4-2,0.4h-4.3v-9.9H291.8z M291.6,84.4c0.3,0,0.6-0.1,1-0.2
			c0.3-0.1,0.6-0.2,0.8-0.5c0.2-0.2,0.4-0.6,0.6-1c0.2-0.4,0.2-0.9,0.2-1.4c0-0.5-0.1-1-0.2-1.4c-0.1-0.4-0.2-0.7-0.5-1
			c-0.2-0.3-0.6-0.5-0.9-0.6c-0.4-0.2-0.8-0.2-1.4-0.2h-1.6v6.3H291.6z"/>
	</g>
</g>
</svg>
