<svg xmlns="http://www.w3.org/2000/svg" viewBox="0 0 44.5 42.52"><title>sitwellcc-rose</title><path d="M36.19,0a18.51,18.51,0,0,1-3.73,11.85,18.49,18.49,0,0,1-10.12,7.2A18.49,18.49,0,0,1,26.07,7.2,18.51,18.51,0,0,1,36.19,0Z" fill="#00803d"/><path d="M8.66,0.11A18.51,18.51,0,0,1,18.78,7.31,18.49,18.49,0,0,1,22.5,19.16,18.49,18.49,0,0,1,12.38,12,18.51,18.51,0,0,1,8.66.11Z" fill="#00803d"/><path d="M0,26.22a18.51,18.51,0,0,1,10-7.4,18.49,18.49,0,0,1,12.42.12,18.49,18.49,0,0,1-10,7.4A18.51,18.51,0,0,1,0,26.22Z" fill="#00803d"/><path d="M22.44,42.52a18.51,18.51,0,0,1-4-11.78,18.49,18.49,0,0,1,4-11.77,18.49,18.49,0,0,1,4,11.77A18.51,18.51,0,0,1,22.44,42.52Z" fill="#00803d"/><path d="M44.5,26.36a18.51,18.51,0,0,1-12.42.12,18.49,18.49,0,0,1-10-7.4A18.49,18.49,0,0,1,34.52,19,18.51,18.51,0,0,1,44.5,26.36Z" fill="#00803d"/><path d="M11.15,34.17C3.84,28.87,6.28,25,8.26,24.07s4.13-1.53,6.2-2.3c7.3-2.93,8.35-1.69,7.58,5.5-0.09,2.2,0,4.44-.27,6.61S18.26,39.34,11.15,34.17Z" fill="#fff"/><path d="M8.13,24.64c-0.87,1-1.68,2.51.14,4.63,0.86,1.06,2.62,1.51,4.4,2.89s2.83,2.8,4.11,3.29c2.58,1.08,3.75-.15,4.39-1.21-0.51.88-1.6,1.86-4.18,0.78-1.28-.49-1.77-2.5-3.63-3.76S9.45,30,8.59,28.93C6.77,26.81,7.39,25.48,8.13,24.64Z" fill="#12100b"/><path d="M33,34.22c-7.3,5.31-10.27,1.78-10.5-.37s-0.18-4.4-.27-6.6c-0.53-7.84,1-8.46,7.58-5.5C31.88,22.5,34,23.14,36,24S40.12,29.05,33,34.22Z" fill="#fff"/><path d="M23,34.15c0.7,1.14,1.87,2.37,4.45,1.29,1.28-.49,2.25-2,4.11-3.29s3.54-1.83,4.4-2.89c1.82-2.12,1-3.61.21-4.55,0.68,0.76,1.28,2.1-.55,4.22-0.86,1.06-2.92.91-4.7,2.29s-2.42,3.32-3.7,3.81C24.65,36.11,23.58,35.11,23,34.15Z" fill="#12100b"/><path d="M40.32,13.63c2.79,8.59-1.48,10.32-3.6,9.87s-4.24-1.19-6.36-1.78c-7.62-1.92-7.75-3.54-2.89-8.91,1.37-1.73,2.64-3.57,4.1-5.19S37.6,5.27,40.32,13.63Z" fill="#fff"/><path d="M37.16,23.12c1.3-.32,2.84-1,2.61-3.83-0.07-1.37-1.23-2.77-1.86-4.92s-0.64-3.93-1.39-5.08c-1.45-2.39-3.12-2.08-4.26-1.6,0.93-.41,2.39-0.56,3.84,1.83,0.75,1.15,0,3.06.73,5.18s2.41,3.33,2.48,4.69C39.53,22.17,38.26,22.87,37.16,23.12Z" fill="#12100b"/><path d="M22.53,0.59c9,0,9.36,4.6,8.28,6.47s-2.44,3.67-3.66,5.5c-4.18,6.66-5.76,6.27-9.37,0-1.22-1.83-2.58-3.61-3.67-5.5S13.74,0.59,22.53.59Z" fill="#fff"/><path d="M30.58,6.52c0.1-1.34-.12-3-2.84-3.66-1.32-.36-3,0.32-5.26.25s-3.94-.6-5.26-0.25c-2.72.64-2.94,2.33-2.84,3.56-0.1-1,.2-2.45,2.92-3.09,1.32-.36,2.9,1,5.15.91S26.36,3,27.68,3.33C30.4,4,30.68,5.4,30.58,6.52Z" fill="#12100b"/><path d="M4.54,13.2c2.79-8.59,7.26-7.48,8.71-5.87s2.73,3.46,4.1,5.19c5,6,4.18,7.42-2.89,8.91-2.12.6-4.23,1.34-6.37,1.79S1.82,21.56,4.54,13.2Z" fill="#fff"/><path d="M12.68,7.38c-1.24-.51-2.91-0.82-4.36,1.57-0.75,1.15-.63,3-1.39,5.08s-1.79,3.56-1.86,4.92c-0.23,2.79,1.3,3.52,2.5,3.8-1-.22-2.27-0.95-2-3.74C5.6,17.65,7.36,16.56,8,14.4s0-4.11.75-5.26C10.19,6.75,11.64,6.93,12.68,7.38Z" fill="#12100b"/><path d="M22,8.92c0.15,1.42.12,2.88,0.17,4.32,0.51,4.7-.18,5.52-5,3.6-1.35-.5-2.75-0.92-4.06-1.5s-2.89-3.14,1.89-6.61S21.85,7.51,22,8.92Z" fill="#fff"/><path d="M13.38,12.17c0.56-.7,2-0.63,3.12-1.53S18,8.49,18.87,8.17c1.69-.71,2.4-0.06,2.74.51a2,2,0,0,0-2.87-.79c-0.84.32-1.47,1.33-2.69,2.15s-2.32,1.19-2.88,1.89a2,2,0,0,0-.09,3C12.59,14.42,12.19,13.55,13.38,12.17Z" fill="#12100b"/><path d="M31.32,15.37c-1.3.58-2.71,1-4.06,1.5-4.32,1.93-5.3,1.53-5-3.6,0.06-1.44,0-2.9.18-4.32s2.09-3.72,6.87-.24S32.62,14.79,31.32,15.37Z" fill="#fff"/><path d="M25.57,8.17c0.84,0.32,1.2,1.67,2.42,2.49s2.51,0.8,3.07,1.5c1.19,1.39.8,2.26,0.36,2.76a2,2,0,0,0-.14-3c-0.56-.7-1.72-1-2.88-1.89S26.56,8.22,25.72,7.9a2,2,0,0,0-2.91.85C23.19,8.12,23.89,7.47,25.57,8.17Z" fill="#12100b"/><path d="M28.41,26.11c-1-1.06-1.79-2.26-2.68-3.4-3.17-3.51-3.09-4.57,1.89-5.83,1.39-.39,2.77-0.87,4.16-1.17s4.18,0.84,2.35,6.46S29.36,27.16,28.41,26.11Z" fill="#fff"/><path d="M33.47,18.41c0,0.89-1.21,1.66-1.62,3.07s0,2.64-.47,3.39c-1,1.56-1.9,1.46-2.51,1.19a2,2,0,0,0,2.79-1c0.49-.75.41-1.94,0.91-3.32s1.17-2.33,1.22-3.22A2,2,0,0,0,32.07,16C32.79,16.13,33.62,16.59,33.47,18.41Z" fill="#12100b"/><path d="M17,26.47c0.71-1.24,1.6-2.4,2.4-3.6,2.36-4.1,3.39-4.36,6.13,0,0.8,1.2,1.68,2.36,2.4,3.6s0.49,4.24-5.41,4.24C16.75,30.71,16.28,27.7,17,26.47Z" fill="#fff"/><path d="M25.87,28.91c-0.86.23-2-.64-3.42-0.6s-2.5.83-3.37,0.6c-1.78-.42-2-1.36-1.91-2A2,2,0,0,0,19,29.22c0.86,0.23,2-.21,3.44-0.16s2.58,0.4,3.44.16a2,2,0,0,0,1.86-2.4C27.83,27.56,27.65,28.49,25.87,28.91Z" fill="#12100b"/><path d="M13.06,15.91c1.4,0.3,2.78.78,4.16,1.17,4.63,1,5.19,1.88,1.89,5.83-0.89,1.13-1.73,2.33-2.68,3.39s-3.88,1.78-5.7-3.84S11.67,15.61,13.06,15.91Z" fill="#fff"/><path d="M13.48,25.11c-0.49-.75,0-2.05-0.49-3.44s-1.56-2.13-1.61-3c-0.15-1.82.68-2.3,1.33-2.44a2,2,0,0,0-1.64,2.49c0,0.89.81,1.81,1.22,3.22s0.42,2.57.91,3.32a2,2,0,0,0,2.85,1C15.38,26.55,14.43,26.67,13.48,25.11Z" fill="#12100b"/><path d="M24.58,15.55a0.66,0.66,0,1,0,.6-0.27A0.66,0.66,0,0,0,24.58,15.55Z" fill="#fcc200"/><path d="M18.06,19.18a0.66,0.66,0,1,0,.6-0.27A0.66,0.66,0,0,0,18.06,19.18Z" fill="#fcc200"/><path d="M18.59,20.4a0.66,0.66,0,1,0,.6-0.27A0.66,0.66,0,0,0,18.59,20.4Z" fill="#fcc200"/><path d="M19.49,21.44a0.66,0.66,0,1,0,.6-0.27A0.66,0.66,0,0,0,19.49,21.44Z" fill="#fcc200"/><path d="M20.81,22.06a0.66,0.66,0,1,0,.6-0.27A0.66,0.66,0,0,0,20.81,22.06Z" fill="#fcc200"/><path d="M22.11,22.29a0.66,0.66,0,1,0,.6-0.27A0.66,0.66,0,0,0,22.11,22.29Z" fill="#fcc200"/><path d="M23.41,22.06a0.66,0.66,0,1,0,.6-0.27A0.66,0.66,0,0,0,23.41,22.06Z" fill="#fcc200"/><path d="M24.46,21.36a0.66,0.66,0,1,0,.6-0.27A0.66,0.66,0,0,0,24.46,21.36Z" fill="#fcc200"/><path d="M25.28,20.4a0.66,0.66,0,1,0,.6-0.27A0.66,0.66,0,0,0,25.28,20.4Z" fill="#fcc200"/><path d="M25.78,19.05a0.66,0.66,0,1,0,.6-0.27A0.66,0.66,0,0,0,25.78,19.05Z" fill="#fcc200"/><path d="M25.75,17.71a0.66,0.66,0,1,0,.6-0.27A0.66,0.66,0,0,0,25.75,17.71Z" fill="#fcc200"/><path d="M25.4,16.48a0.66,0.66,0,1,0,.6-0.27A0.66,0.66,0,0,0,25.4,16.48Z" fill="#fcc200"/><path d="M23.5,14.76a0.66,0.66,0,1,0,.6-0.27A0.66,0.66,0,0,0,23.5,14.76Z" fill="#fcc200"/><path d="M18,17.82a0.66,0.66,0,1,0,.6-0.27A0.66,0.66,0,0,0,18,17.82Z" fill="#fcc200"/><path d="M18.5,16.5a0.66,0.66,0,1,0,.6-0.27A0.66,0.66,0,0,0,18.5,16.5Z" fill="#fcc200"/><path d="M19.3,15.45a0.66,0.66,0,1,0,.6-0.27A0.66,0.66,0,0,0,19.3,15.45Z" fill="#fcc200"/><path d="M20.64,14.74a0.66,0.66,0,1,0,.6-0.27A0.66,0.66,0,0,0,20.64,14.74Z" fill="#fcc200"/><path d="M22.09,14.53a0.66,0.66,0,1,0,.6-0.27A0.66,0.66,0,0,0,22.09,14.53Z" fill="#fcc200"/><path d="M19.91,16.95a3.14,3.14,0,1,0,4.39-.7,3.14,3.14,0,0,0-4.39.7h0Z" fill="#fcc200"/><path d="M21.2,17.89a1.54,1.54,0,1,0,2.16-.34A1.54,1.54,0,0,0,21.2,17.89Z" fill="#fcc200"/></svg>