<svg xmlns="http://www.w3.org/2000/svg" viewBox="0 0 179.07 215.43"><title>sitwellcc-lion</title><path fill="#fff" d="M165.4 17.34c-3.05-3.77-3.16-7.77-3.2-12.4 0-1.64-3.22-8.56-2.4-2.5.4 3.07-2.78 4.78-5.45 6a18.1 18.1 0 0 1-6.17 1.4c-5.5.4-10.1 2.5-13.52 7a29.4 29.4 0 0 0-6.1 14.86 39.22 39.22 0 0 0 .68 13.2c-.1.1-4.5 4.43-10.33-1.85 3.18-2 9-6.57 6.92-11.8 0 0-2.35 4.7-8.47 2.36 2.37-2.78 6.84-9.08 3.2-13.54 0 0-1 6.16-9.3 4.56.78-2.74 2.2-9.66-2.4-11.8 0 0 1.56 5.18-5.7 6.92.23-2.5-.23-5.08-2.55-6.48 0 0 .9 4.9-5.58 6.13a17.85 17.85 0 0 0-2.8.26h-.73l.14.1a15 15 0 0 0-5.2 2.2A14.58 14.58 0 0 1 78 24.34a8.17 8.17 0 0 0-2 .15 1.45 1.45 0 0 0-1.2 2.1 8.7 8.7 0 0 1 .78 2.7c.1 2.13 0 4.28-.05 6.42a.87.87 0 0 0 .62 1 7.67 7.67 0 0 1 1.84.94c1.17.9 1.12 2.4 1.83 3.74a21.9 21.9 0 0 1-6.58-1.56 3 3 0 0 1-1.3-2.76C72 34 74.1 35.22 73.38 36c0 0 1.74-1.18-.62-2.36s-3.75 2.1-2.26 4.3a5.6 5.6 0 0 1-1.28-3.2c-.13-1.54 0-3.1 0-4.75a3.74 3.74 0 0 0-2.76 2.14 9.56 9.56 0 0 0-.9 4.63 9.93 9.93 0 0 0 3.2 7.34l-2.76.77c6.42 4 11.7 2.87 13.9 2.05a.7.7 0 0 1 0 .25c-.22 1-.5 2-.76 3l-1.67-.8c.46 3.74.26 4.33-2 6.9.7-.1 1.37-.2 2-.35a2.26 2.26 0 0 1 2.3.47 1.7 1.7 0 0 0 1.13.35c2.26-.1 4.53-.2 6.78-.4 1.67-.13 3.32-.43 5-.6 1.1-.1 1.37.23 1.34 1.33a3.28 3.28 0 0 1-2.43 3.3 7.5 7.5 0 0 1-2.87.38A14.4 14.4 0 0 0 82 61.9c-2.45.93-4.88 1.93-7.33 2.85a1.7 1.7 0 0 1-1.23 0A33.93 33.93 0 0 1 57 45.88a34.33 34.33 0 0 0-6.93-11.4 55.12 55.12 0 0 0-9.84-8.57C37.47 24 37 22.76 38 19.64a14.45 14.45 0 0 0 .43-6 5.24 5.24 0 0 0-.47-1.4c-.4-.88-.84-1.73-1.25-2.6-.2-.4-.36-.86-.57-1.28-1.5-2.85-4.5-4.7-7.28-4.35 1.8 2.15 3 4.48 2.78 7.45-.87 0-1.5.2-1.6.84-1.1-.88-2.08-2.2-3.34-2.54-1.48-.45-2.7-1.36-4.16-1.7a6.3 6.3 0 0 0-6.27 2.4c3.57.93 5.36 2.1 6 3.88-.64.68-.64.68-1.52.22-1.18-.6-1.4-.52-2 .6a1.1 1.1 0 0 1-.83.37 9.28 9.28 0 0 0-5.7 1.83 7.9 7.9 0 0 0-2.58 3.9c.9-.26 1.6-.56 2.36-.72s1.5-.5 2.07.4a1.4 1.4 0 0 0 .88.35c.58.1 1.17.13 1.75.2a1.35 1.35 0 0 1 1.34.93 1.3 1.3 0 0 0 .65.8c1.37.42 2.63 1.27 4.2 1a3.4 3.4 0 0 1 3.9 1.87 1.24 1.24 0 0 1-.05 1.07 4.08 4.08 0 0 1-3 1.78 14.66 14.66 0 0 0-1.84.25 3.15 3.15 0 0 0-2.53 3c-2.52 1.2-5.07.78-7.63 0a1.28 1.28 0 0 0 0 .28 2 2 0 0 0 .15.32 10.9 10.9 0 0 0 8.2 5.37A7.1 7.1 0 0 0 26.83 36c2-2.1 6-1.22 7.15 1.28.23.5 3.08 9.83 3.3 10.44a1.06 1.06 0 0 0 .34-.6c.32-1.42.5-1.53 1.72-.74a1.43 1.43 0 0 1 .47 1.1c-.1 2.25-.32 7.75-.26 8.42l1.77-2.06c.87.85.6 1.75.53 2.6-.2 2.24-.5 7.52-.45 7.93a7.08 7.08 0 0 0 1-1.45c.8-1.38.86-1.4 2.32-.87l.5.2c-.46 2.67-1.4 5.26-.94 8.2.63-1 1.13-1.83 1.66-2.64s1.58 7.1 1.68 7.93h.17l1.55-2.93a8.26 8.26 0 0 1 1.92 2.06 25.6 25.6 0 0 0 4.5 7.64l.5.6 10.15-6.37A18.22 18.22 0 0 0 71.4 72L73 69.82a.5.5 0 0 1 .8.58l-1.58 2.18a19.2 19.2 0 0 1-5.36 5l-14.73 9.26a.5.5 0 0 1-.26.08c-7 4.85-13.94 9.68-20.87 14.57a23 23 0 0 1-8.24 3.7c-2.94.67-5.66.44-8-1.64a23.32 23.32 0 0 0-2.56-1.88 9.5 9.5 0 0 0-2.1-1.1c-1.25-.43-2.17-.1-2.37 1.37-3.76.37-6.5 2.1-7.68 5.93 1.1-.32 2.1-.63 3.1-.9a1.2 1.2 0 0 1 .72.15 10.58 10.58 0 0 0 1.34.67 6.6 6.6 0 0 1 2.15.87 17 17 0 0 0 3.3 1.6 20.8 20.8 0 0 0 2.4.67l-3.65 1.2c-2 .64-4.07 1.18-6 2-1.6.6-1.7 1.48-.57 2.7-2.75 4.15-3.25 8-1.25 9.93a16.84 16.84 0 0 1 .75-1.6 1.44 1.44 0 0 1 .67-.47 6.46 6.46 0 0 0 1.17-.46 8.23 8.23 0 0 1 3.33-1.9 7.6 7.6 0 0 0 4.04-2.34 26.7 26.7 0 0 1 3-2.75 11.7 11.7 0 0 1 3.26-1.7c1.22-.38 1.44 0 1.08 1.2a10.15 10.15 0 0 1-2.6 3.93 21.6 21.6 0 0 0-1.85 2.13c-.67.95-.56 1.25.35 1.87-1.2 4.7 0 8.74 2.94 10-.48-1.55.53-2.6 1.1-3.8a8.1 8.1 0 0 1 1.18-1.7c.72-.85 2.06-1.1 2.37-2.38.14-.58.32-1.14.42-1.7.37-2.18.65-4.36 1.1-6.5a5.72 5.72 0 0 1 2.4-3.6 3.93 3.93 0 0 1 2.1-.55 2.9 2.9 0 0 1 .5 1.6c0 2.13 0 4.25 0 6.37 0 .63.07 1.26.13 2.13a14.42 14.42 0 0 1 1.22-1.08 23.62 23.62 0 0 0 2.47-1.24c.6-.7 1-1.56 1.58-2.33s1.2-1.66 1.9-2.63a14.66 14.66 0 0 0 2 2.1c.8-.82.23-4.67 1.08-5.4s.65 1.1 1.36 2a8.24 8.24 0 0 0 .58-1.07c.34-1 1.32-2.78 2.06-3.1.25-.1 1.82 2.62 2 2.7.5-.8 1.4-3.53 1.9-4.1s5 4.44 6.26 4.5c-.33-.58-.1-1.6-.37-2.12-.7-1.34 1.55-1.16 1.85-1 .5.26 1 .54 1.52.84a4.64 4.64 0 0 1 .12-1.47c.7-1.45 2-2.5 3.78-1.54a6 6 0 0 0 3.27.6c-.1-.2-1-1.7-1.16-2a4.54 4.54 0 0 1 1.5.33 9.25 9.25 0 0 1 2.28.53c1.67.68 2.3.56 3.66-.67a6 6 0 0 1 1.55-1c.66-.3 1.08 0 1.13.7 0 .43 0 .85.08 1.46a3.33 3.33 0 0 1 2.82-1.26 1.4 1.4 0 0 0 .73-.45c.8-.64 1.53-1.36 2.37-1.94a1.3 1.3 0 0 1 1.92.4 47.15 47.15 0 0 0 3.46 4.12c2.37 2.35 4.95 4.5 8.22 5.44 1.9.55 3.93.67 5.88 1.06 1 .2 2.24.27 2.75.9a11 11 0 0 1 2.08 6.34 31.2 31.2 0 0 1-9-.3A12.56 12.56 0 0 1 91 122.5a13.46 13.46 0 0 0-2.24-1.18 8.82 8.82 0 0 0-7.2.68c-1.76 1-3.44 2.25-5.14 3.42-1.3.9-2.56 1.9-3.9 2.75a4.7 4.7 0 0 1-3.48 1 21.53 21.53 0 0 1-4.04-1.32 4.24 4.24 0 0 1-2.35-3.23 8 8 0 0 1 .72-4.9c.2-.5.45-1 .68-1.52l-.18-.13c-1 .87-2.14 1.66-3.1 2.6-2.66 2.67-3 5.36-1.2 8.68.18.35.36.7.62 1.2a15.66 15.66 0 0 1-11.95-6.63c1 7 4.87 11 11.53 12.5a8.62 8.62 0 0 1-3.87 4.23 10.68 10.68 0 0 1-5.7 1 9.8 9.8 0 0 0 6.77 1.7 1.15 1.15 0 0 1 .74 0 1.25 1.25 0 0 0 1.63.07c.9-.44 1.75-1 2.63-1.43.38-.2.8-.37 1.43-.66l-.85 2.2c.42-.07.73-.1 1-.18a3.2 3.2 0 0 1 2.7.34 4.68 4.68 0 0 0 1.85.34 7 7 0 0 1 1.4.14 1.24 1.24 0 0 1 .63.75c.5 1.66.84 3.36 1.4 5s1.33 3.08 1.88 4.66a22.88 22.88 0 0 1 .64 3.12c-.5 0-.75.1-1 .08-6.56-.24-13.13-.47-19.7-.75a7.87 7.87 0 0 1-4.76-1.88c-.93-.77-1.82-1.6-2.77-2.33a4.7 4.7 0 0 1-1.68-2.5c-.4-1.37-.77-2.73-1.26-4-.56-1.5-1.14-1.64-2.45-.78-5.07-2.9-9.24-1.43-11.06 1.08a7.4 7.4 0 0 1 6.56 3.2l-1.1-.2c-.36-.04-.7-.1-1-.14-1.17-.1-1.23-.05-1.22 1a6.3 6.3 0 0 0-6 5.66l.83-.28c1.1-.38 2.2-.9 3 .4a2.28 2.28 0 0 0 .3.18c.26.25.5.5.74.77a4 4 0 0 1-.88.57 9.22 9.22 0 0 0-5.2 3.6 7.28 7.28 0 0 0-1.22 4.12c.66-.43 1.18-.8 1.73-1.13s1.12-.78 1.78 0a1.9 1.9 0 0 0 1.18.12c.47 0 .94-.1 1.4-.14a1.35 1.35 0 0 1 1.5.82 1.38 1.38 0 0 0 .83.73c1.4.23 2.77.52 4.2-.2a13.48 13.48 0 0 1 7-1.35c.72 0 .92.42.4.94a3.83 3.83 0 0 1-1.47.85c-.84.28-1.75.35-2.56.67a5.55 5.55 0 0 0-3 3.12l1.86.13c-2 3.7-2.4 7.27.72 10.84a8.1 8.1 0 0 1 .2-1.24 3.8 3.8 0 0 1 .57-1.14c.35-.44.9-.75 1.2-1.22a5.72 5.72 0 0 1 2.67-2.22 6.15 6.15 0 0 0 3.8-4.34 15.28 15.28 0 0 1 1.25-3.17 2.34 2.34 0 0 1 2.5-1c.9.07 1.06.8 1.34 1.45.65 1.45 1.23 2.93 2 4.32a8.27 8.27 0 0 0 1.5 1.63c1.13-1 2.05-2 3.08-2.75.83-.64 1.37-.43 2 .4 1 1.3 1.9 2.62 3 3.83a15.42 15.42 0 0 0 2.14 1.72c.74-1 1.36-1.9 2-2.75 1-1.3 2-1.25 2.88.08s2 3 3.1 4.4a7.9 7.9 0 0 0 1.3 1.1c.22-.46.34-.78.5-1.08.48-.8.96-1.6 1.48-2.37a19.05 19.05 0 0 1 1.76-2.33c.53-.56 1.1-.42 1.47.32.47.94 1 1.86 1.46 2.8a2.36 2.36 0 0 1 1-.5c1.3.12 2-.75 2.68-1.6a4.52 4.52 0 0 1 4.34-1.8 15.18 15.18 0 0 0 3.6-.14 2.12 2.12 0 0 0 1.82-1.7 3.6 3.6 0 0 1 .32-1.1c.44-1 .92-1.9 1.38-2.83a3.93 3.93 0 0 0-1.34.18 12.44 12.44 0 0 1-5.85.37c-2.87-.6-5.25-3.15-5.27-5.8a15.25 15.25 0 0 1 1.18-6.54c2.7-6 7.4-9.23 14.27-8.5a3.5 3.5 0 0 1 .76.16 8.64 8.64 0 0 1 .16-2.56 8.6 8.6 0 0 0 .17-1.54.75.75 0 0 0-.3-.8c-.76-.58-1.15-1.2.32-6.33 2.3-8 11.63-5.82 11.73-5.8a.5.5 0 0 1-.23 1 13 13 0 0 0-4.58-.12 6.93 6.93 0 0 0-6 5.25c-1.36 4.75-.94 5.07-.67 5.28a1.67 1.67 0 0 1 .7 1.58 9.52 9.52 0 0 1-.2 1.72 7.9 7.9 0 0 0 .28 4.23c1.22 2.65 2.52 5.27 3.6 8a67.55 67.55 0 0 1 2 6.48 1 1 0 0 1-.66 1.22 24.4 24.4 0 0 0-3.64 2.14 10.32 10.32 0 0 0-3.9 11.7 6.77 6.77 0 0 0 .34.65c.24-.86.4-1.58.63-2.27s.54-1.4.82-2.1a3.86 3.86 0 0 0 1.15.5 1.22 1.22 0 0 1 1.23 1.1 41.06 41.06 0 0 0 1.62 4.26 2.57 2.57 0 0 0 1.83 1.48c0-.8-.14-1.5-.1-2.2.06-1.87 1.82-3.6 4-2.37a7.9 7.9 0 0 0 1.86.77 3.7 3.7 0 0 0 3.65-.94c-.37-.2-.66-.32-1-.47a8.68 8.68 0 0 1-3.37-2.9 3.6 3.6 0 0 1-.36-3 1.65 1.65 0 0 1 2.25-1.2 9.44 9.44 0 0 1 2 1 6.8 6.8 0 0 0 5.3 1 9.1 9.1 0 0 0 4.54-2.94 18 18 0 0 1 2.08-1.9.8.8 0 0 1 1.43.46c.48 1.63 1.05 3.25 1.4 4.9.63 3 0 5.7-2.5 7.8a8.57 8.57 0 0 0-1.77 2.7c-.43.83-.65 1.77-1 2.64a4.82 4.82 0 0 1-4.9 2.86c-1.48-.24-2.92-.68-4.4-1-2.12-.4-2.63.14-2.3 2.28a1 1 0 0 1 0 .24 11.08 11.08 0 0 0-5 3.26 7.6 7.6 0 0 0-1.6 5.8c.6-.53 1.08-1 1.57-1.36s.8-.73 1.43-.2a1.57 1.57 0 0 0 1.16 0 4.72 4.72 0 0 1 2.8-.15c-.62 1-1.22 2-1.77 2.92-.48.8-.45.82.25 1.4-2 3.38-1.76 6.1.72 8.2a3.82 3.82 0 0 1 .6-1.4 16.88 16.88 0 0 1 2.26-1.42c1-.6 1.5-.35 1.52.85a7.88 7.88 0 0 0 1.68 5.1 23 23 0 0 0 2.2 2.05 3.3 3.3 0 0 0 .17-.4c0-.1 0-.18 0-.26a6.56 6.56 0 0 1 2.47-5.57 4.65 4.65 0 0 0 1.9-4 9.94 9.94 0 0 1 3.7-7.8 4 4 0 0 1 1.76-.62.73.73 0 0 1 .9.9c-.07.73-.2 1.45-.3 2.18a4.16 4.16 0 0 0 2.9 4.36c1.64.43 2 .85 2 2.57 0 .93-.08 1.85-.14 3a9.73 9.73 0 0 1 2.2-1.6c1.8-.6 1.86-2.07 2.05-3.52.23-1.7.36-3.43.7-5.1a3.1 3.1 0 0 0-1.64-3.7 8.6 8.6 0 0 1-1.62-.88 3 3 0 0 1-1.24-1.6c-.05-2.05.52-3.74 2.86-4.05a25.17 25.17 0 0 0 2.88-.4A2.42 2.42 0 0 0 146 188a2.43 2.43 0 0 1 1.32-1.4l.9-.64-4.8-2.5v-.36a4.52 4.52 0 0 1 1.1-.8c1.1-.37 2.2-.6 3.32-.93s2.07-.54 2.26-1.88a1.9 1.9 0 0 1 .64-.68l1.4-1.42-3.55-1v-.35c.72-.4 1.46-.78 2.18-1.2a3 3 0 0 0 1.38-1 3.36 3.36 0 0 1 1.74-2 4.37 4.37 0 0 1 .76-.28c-1.7-.9-3-1.5-4.3-2.23-.8-.47-.8-.8-.08-1.42s1.6-1.06 2.38-1.64a1.5 1.5 0 0 0 .66-.95 1.55 1.55 0 0 1 .75-1.37c.43-.4.8-.85 1.32-1.4-1.54-.38-2.93-.36-4.25-1.5l2.36-1a6.17 6.17 0 0 0 1.92-.8A13 13 0 0 0 157 157a6.43 6.43 0 0 0 .4-.86c-.57-.1-1-.17-1.44-.26a8.5 8.5 0 0 1-4.13-2.08 2.8 2.8 0 0 1-.93-2.7 2.9 2.9 0 0 0-.1-1.54 1.67 1.67 0 0 1 .27-1.8c.23-.32.5-.62.84-1l-1-.17a4.6 4.6 0 0 1-4.3-4.5 15.64 15.64 0 0 1 0-2.12c0-.6.1-1.18.2-2-.24.3-.35.42-.45.56a18.82 18.82 0 0 1-7.3 6.26c-2.72 1.27-5.57 1.9-8.47.78-2.22-.86-4.15-2.12-4.1-5 0-2.1-.06-4.2 0-6.27a4.55 4.55 0 0 1 .3-1.4c.5-4.3 1.26-15.4-3.15-23.75l.14-.08c-2.16-4.13-4.3-8.28-6.58-12.35-1.88-3.34-4.1-6.48-6.15-9.7a5.18 5.18 0 0 1 .06-4.93.77.77 0 0 1 .24.08.92.92 0 0 1 .23.27c1 1.8 5.62 4.22 9.4 1.63-2.2-1.27-3.05-2.14-3.6-3.67a23.5 23.5 0 0 1 .46-4.66c3.92.3 9.54-.1 11.1-4.65 0 0-6.94 2.9-9.56-8.18q0-.5 0-1c3.76.1 8.34-.7 9.73-4.72 0 0-4.94 2.06-8.06-3.93 3.7-1.25 8.48-3.78 8.2-8.44 1.86 8 6.42 14.86 13.43 20.7 2.62 2.18 5.35 4.27 7.74 6.7a38.88 38.88 0 0 1 10.75 20.8c.1.6.1 1.24.16 1.86a1 1 0 0 1-.57-.4 16.9 16.9 0 0 0-11.38-7.1 4.4 4.4 0 0 1-3.65-4.5 4.9 4.9 0 0 0 0-1.66c-.6-1.57 0-2.95.55-4.35.14-.37.3-.73.48-1.16-3.55 1-5.55 3.1-5.6 6.32a20.64 20.64 0 0 0 .9 4.82 13.3 13.3 0 0 0 .8 2c-2.3 1.07-4.35 2.34-4.64 5.08-2.87-.12-5.58-1.7-8.85-5.1a1.36 1.36 0 0 0-.14.32 6.8 6.8 0 0 0 2.8 7.22q.83.58 1.67 1.14a.76.76 0 0 1 .18 1.25 28.46 28.46 0 0 0-1.8 2.92 9.65 9.65 0 0 0 2.3 12.18c.52.46 1.08.87 1.6 1.3a2.07 2.07 0 0 0-.05-1.13 11.2 11.2 0 0 1 .26-7.28 7.1 7.1 0 0 1 1.6-2.28 1.56 1.56 0 0 1 2.05 0 38.6 38.6 0 0 0 3.28 2.52c1.22.8 3 .83 3.67.14s1.22-1.35 1.77-2c-.94-1-2-2-2.88-3.12a2.08 2.08 0 0 1-.05-2.63 5.4 5.4 0 0 1 2-1.85 9.22 9.22 0 0 1 9.93 1.52 10.9 10.9 0 0 1 3.93 10.6 19.1 19.1 0 0 1-7.86 12.57c-6.84 5.2-14.7 4.93-21.2-.64a27.75 27.75 0 0 1-5.72-6.94 50.62 50.62 0 0 1 1.13 16.88 3 3 0 0 1 2.54-.08 45.08 45.08 0 0 0 6.25 1.8 33.45 33.45 0 0 0 15.9-.7 19.94 19.94 0 0 0 11.48-8.68 38 38 0 0 0 4.67-10.9 47.75 47.75 0 0 0 1.3-18.1 33.7 33.7 0 0 0-7.1-17.68c-5-6.2-10.5-11.86-16-17.55a68.82 68.82 0 0 1-8.38-9.8 21.64 21.64 0 0 1-3.3-10.14 26 26 0 0 1 .34-7.54 28 28 0 0 1 3.5-8.92 23.9 23.9 0 0 1 4.73-5.57c1.6-1.4 3.26-2.76 5.46-3.05a3.48 3.48 0 0 1 3.32 1 3.26 3.26 0 0 1 .4 3.8c-.28.52-.5 1.08-.7 1.62a19.83 19.83 0 0 0-1.73 9.82A39.74 39.74 0 0 0 151 35c.62-.56 1.38-1.1 1.73-1.42 3.63-2.58.6 1.92.32 2.56a36 36 0 0 0-1.6 3.73c-1.06 3.36-.73 6.5 2 9a22.1 22.1 0 0 0 2.42 1.7 3 3 0 0 1 1.77-3c1.08 2.37 2.44 4.23 5.35 4.4a14.9 14.9 0 0 1-.58-2.2 15 15 0 0 1 1.44-7.7 9.75 9.75 0 0 1 1.36-2.15c.8-1 1.56-.84 2.43 0a39.75 39.75 0 0 0 3.8 3.08 2.86 2.86 0 0 0 3.17.08 12.72 12.72 0 0 1 1.36-1c.3-.2.63-.37 1.07-.6l-.52-.27c-3.4-1.43-5.85-4.66-5.23-8.46a8.16 8.16 0 0 1 1-2.67c1.65-3 4.76-5.2 5.93-8.44.3-.84.56-1.7.88-2.7a24.9 24.9 0 0 1-2.56 1.8c-4.14 2.13-8.46-.1-11.13-3.4zM81 41.17a1.82 1.82 0 0 1 .4-1.17 8.9 8.9 0 0 1 6.65-2c.7.08 1.45-.1 2.16-.06a.88.88 0 0 1 .56.65c.06 1.06 0 2.13 0 3.45L83 41.73a7 7 0 0 1-1.3-.15 1.32 1.32 0 0 1-.7-.4zm9.1 8.24a9.8 9.8 0 0 1-7.2 1.74.88.88 0 0 1-.64-.38c-.4-1.07-.75-2.15-1.06-3.25a.64.64 0 0 1 .72-.84c2.85-.1 5.7-.18 8.55-.23a5.52 5.52 0 0 1 1.36.36 4.16 4.16 0 0 1-1.76 2.6zm-1.5-21.28s1.83-2.55 7.66-2.92c0 0-.96 6.33-7.65 2.92z"/></svg>