<?xml version="1.0" encoding="utf-8"?>
<!-- Generator: Adobe Illustrator 17.1.0, SVG Export Plug-In . SVG Version: 6.00 Build 0)  -->
<!DOCTYPE svg PUBLIC "-//W3C//DTD SVG 1.1//EN" "http://www.w3.org/Graphics/SVG/1.1/DTD/svg11.dtd">
<svg version="1.1" id="Layer_1" xmlns="http://www.w3.org/2000/svg" xmlns:xlink="http://www.w3.org/1999/xlink" x="0px" y="0px"
	 viewBox="170.5 10.4 70 79.2" enable-background="new 170.5 10.4 70 79.2" xml:space="preserve">
<title>sitwellcc-crest</title>
<g>
	<defs>
		<path id="SVGID_1_" d="M240.6,29.9c-9.4-2.9-9.5-14.2-9.5-14.2c-12.1,0.4-18.9-5.2-25.5-5.2s-13.4,5.6-25.5,5.2
			c0,0-0.2,11.3-9.5,14.2c0,0,4.4,8.6,3.1,17.7s1.1,27.5,31.9,42c30.8-14.4,33.2-32.8,31.9-42C236.1,38.5,240.6,29.9,240.6,29.9z"/>
	</defs>
	<clipPath id="SVGID_2_">
		<use xlink:href="#SVGID_1_"  overflow="visible"/>
	</clipPath>
	<g clip-path="url(#SVGID_2_)">
		<rect x="0" y="10.4" fill="#00803D" width="285" height="15.8"/>
		<rect x="0" y="26.2" fill="#FDC300" width="285" height="15.8"/>
		<rect x="0" y="42.1" fill="#00803D" width="285" height="15.8"/>
		<rect x="0" y="57.9" fill="#FDC300" width="285" height="15.8"/>
		<rect x="0" y="73.8" fill="#00803D" width="285" height="15.8"/>
	</g>
</g>
<path fill="#1D1D1B" stroke="#1D1D1B" stroke-width="0.5" stroke-miterlimit="10" d="M235.2,33c-7.9-2.5-8.1-12.1-8.1-12.1
	c-10.2,0.3-16-4.4-21.5-4.4c-5.6,0-11.3,4.7-21.5,4.4c0,0-0.2,9.6-8.1,12.1c0,0,3.7,7.3,2.7,15c-1.1,7.7,0.9,23.3,27,35.5
	c26.1-12.2,28.1-27.8,27-35.5S235.2,33,235.2,33z"/>
<path fill="#FFFFFF" d="M219.1,37.4c-0.6-0.7-0.6-1.4-0.6-2.3c0-0.3-0.6-1.6-0.4-0.5c0.1,0.6-0.5,0.9-1,1.1
	c-0.4,0.2-0.8,0.2-1.1,0.3c-1,0.1-1.9,0.5-2.5,1.3c-0.6,0.8-1,1.8-1.1,2.8c-0.1,0.8-0.1,1.7,0.1,2.5c0,0-0.8,0.8-1.9-0.3
	c0.6-0.4,1.7-1.2,1.3-2.2c0,0-0.4,0.9-1.6,0.4c0.4-0.5,1.3-1.7,0.6-2.5c0,0-0.2,1.1-1.7,0.8c0.1-0.5,0.4-1.8-0.4-2.2
	c0,0,0.3,1-1.1,1.3c0-0.5,0-0.9-0.5-1.2c0,0,0.2,0.9-1,1.1c-0.2,0-0.4,0-0.5,0.1h-0.1l0,0c-0.3,0.1-0.7,0.2-1,0.4
	c-0.5,0.3-1,0.5-1.6,0.5c-0.1,0-0.2,0-0.4,0c-0.1,0-0.3,0.1-0.2,0.3c0,0,0,0.1,0,0.1c0.1,0.2,0.1,0.3,0.1,0.5c0,0.4,0,0.8,0,1.2
	c0,0.1,0,0.2,0.1,0.2c0.1,0,0.2,0.1,0.3,0.2c0.2,0.2,0.2,0.4,0.3,0.7c-0.4,0-0.8-0.1-1.2-0.3c-0.2-0.1-0.3-0.3-0.2-0.5
	c0-0.6,0.4-0.4,0.3-0.2c0,0,0.3-0.2-0.1-0.4c-0.4-0.2-0.7,0.4-0.4,0.8c-0.1-0.2-0.2-0.4-0.2-0.6c0-0.3,0-0.6,0-0.9
	c-0.2,0-0.4,0.2-0.5,0.4c-0.1,0.3-0.2,0.6-0.2,0.9c0,0.5,0.2,1,0.6,1.4l-0.5,0.1c1.2,0.7,2.2,0.5,2.6,0.4c0,0,0,0,0,0
	c0,0.2-0.1,0.4-0.1,0.6l-0.3-0.2c0.1,0.7,0,0.8-0.4,1.3c0.1,0,0.3,0,0.4-0.1c0.1-0.1,0.3,0,0.4,0.1c0.1,0,0.1,0.1,0.2,0.1
	c0.4,0,0.8,0,1.3-0.1c0.3,0,0.6-0.1,0.9-0.1c0.2,0,0.3,0,0.2,0.2c0,0.3-0.2,0.5-0.5,0.6c-0.2,0.1-0.4,0.1-0.5,0.1
	c-0.4,0-0.9,0-1.3,0.2c-0.5,0.2-0.9,0.4-1.4,0.5c-0.1,0-0.2,0-0.2,0c-1.4-0.7-2.5-2-3.1-3.5c-0.3-0.8-0.7-1.5-1.3-2.1
	c-0.5-0.6-1.2-1.1-1.8-1.6c-0.5-0.4-0.6-0.6-0.4-1.2c0.1-0.4,0.1-0.7,0.1-1.1c0-0.1,0-0.2-0.1-0.3c-0.1-0.2-0.2-0.3-0.2-0.5
	c0-0.1-0.1-0.2-0.1-0.2c-0.3-0.5-0.8-0.9-1.3-0.8c0.3,0.4,0.6,0.8,0.5,1.4c-0.2,0-0.3,0-0.3,0.2c-0.2-0.2-0.4-0.4-0.6-0.5
	c-0.3-0.1-0.5-0.2-0.8-0.3c-0.4-0.1-0.9,0.1-1.2,0.5c0.7,0.2,1,0.4,1.1,0.7c-0.1,0.1-0.1,0.1-0.3,0c-0.2-0.1-0.3-0.1-0.4,0.1
	c0,0-0.1,0.1-0.2,0.1c-0.4,0-0.8,0.1-1.1,0.3c-0.2,0.2-0.4,0.4-0.5,0.7c0.2-0.1,0.3-0.1,0.4-0.1s0.3-0.1,0.4,0.1
	c0,0,0.1,0.1,0.2,0.1c0.1,0,0.2,0,0.3,0c0.1,0,0.2,0.1,0.2,0.2c0,0.1,0.1,0.1,0.1,0.1c0.3,0.1,0.5,0.2,0.8,0.2
	c0.3-0.1,0.6,0.1,0.7,0.4c0,0.1,0,0.1,0,0.2c-0.1,0.2-0.3,0.3-0.6,0.3c-0.1,0-0.2,0-0.3,0c-0.3,0.1-0.5,0.3-0.5,0.6
	c-0.5,0.2-0.9,0.1-1.4,0c0,0,0,0,0,0.1c0,0,0,0,0,0.1c0.3,0.6,0.9,0.9,1.5,1c0.5,0.1,0.9-0.1,1.3-0.4c0.4-0.4,1.1-0.2,1.3,0.2
	c0,0.1,0.6,1.8,0.6,1.9c0,0,0.1-0.1,0.1-0.1c0.1-0.3,0.1-0.3,0.3-0.1c0.1,0.1,0.1,0.1,0.1,0.2c0,0.4-0.1,1.4,0,1.6l0.3-0.4
	c0.2,0.2,0.1,0.3,0.1,0.5c0,0.4-0.1,1.4-0.1,1.5c0.1-0.1,0.1-0.2,0.2-0.3c0.1-0.3,0.2-0.3,0.4-0.2l0.1,0c-0.1,0.5-0.3,1-0.2,1.5
	c0.1-0.2,0.2-0.3,0.3-0.5c0.1-0.2,0.3,1.3,0.3,1.5h0l0.3-0.5c0.1,0.1,0.3,0.2,0.4,0.4c0.2,0.5,0.5,1,0.8,1.4l0.1,0.1l1.9-1.2
	c0.4-0.2,0.7-0.5,0.9-0.9l0.3-0.4c0,0,0.1-0.1,0.1,0s0.1,0.1,0,0.1l0,0l-0.3,0.4c-0.3,0.4-0.6,0.7-1,0.9l-2.7,1.7c0,0,0,0,0,0l0,0
	c-1.3,0.9-2.6,1.8-3.9,2.7c-0.5,0.3-1,0.6-1.5,0.7c-0.5,0.1-1.1,0.1-1.5-0.3c-0.2-0.1-0.3-0.2-0.5-0.4c-0.1-0.1-0.3-0.2-0.4-0.2
	c-0.2-0.1-0.4,0-0.4,0.3c-0.7,0.1-1.2,0.4-1.4,1.1c0.2-0.1,0.4-0.1,0.6-0.2c0,0,0.1,0,0.1,0c0.1,0,0.2,0.1,0.2,0.1
	c0.1,0,0.3,0.1,0.4,0.2c0.2,0.1,0.4,0.2,0.6,0.3c0.1,0,0.3,0.1,0.4,0.1l-0.7,0.2c-0.4,0.1-0.8,0.2-1.1,0.4c-0.3,0.1-0.3,0.3-0.1,0.5
	c-0.5,0.8-0.6,1.5-0.2,1.8c0-0.1,0.1-0.2,0.1-0.3c0,0,0.1-0.1,0.1-0.1c0.1,0,0.1-0.1,0.2-0.1c0.2-0.2,0.4-0.3,0.6-0.4
	c0.3-0.1,0.6-0.2,0.8-0.4c0.2-0.2,0.4-0.4,0.6-0.5c0.2-0.1,0.4-0.2,0.6-0.3c0.2-0.1,0.3,0,0.2,0.2c-0.1,0.3-0.3,0.5-0.5,0.7
	c-0.1,0.1-0.2,0.3-0.3,0.4c-0.1,0.2-0.1,0.2,0.1,0.3c-0.2,0.9,0,1.6,0.5,1.9c-0.1-0.3,0.1-0.5,0.2-0.7c0.1-0.1,0.1-0.2,0.2-0.3
	c0.1-0.2,0.4-0.2,0.4-0.4c0-0.1,0.1-0.2,0.1-0.3c0.1-0.4,0.1-0.8,0.2-1.2c0.1-0.3,0.2-0.5,0.4-0.7c0.1-0.1,0.3-0.1,0.4-0.1
	c0.1,0.1,0.1,0.2,0.1,0.3c0,0.4,0,0.8,0,1.2c0,0.1,0,0.2,0,0.4c0.1-0.1,0.1-0.2,0.2-0.2c0.2-0.1,0.3-0.1,0.5-0.2
	c0.1-0.1,0.2-0.3,0.3-0.4c0.1-0.1,0.2-0.3,0.4-0.5c0.1,0.1,0.2,0.3,0.4,0.4c0.1-0.2,0-0.9,0.2-1c0.2-0.1,0.1,0.2,0.3,0.4
	c0-0.1,0.1-0.1,0.1-0.2c0.1-0.2,0.2-0.5,0.4-0.6c0,0,0.3,0.5,0.4,0.5c0.1-0.1,0.3-0.7,0.4-0.8c0.1-0.1,0.9,0.8,1.2,0.8
	c-0.1-0.1,0-0.3-0.1-0.4c-0.1-0.2,0.3-0.2,0.3-0.2c0.1,0,0.2,0.1,0.3,0.2c0-0.1,0-0.2,0-0.3c0.1-0.3,0.4-0.5,0.7-0.3
	c0.2,0.1,0.4,0.1,0.6,0.1c0,0-0.2-0.3-0.2-0.4c0.1,0,0.2,0,0.3,0.1c0.1,0,0.3,0,0.4,0.1c0.3,0.1,0.4,0.1,0.7-0.1
	c0.1-0.1,0.2-0.1,0.3-0.2c0.1-0.1,0.2,0,0.2,0.1c0,0.1,0,0.2,0,0.3c0.1-0.2,0.3-0.2,0.5-0.2c0.1,0,0.1,0,0.1-0.1
	c0.1-0.1,0.3-0.3,0.4-0.4c0.1-0.1,0.3-0.1,0.3,0c0,0,0,0,0,0c0.2,0.3,0.4,0.5,0.6,0.8c0.4,0.4,0.9,0.8,1.5,1
	c0.4,0.1,0.7,0.1,1.1,0.2c0.2,0,0.4,0.1,0.5,0.2c0.2,0.3,0.4,0.8,0.4,1.2c-0.6,0.1-1.1,0-1.7-0.1c-0.2-0.1-0.4-0.2-0.5-0.3
	c-0.1-0.1-0.3-0.2-0.4-0.2c-0.4-0.2-0.9-0.1-1.3,0.1c-0.3,0.2-0.6,0.4-1,0.6c-0.2,0.2-0.5,0.4-0.7,0.5c-0.2,0.1-0.4,0.2-0.6,0.2
	c-0.3-0.1-0.5-0.1-0.8-0.2c-0.2-0.1-0.4-0.3-0.4-0.6c-0.1-0.3,0-0.6,0.1-0.9c0-0.1,0.1-0.2,0.1-0.3l0,0c-0.2,0.2-0.4,0.3-0.6,0.5
	c-0.5,0.5-0.6,1-0.2,1.6c0,0.1,0.1,0.1,0.1,0.2c-0.9-0.1-1.7-0.5-2.2-1.2c0.2,1.3,0.9,2,2.1,2.3c-0.1,0.3-0.4,0.6-0.7,0.8
	c-0.3,0.2-0.7,0.2-1.1,0.2c0.4,0.3,0.8,0.4,1.3,0.3c0,0,0.1,0,0.1,0c0.1,0.1,0.2,0.1,0.3,0c0.2-0.1,0.3-0.2,0.5-0.3
	c0.1,0,0.1-0.1,0.3-0.1l-0.2,0.4c0.1,0,0.1,0,0.2,0c0.2-0.1,0.4,0,0.5,0.1c0.1,0,0.2,0.1,0.3,0.1c0.1,0,0.2,0,0.3,0
	c0.1,0,0.1,0.1,0.1,0.1c0.1,0.3,0.2,0.6,0.3,0.9c0.1,0.3,0.2,0.6,0.4,0.9c0.1,0.2,0.1,0.4,0.1,0.6c-0.1,0-0.1,0-0.2,0
	c-1.2,0-2.4-0.1-3.7-0.1c-0.3,0-0.6-0.1-0.9-0.4c-0.2-0.1-0.3-0.3-0.5-0.4c-0.2-0.1-0.3-0.3-0.3-0.5c-0.1-0.3-0.1-0.5-0.2-0.7
	c-0.1-0.3-0.2-0.3-0.5-0.1c-0.9-0.5-1.7-0.3-2.1,0.2c0.5,0,0.9,0.2,1.2,0.6l-0.2,0c-0.1,0-0.1,0-0.2,0c-0.2,0-0.2,0-0.2,0.2
	c-0.6,0-1.1,0.5-1.1,1.1l0.2-0.1c0.2-0.1,0.4-0.2,0.6,0.1c0,0,0,0,0.1,0c0,0,0.1,0.1,0.1,0.1c0,0-0.1,0.1-0.2,0.1
	c-0.4,0.1-0.7,0.3-1,0.7c-0.2,0.2-0.2,0.5-0.2,0.8c0.1-0.1,0.2-0.2,0.3-0.2c0.1-0.1,0.2-0.1,0.3,0c0.1,0,0.1,0,0.2,0
	c0.1,0,0.2,0,0.3,0c0.1,0,0.2,0,0.3,0.2c0,0.1,0.1,0.1,0.2,0.1c0.3,0,0.5,0.1,0.8,0c0.4-0.2,0.9-0.3,1.3-0.2c0.1,0,0.2,0.1,0.1,0.2
	c-0.1,0.1-0.2,0.1-0.3,0.2c-0.2,0.1-0.3,0.1-0.5,0.1c-0.3,0.1-0.5,0.3-0.6,0.6l0.3,0c-0.4,0.7-0.4,1.4,0.1,2c0-0.1,0-0.2,0-0.2
	c0-0.1,0.1-0.1,0.1-0.2c0.1-0.1,0.2-0.1,0.2-0.2c0.1-0.2,0.3-0.3,0.5-0.4c0.4-0.1,0.6-0.4,0.7-0.8c0.1-0.2,0.1-0.4,0.2-0.6
	c0.1-0.2,0.3-0.2,0.5-0.2c0.2,0,0.2,0.1,0.3,0.3c0.1,0.3,0.2,0.5,0.4,0.8c0.1,0.1,0.2,0.2,0.3,0.3c0.2-0.2,0.4-0.4,0.6-0.5
	c0.2-0.1,0.3-0.1,0.4,0.1c0.2,0.2,0.4,0.5,0.6,0.7c0.1,0.1,0.3,0.2,0.4,0.3c0.1-0.2,0.3-0.4,0.4-0.5c0.2-0.2,0.4-0.2,0.5,0
	s0.4,0.6,0.6,0.8c0.1,0.1,0.2,0.1,0.2,0.2c0-0.1,0.1-0.1,0.1-0.2c0.1-0.1,0.2-0.3,0.3-0.4c0.1-0.2,0.2-0.3,0.3-0.4
	c0.1-0.1,0.2-0.1,0.3,0.1c0.1,0.2,0.2,0.3,0.3,0.5c0.1,0,0.1-0.1,0.2-0.1c0.2,0,0.4-0.1,0.5-0.3c0.2-0.3,0.5-0.4,0.8-0.3
	c0.2,0,0.4,0,0.7,0c0.2,0,0.3-0.1,0.3-0.3c0-0.1,0-0.1,0.1-0.2c0.1-0.2,0.2-0.4,0.3-0.5c-0.1,0-0.2,0-0.2,0
	c-0.4,0.1-0.7,0.1-1.1,0.1c-0.5-0.1-1-0.6-1-1.1c0-0.4,0.1-0.8,0.2-1.2c0.5-1.1,1.4-1.7,2.7-1.6c0,0,0.1,0,0.1,0c0-0.2,0-0.3,0-0.5
	c0-0.1,0-0.2,0-0.3c0-0.1,0-0.1-0.1-0.1c-0.1-0.1-0.2-0.2,0.1-1.2c0.4-1.5,2.2-1.1,2.2-1.1c0.1,0,0.1,0.1,0.1,0.1
	c0,0.1-0.1,0.1-0.1,0.1c-0.3-0.1-0.6-0.1-0.9,0c-0.5,0.1-1,0.4-1.1,1c-0.3,0.9-0.2,0.9-0.1,1c0.1,0.1,0.1,0.2,0.1,0.3
	c0,0.1,0,0.2,0,0.3c-0.1,0.3,0,0.5,0.1,0.8c0.2,0.5,0.5,1,0.7,1.5c0.1,0.4,0.3,0.8,0.4,1.2c0,0.1,0,0.2-0.1,0.2
	c-0.2,0.1-0.5,0.2-0.7,0.4c-0.7,0.5-1,1.4-0.7,2.2c0,0,0,0.1,0.1,0.1c0-0.2,0.1-0.3,0.1-0.4s0.1-0.3,0.2-0.4c0.1,0,0.1,0.1,0.2,0.1
	c0.1,0,0.2,0.1,0.2,0.2c0.1,0.3,0.2,0.5,0.3,0.8c0.1,0.1,0.2,0.2,0.3,0.3c0-0.1,0-0.3,0-0.4c0-0.3,0.3-0.7,0.7-0.4
	c0.1,0.1,0.2,0.1,0.3,0.1c0.2,0.1,0.5,0,0.7-0.2c-0.1,0-0.1-0.1-0.2-0.1c-0.3-0.1-0.5-0.3-0.6-0.5c-0.1-0.2-0.1-0.4-0.1-0.6
	c0-0.2,0.2-0.3,0.4-0.2c0,0,0,0,0.1,0c0.1,0,0.3,0.1,0.4,0.2c0.3,0.2,0.6,0.3,1,0.2c0.3-0.1,0.6-0.3,0.8-0.5
	c0.1-0.1,0.3-0.3,0.4-0.4c0.1-0.1,0.1-0.1,0.2,0c0,0,0.1,0.1,0.1,0.1c0.1,0.3,0.2,0.6,0.3,0.9c0.1,0.6,0,1.1-0.5,1.5
	c-0.1,0.1-0.3,0.3-0.3,0.5c-0.1,0.2-0.1,0.3-0.2,0.5c-0.2,0.4-0.5,0.6-0.9,0.5c-0.3,0-0.5-0.1-0.8-0.2c-0.4-0.1-0.5,0-0.4,0.4
	c0,0,0,0,0,0c-0.4,0.1-0.7,0.3-0.9,0.6c-0.2,0.3-0.4,0.7-0.3,1.1c0.1-0.1,0.2-0.2,0.3-0.3c0.1-0.1,0.1-0.1,0.3,0c0.1,0,0.1,0,0.2,0
	c0.2-0.1,0.4-0.1,0.5,0c-0.1,0.2-0.2,0.4-0.3,0.5c-0.1,0.2-0.1,0.2,0,0.3c-0.4,0.6-0.3,1.1,0.1,1.5c0-0.1,0.1-0.2,0.1-0.3
	c0.1-0.1,0.3-0.2,0.4-0.3c0.2-0.1,0.3-0.1,0.3,0.2c0,0.3,0.1,0.7,0.3,0.9c0.1,0.1,0.3,0.3,0.4,0.4c0,0,0-0.1,0-0.1c0,0,0,0,0,0
	c0-0.4,0.1-0.8,0.5-1c0.2-0.2,0.4-0.5,0.4-0.7c0-0.6,0.3-1.1,0.7-1.5c0.1-0.1,0.2-0.1,0.3-0.1c0.1,0,0.1,0,0.2,0.1c0,0,0,0,0,0.1
	c0,0.1,0,0.3-0.1,0.4c0,0.4,0.2,0.7,0.5,0.8c0.3,0.1,0.4,0.2,0.4,0.5c0,0.2,0,0.3,0,0.6c0.1-0.1,0.3-0.2,0.4-0.3
	c0.3-0.1,0.3-0.4,0.4-0.7c0-0.3,0.1-0.6,0.1-1c0.1-0.3,0-0.6-0.3-0.7c-0.1,0-0.2-0.1-0.3-0.2c-0.1-0.1-0.2-0.2-0.2-0.3
	c0-0.4,0.1-0.7,0.5-0.8c0.2,0,0.4,0,0.5-0.1c0.1,0,0.2-0.1,0.3-0.2c0-0.1,0.1-0.2,0.2-0.3l0.2-0.1l-0.9-0.5v-0.1
	c0.1-0.1,0.1-0.1,0.2-0.1c0.2-0.1,0.4-0.1,0.6-0.2c0.2-0.1,0.4-0.1,0.4-0.4c0-0.1,0.1-0.1,0.1-0.1l0.3-0.3L216,67v-0.1
	c0.1-0.1,0.3-0.1,0.4-0.2c0.1,0,0.2-0.1,0.3-0.2c0.1-0.2,0.2-0.3,0.3-0.4c0,0,0.1,0,0.1-0.1c-0.3-0.2-0.6-0.3-0.8-0.4
	c-0.1-0.1-0.2-0.1,0-0.3c0.1-0.1,0.3-0.2,0.4-0.3c0.1,0,0.1-0.1,0.1-0.2c0-0.1,0.1-0.2,0.1-0.3c0.1-0.1,0.2-0.2,0.2-0.3
	c-0.3-0.1-0.5-0.1-0.8-0.3l0.4-0.2c0.1,0,0.2-0.1,0.4-0.1c0.1-0.1,0.2-0.3,0.3-0.4c0-0.1,0.1-0.1,0.1-0.2c-0.1,0-0.2,0-0.3,0
	c-0.3-0.1-0.6-0.2-0.8-0.4c-0.1-0.1-0.2-0.3-0.2-0.5c0-0.1,0-0.2,0-0.3c-0.1-0.1,0-0.2,0.1-0.3c0-0.1,0.1-0.1,0.2-0.2l-0.2,0
	c-0.4,0-0.8-0.4-0.8-0.8c0-0.1,0-0.3,0-0.4c0-0.1,0-0.2,0-0.4c0,0.1-0.1,0.1-0.1,0.1c-0.3,0.5-0.8,0.9-1.4,1.2
	c-0.5,0.2-1,0.4-1.6,0.1c-0.4-0.2-0.8-0.4-0.8-0.9c0-0.4,0-0.8,0-1.2c0-0.1,0-0.2,0.1-0.3c0.1-0.8,0.2-2.9-0.6-4.4l0,0
	c-0.4-0.8-0.8-1.5-1.2-2.3c-0.3-0.6-0.8-1.2-1.1-1.8c-0.2-0.3-0.1-0.6,0-0.9c0,0,0,0,0,0c0,0,0,0,0,0.1c0.2,0.3,1,0.8,1.8,0.3
	c-0.4-0.2-0.6-0.4-0.7-0.7c0-0.3,0-0.6,0.1-0.9c0.7,0.1,1.8,0,2.1-0.9c0,0-1.3,0.5-1.8-1.5c0-0.1,0-0.1,0-0.2c0.7,0,1.6-0.1,1.8-0.9
	c0,0-0.9,0.4-1.5-0.7c0.7-0.2,1.6-0.7,1.5-1.6c0.3,1.5,1.2,2.8,2.5,3.9c0.5,0.4,1,0.8,1.4,1.2c1,1.1,1.7,2.4,2,3.9
	c0,0.1,0,0.2,0,0.3c0,0-0.1,0-0.1-0.1c-0.5-0.7-1.3-1.2-2.1-1.3c-0.4-0.1-0.7-0.4-0.7-0.8c0-0.1,0-0.2,0-0.3c-0.1-0.3,0-0.5,0.1-0.8
	c0-0.1,0.1-0.1,0.1-0.2c-0.7,0.2-1,0.6-1,1.2c0,0.3,0.1,0.6,0.2,0.9c0,0.1,0.1,0.3,0.2,0.4c-0.4,0.2-0.8,0.4-0.9,0.9
	c-0.5,0-1-0.3-1.6-0.9c0,0,0,0,0,0.1c-0.1,0.5,0.1,1,0.5,1.3c0.1,0.1,0.2,0.1,0.3,0.2c0.1,0,0.1,0.1,0.1,0.2c0,0,0,0,0,0
	c-0.1,0.2-0.2,0.4-0.3,0.5c-0.4,0.8-0.2,1.7,0.4,2.3c0.1,0.1,0.2,0.2,0.3,0.2c0-0.1,0-0.1,0-0.2c-0.1-0.4-0.1-0.9,0-1.4
	c0.1-0.2,0.2-0.3,0.3-0.4c0.1-0.1,0.3-0.1,0.4,0c0.2,0.2,0.4,0.3,0.6,0.5c0.2,0.1,0.6,0.2,0.7,0s0.2-0.3,0.3-0.4
	c-0.2-0.2-0.4-0.4-0.5-0.6c-0.1-0.1-0.1-0.3,0-0.5c0.1-0.1,0.2-0.3,0.4-0.3c0.6-0.3,1.3-0.2,1.9,0.3c0.6,0.5,0.9,1.2,0.7,2
	c-0.2,0.9-0.7,1.8-1.5,2.3c-1.3,1-2.7,0.9-3.9-0.1c-0.4-0.4-0.8-0.8-1.1-1.3c0.2,1,0.3,2.1,0.2,3.1c0.1-0.1,0.3-0.1,0.5,0
	c0.4,0.1,0.8,0.3,1.2,0.3c1,0.2,2,0.2,3-0.1c0.9-0.3,1.7-0.8,2.1-1.6c0.4-0.6,0.7-1.3,0.9-2c0.3-1.1,0.4-2.2,0.2-3.4
	c-0.1-1.2-0.6-2.3-1.3-3.3c-0.9-1.2-2-2.2-3-3.3c-0.6-0.6-1.1-1.2-1.6-1.8c-0.4-0.6-0.6-1.2-0.6-1.9c0-0.5,0-0.9,0.1-1.4
	c0.1-0.6,0.3-1.1,0.6-1.7c0.2-0.4,0.5-0.7,0.9-1c0.3-0.3,0.6-0.5,1-0.6c0.2-0.1,0.5,0,0.6,0.2c0.2,0.2,0.2,0.5,0.1,0.7
	c-0.1,0.1-0.1,0.2-0.1,0.3c-0.3,0.6-0.4,1.2-0.3,1.8c0,0.3,0,0.5,0.1,0.8c0.1-0.1,0.3-0.2,0.3-0.3c0.7-0.5,0.1,0.4,0.1,0.5
	c-0.1,0.2-0.2,0.5-0.3,0.7c-0.2,0.6-0.1,1.2,0.4,1.7c0.1,0.1,0.3,0.2,0.4,0.3c0-0.2,0.1-0.5,0.3-0.6c0.2,0.4,0.5,0.8,1,0.8
	c-0.2-0.6-0.2-1.3,0.2-1.8c0.1-0.1,0.2-0.3,0.3-0.4c0.1-0.2,0.3-0.2,0.5,0c0.2,0.2,0.5,0.4,0.7,0.6c0.2,0.1,0.4,0.1,0.6,0
	c0.1-0.1,0.2-0.1,0.3-0.2c0.1,0,0.1-0.1,0.2-0.1l-0.1,0c-0.6-0.3-1.1-0.9-1-1.6c0-0.2,0.1-0.3,0.2-0.5c0.3-0.6,0.9-1,1.1-1.6
	c0.1-0.2,0.1-0.3,0.2-0.5c-0.2,0.1-0.3,0.2-0.5,0.3C220.5,38.4,219.6,38,219.1,37.4z M203.4,41.8c0-0.1,0-0.2,0.1-0.2
	c0.3-0.3,0.8-0.4,1.2-0.4c0.1,0,0.3,0,0.4,0c0.1,0,0.1,0.1,0.1,0.1c0,0.2,0,0.4,0,0.6l-1.4-0.1c-0.1,0-0.2,0-0.2,0
	C203.5,41.9,203.5,41.9,203.4,41.8L203.4,41.8z M205.1,43.4c-0.4,0.3-0.9,0.4-1.3,0.3c0,0-0.1,0-0.1-0.1c-0.1-0.2-0.1-0.4-0.2-0.6
	c0-0.1,0-0.1,0.1-0.2c0,0,0,0,0.1,0c0.5,0,1.1,0,1.6,0c0.1,0,0.2,0,0.3,0.1C205.4,43.1,205.3,43.3,205.1,43.4L205.1,43.4z
	 M204.8,39.4c0,0,0.3-0.5,1.4-0.5C206.3,38.9,206.1,40,204.8,39.4L204.8,39.4z"/>
<path fill="#00803D" d="M190.8,42.8c0,1.6-1,3.1-2.6,3.5C188.2,44.7,189.3,43.3,190.8,42.8z"/>
<path fill="#00803D" d="M185.7,42.8c1.6,0.5,2.6,1.9,2.6,3.5C186.7,45.9,185.7,44.5,185.7,42.8z"/>
<path fill="#00803D" d="M184.1,47.7c0.9-1.3,2.6-1.9,4.2-1.4C187.3,47.7,185.6,48.2,184.1,47.7z"/>
<path fill="#00803D" d="M188.3,50.7c-1-1.3-1-3.1,0-4.4C189.3,47.6,189.3,49.4,188.3,50.7z"/>
<path fill="#00803D" d="M192.4,47.7c-1.5,0.5-3.2,0-4.2-1.4C189.8,45.8,191.5,46.4,192.4,47.7z"/>
<path fill="#FFFFFF" d="M186.2,49.2c-1.4-1-0.9-1.7-0.5-1.9c0.4-0.2,0.8-0.3,1.2-0.4c1.4-0.5,1.6-0.3,1.4,1c0,0.4,0,0.8-0.1,1.2
	C188.1,49.5,187.5,50.1,186.2,49.2z"/>
<path fill="#12100B" d="M185.6,47.4c-0.2,0.2-0.3,0.5,0,0.9c0.2,0.2,0.5,0.3,0.8,0.5c0.3,0.3,0.5,0.5,0.8,0.6c0.5,0.2,0.7,0,0.8-0.2
	c-0.1,0.2-0.3,0.3-0.8,0.1c-0.2-0.1-0.3-0.5-0.7-0.7c-0.3-0.2-0.7-0.2-0.9-0.4C185.4,47.8,185.5,47.6,185.6,47.4z"/>
<path fill="#FFFFFF" d="M190.2,49.2c-1.4,1-1.9,0.3-2-0.1c0-0.4,0-0.8-0.1-1.2c-0.1-1.5,0.2-1.6,1.4-1c0.4,0.1,0.8,0.3,1.2,0.4
	S191.6,48.2,190.2,49.2z"/>
<path fill="#12100B" d="M188.4,49.2c0.1,0.2,0.3,0.4,0.8,0.2c0.2-0.1,0.4-0.4,0.8-0.6c0.3-0.2,0.7-0.3,0.8-0.5
	c0.3-0.4,0.2-0.7,0-0.8c0.1,0.1,0.2,0.4-0.1,0.8c-0.2,0.2-0.5,0.2-0.9,0.4c-0.3,0.3-0.5,0.6-0.7,0.7
	C188.7,49.5,188.5,49.3,188.4,49.2z"/>
<path fill="#FFFFFF" d="M191.6,45.3c0.5,1.6-0.3,1.9-0.7,1.8c-0.4-0.1-0.8-0.2-1.2-0.3c-1.4-0.4-1.4-0.7-0.5-1.7
	c0.3-0.3,0.5-0.7,0.8-1S191.1,43.8,191.6,45.3z"/>
<path fill="#12100B" d="M191,47.1c0.2-0.1,0.5-0.2,0.5-0.7c0-0.3-0.2-0.5-0.3-0.9c-0.1-0.4-0.1-0.7-0.3-0.9
	c-0.3-0.4-0.6-0.4-0.8-0.3c0.2-0.1,0.4-0.1,0.7,0.3c0.1,0.2,0,0.6,0.1,1c0.1,0.4,0.4,0.6,0.5,0.9C191.5,46.9,191.2,47.1,191,47.1z"
	/>
<path fill="#FFFFFF" d="M188.3,42.9c1.7,0,1.7,0.9,1.5,1.2c-0.2,0.3-0.5,0.7-0.7,1c-0.8,1.2-1.1,1.2-1.7,0c-0.2-0.3-0.5-0.7-0.7-1
	C186.5,43.8,186.7,42.9,188.3,42.9z"/>
<path fill="#12100B" d="M189.8,44c0-0.2,0-0.6-0.5-0.7c-0.2-0.1-0.6,0.1-1,0s-0.7-0.1-1,0c-0.5,0.1-0.5,0.4-0.5,0.7
	c0-0.2,0-0.5,0.5-0.6c0.2-0.1,0.5,0.2,1,0.2s0.7-0.2,1-0.2C189.8,43.6,189.8,43.8,189.8,44z"/>
<path fill="#FFFFFF" d="M184.9,45.3c0.5-1.6,1.4-1.4,1.6-1.1s0.5,0.6,0.8,1c0.9,1.1,0.8,1.4-0.5,1.7c-0.4,0.1-0.8,0.2-1.2,0.3
	C185.2,47.2,184.4,46.8,184.9,45.3z"/>
<path fill="#12100B" d="M186.5,44.2c-0.2-0.1-0.5-0.2-0.8,0.3c-0.1,0.2-0.1,0.6-0.3,0.9c-0.1,0.4-0.3,0.7-0.3,0.9
	c0,0.5,0.2,0.7,0.5,0.7c-0.2,0-0.4-0.2-0.4-0.7c0-0.3,0.3-0.5,0.5-0.9c0.1-0.4,0-0.8,0.1-1C186,44.1,186.3,44.1,186.5,44.2z"/>
<path fill="#FFFFFF" d="M188.2,44.5c0,0.3,0,0.5,0,0.8c0.1,0.9,0,1-0.9,0.7c-0.3-0.1-0.5-0.2-0.8-0.3c-0.2-0.1-0.5-0.6,0.4-1.2
	S188.2,44.2,188.2,44.5z"/>
<path fill="#12100B" d="M186.6,45.1c0.1-0.1,0.4-0.1,0.6-0.3s0.3-0.4,0.4-0.5c0.3-0.1,0.4,0,0.5,0.1c-0.1-0.2-0.3-0.3-0.5-0.2
	c0,0,0,0,0,0c-0.2,0.1-0.3,0.2-0.5,0.4C186.9,44.8,186.7,44.9,186.6,45.1c-0.2,0.1-0.2,0.3-0.1,0.5c0,0,0,0,0,0
	C186.4,45.5,186.4,45.3,186.6,45.1z"/>
<path fill="#FFFFFF" d="M189.9,45.7c-0.2,0.1-0.5,0.2-0.8,0.3c-0.8,0.4-1,0.3-0.9-0.7c0-0.3,0-0.5,0-0.8s0.4-0.7,1.3,0
	S190.2,45.6,189.9,45.7z"/>
<path fill="#12100B" d="M188.9,44.3c0.2,0.1,0.2,0.3,0.5,0.5c0.2,0.2,0.5,0.1,0.6,0.3c0.2,0.3,0.1,0.4,0.1,0.5
	c0.1-0.1,0.2-0.4,0-0.5c0,0,0,0,0,0c-0.1-0.1-0.3-0.2-0.5-0.4S189,44.3,188.9,44.3c-0.1-0.2-0.4-0.1-0.5,0.1c0,0,0,0,0,0
	C188.4,44.3,188.5,44.2,188.9,44.3z"/>
<path fill="#FFFFFF" d="M189.4,47.7c-0.2-0.2-0.3-0.4-0.5-0.6c-0.6-0.7-0.6-0.9,0.4-1.1c0.3-0.1,0.5-0.2,0.8-0.2
	c0.3-0.1,0.8,0.2,0.4,1.2C190.1,48,189.6,47.9,189.4,47.7z"/>
<path fill="#12100B" d="M190.3,46.2c0,0.2-0.2,0.3-0.3,0.6s0,0.5-0.1,0.6c-0.2,0.3-0.4,0.3-0.5,0.2c0.2,0.1,0.4,0,0.5-0.2
	c0,0,0,0,0,0c0.1-0.1,0.1-0.4,0.2-0.6S190.4,46.4,190.3,46.2c0.1-0.2,0-0.4-0.2-0.4c0,0,0,0-0.1,0C190.2,45.8,190.4,45.9,190.3,46.2
	z"/>
<path fill="#FFFFFF" d="M187.3,47.7c0.1-0.2,0.3-0.4,0.4-0.7c0.4-0.8,0.6-0.8,1.1,0c0.1,0.2,0.3,0.4,0.4,0.7c0.1,0.2,0.1,0.8-1,0.8
	C187.2,48.5,187.1,48,187.3,47.7z"/>
<path fill="#12100B" d="M188.9,48.2c-0.2,0-0.4-0.1-0.6-0.1s-0.5,0.2-0.6,0.1c-0.3-0.1-0.4-0.3-0.4-0.4c0,0.2,0.1,0.4,0.3,0.4
	c0,0,0,0,0,0c0.2,0,0.4,0,0.6,0S188.8,48.3,188.9,48.2c0.2,0.1,0.4-0.1,0.4-0.3c0,0,0,0,0-0.1C189.3,47.9,189.2,48.1,188.9,48.2z"/>
<path fill="#FFFFFF" d="M186.5,45.8c0.3,0.1,0.5,0.1,0.8,0.2c0.9,0.2,1,0.4,0.4,1.1c-0.2,0.2-0.3,0.4-0.5,0.6
	c-0.2,0.2-0.7,0.3-1.1-0.7C185.8,45.9,186.3,45.7,186.5,45.8z"/>
<path fill="#12100B" d="M186.6,47.5c-0.1-0.1,0-0.4-0.1-0.6s-0.3-0.4-0.3-0.6c0-0.3,0.1-0.4,0.2-0.5c-0.2,0-0.3,0.2-0.3,0.4
	c0,0,0,0,0,0c0,0.2,0.2,0.3,0.2,0.6C186.5,47.2,186.5,47.4,186.6,47.5c0,0.2,0.2,0.3,0.4,0.2c0,0,0,0,0,0
	C187,47.8,186.8,47.8,186.6,47.5z"/>
<path fill="#FDC300" d="M188.7,45.7c0,0.1,0,0.1,0,0.2s0.1,0,0.2,0c0-0.1,0-0.1,0-0.2c0,0,0,0-0.1,0
	C188.7,45.7,188.7,45.7,188.7,45.7z"/>
<path fill="#FDC300" d="M187.5,46.4c0,0.1,0,0.1,0,0.2c0.1,0,0.1,0,0.2,0c0-0.1,0-0.1,0-0.2c0,0,0,0-0.1,0
	C187.5,46.3,187.5,46.3,187.5,46.4z"/>
<path fill="#FDC300" d="M187.6,46.6c0,0.1,0,0.1,0,0.2c0.1,0,0.1,0,0.2,0c0-0.1,0-0.1,0-0.2c0,0,0,0-0.1,0
	C187.6,46.6,187.6,46.6,187.6,46.6z"/>
<path fill="#FDC300" d="M187.7,46.8c0,0.1,0,0.1,0,0.2c0.1,0,0.1,0,0.2,0c0-0.1,0-0.1,0-0.2c0,0,0,0-0.1,0
	C187.8,46.7,187.8,46.8,187.7,46.8z"/>
<path fill="#FDC300" d="M188,46.9c0,0.1,0,0.1,0,0.2s0.1,0,0.2,0c0-0.1,0-0.1,0-0.2c0,0,0,0-0.1,0C188,46.9,188,46.9,188,46.9z"/>
<path fill="#FDC300" d="M188.2,47c0,0.1,0,0.1,0,0.2c0.1,0,0.1,0,0.2,0c0-0.1,0-0.1,0-0.2c0,0,0,0-0.1,0
	C188.3,46.9,188.2,46.9,188.2,47z"/>
<path fill="#FDC300" d="M188.5,46.9c0,0.1,0,0.1,0,0.2s0.1,0,0.2,0c0-0.1,0-0.1,0-0.2c0,0,0,0-0.1,0
	C188.5,46.9,188.5,46.9,188.5,46.9z"/>
<path fill="#FDC300" d="M188.7,46.8c0,0.1,0,0.1,0,0.2c0.1,0,0.1,0,0.2,0c0-0.1,0-0.1,0-0.2c0,0,0,0-0.1,0
	C188.7,46.7,188.7,46.8,188.7,46.8z"/>
<path fill="#FDC300" d="M188.8,46.6c0,0.1,0,0.1,0,0.2c0.1,0,0.1,0,0.2,0s0-0.1,0-0.2c0,0,0,0-0.1,0
	C188.9,46.6,188.8,46.6,188.8,46.6z"/>
<path fill="#FDC300" d="M188.9,46.4c0,0.1,0,0.1,0,0.2s0.1,0,0.2,0c0-0.1,0-0.1,0-0.2c0,0,0,0-0.1,0C189,46.3,188.9,46.3,188.9,46.4
	z"/>
<path fill="#FDC300" d="M188.9,46.1c0,0.1,0,0.1,0,0.2c0.1,0,0.1,0,0.2,0c0-0.1,0-0.1,0-0.2c0,0,0,0-0.1,0
	C189,46.1,188.9,46.1,188.9,46.1z"/>
<path fill="#FDC300" d="M188.8,45.9c0,0.1,0,0.1,0,0.2c0.1,0,0.1,0,0.2,0c0-0.1,0-0.1,0-0.2c0,0,0,0-0.1,0
	C188.9,45.8,188.9,45.8,188.8,45.9z"/>
<path fill="#FDC300" d="M188.5,45.6c0,0.1,0,0.1,0,0.2c0.1,0,0.1,0,0.2,0c0-0.1,0-0.1,0-0.2c0,0,0,0-0.1,0
	C188.5,45.5,188.5,45.5,188.5,45.6z"/>
<path fill="#FDC300" d="M187.5,46.1c0,0.1,0,0.1,0,0.2c0.1,0,0.1,0,0.2,0c0-0.1,0-0.1,0-0.2c0,0,0,0-0.1,0
	C187.5,46.1,187.5,46.1,187.5,46.1z"/>
<path fill="#FDC300" d="M187.5,45.9c0,0.1,0,0.1,0,0.2c0.1,0,0.1,0,0.2,0c0-0.1,0-0.1,0-0.2c0,0,0,0-0.1,0
	C187.6,45.8,187.6,45.8,187.5,45.9z"/>
<path fill="#FDC300" d="M187.7,45.7c0,0.1,0,0.1,0,0.2s0.1,0,0.2,0c0-0.1,0-0.1,0-0.2c0,0,0,0-0.1,0
	C187.8,45.6,187.7,45.7,187.7,45.7z"/>
<path fill="#FDC300" d="M187.9,45.6c0,0.1,0,0.1,0,0.2c0.1,0,0.1,0,0.2,0c0-0.1,0-0.1,0-0.2c0,0,0,0-0.1,0
	C188,45.5,188,45.5,187.9,45.6z"/>
<path fill="#FDC300" d="M188.2,45.5c0,0.1,0,0.1,0,0.2c0.1,0,0.1,0,0.2,0c0-0.1,0-0.1,0-0.2c0,0,0,0-0.1,0
	C188.3,45.5,188.2,45.5,188.2,45.5z"/>
<path fill="#FDC300" d="M187.8,46c-0.2,0.3-0.1,0.6,0.1,0.8c0.3,0.2,0.6,0.1,0.8-0.1c0.2-0.3,0.1-0.6-0.1-0.8
	C188.4,45.6,188,45.7,187.8,46C187.8,46,187.8,46,187.8,46L187.8,46z"/>
<path fill="#FDC300" d="M188,46.1c-0.1,0.1-0.1,0.3,0.1,0.4c0.1,0.1,0.3,0.1,0.4-0.1c0.1-0.1,0.1-0.3-0.1-0.4
	C188.3,46,188.1,46,188,46.1C188,46.1,188,46.1,188,46.1z"/>
<path fill="#FFFFFF" d="M189.2,26.2l0,1c-0.4-0.1-0.9-0.1-1.3-0.2c-0.6,0-0.8,0.2-0.8,0.6v0.2c0,0.3,0.1,0.4,0.6,0.6l0.8,0.3
	c0.8,0.3,1.1,0.7,1.1,1.6v0.2c0,1.1-0.6,1.7-2,1.7c-0.5,0-0.9-0.1-1.4-0.2v-1c0.4,0.1,0.9,0.2,1.3,0.2c0.7,0,1-0.2,1-0.6v-0.2
	c0-0.3-0.1-0.5-0.5-0.6l-0.9-0.3c-0.9-0.3-1.2-0.7-1.2-1.6v-0.1c0-1.1,0.5-1.6,1.8-1.6C188.2,26.1,188.7,26.1,189.2,26.2z"/>
<path fill="#FFFFFF" d="M190.3,32v-5.9h1.1V32H190.3z"/>
<path fill="#FFFFFF" d="M194.7,27.1V32h-1.1v-4.9H192v-1h4.3v1H194.7L194.7,27.1z"/>
<path fill="#FFFFFF" d="M201.3,32l-1-4.7l-1,4.7H198l-1.3-5.9h1.1l0.8,4.8l1-4.8h1.3l1,4.7l0.8-4.7h1.1l-1.3,5.9H201.3L201.3,32z"/>
<path fill="#FFFFFF" d="M205.6,27.1v1.4h2v1h-2V31h2.2v1h-3.3v-5.9h3.3v1H205.6z"/>
<path fill="#FFFFFF" d="M211.9,31v1h-3.3v-5.9h1.1V31C209.8,31,211.9,31,211.9,31z"/>
<path fill="#FFFFFF" d="M215.9,31v1h-3.3v-5.9h1.1V31H215.9L215.9,31z"/>
<path fill="#FFFFFF" d="M221,26.2l0,1c-0.4-0.1-0.8-0.1-1.2-0.1c-0.8,0-1,0.2-1,1v2.2c0,0.7,0.3,1,1,1c0.4,0,0.8-0.1,1.2-0.2l0,1
	c-0.4,0.1-0.9,0.1-1.3,0.2c-1.5,0-2-0.6-2-1.9v-2.3c0-1.3,0.5-1.9,2-1.9C220.1,26.1,220.6,26.1,221,26.2z"/>
<path fill="#FFFFFF" d="M225.1,26.2l0,1c-0.4-0.1-0.8-0.1-1.2-0.1c-0.8,0-1,0.2-1,1v2.2c0,0.7,0.3,1,1,1c0.4,0,0.8-0.1,1.2-0.2l0,1
	c-0.4,0.1-0.9,0.1-1.3,0.2c-1.5,0-2-0.6-2-1.9v-2.3c0-1.3,0.5-1.9,2-1.9C224.2,26.1,224.6,26.1,225.1,26.2z"/>
</svg>
