<svg xmlns="http://www.w3.org/2000/svg" viewBox="0 0 210 32.59"><title>sitwellcc-logotype</title><path fill="#fff" d="M17 .77L16.95 6a46.88 46.88 0 0 0-7.06-.82c-3 0-4.14 1.2-4.14 3.36v1c0 1.73.53 2.4 3 3.22l4.24 1.4c4.46 1.5 6.14 3.74 6.14 8.6v.9c0 5.76-3 8.93-10.94 8.93a42.86 42.86 0 0 1-7.4-1v-5.34A35.6 35.6 0 0 0 8 27.32c4 0 5.4-1.25 5.4-3.46V22.6c0-1.67-.68-2.53-2.55-3.16l-4.6-1.53C1.57 16.38 0 14.3 0 9.37v-.48C0 3.18 2.88 0 9.75 0A49.08 49.08 0 0 1 17 .77zM23.14 32V.58h5.76V32h-5.76zM46.9 5.86V32h-5.72V5.86h-8.64V.58h23v5.28H46.9zM82.23 32L76.9 6.77 71.57 32H64.5L57.66.58h6l4.56 25.54L73.5.58h6.76l5.28 25.5L90 .57h6L89.28 32h-7.05zM105.26 5.86v7.58h10.8v5.23h-10.8v8.06H117V32H99.5V.58H117v5.28h-11.74zM139.44 26.83V32h-17.52V.58h5.76v26.25h11.76zM160.56 26.83V32H143V.58h5.76v26.25h11.76zM188.3.82L188.2 6a38.65 38.65 0 0 0-6.52-.77c-4.08 0-5.42 1.3-5.42 5.18V22.2c0 3.84 1.4 5.14 5.42 5.14a34.1 34.1 0 0 0 6.53-.86l.1 5.28a43.83 43.83 0 0 1-7.2.86c-7.86 0-10.6-3.36-10.6-10V10c0-6.77 2.83-10 10.6-10a49.3 49.3 0 0 1 7.2.82zM210 .82L209.9 6a38.65 38.65 0 0 0-6.53-.77c-4.08 0-5.42 1.3-5.42 5.18V22.2c0 3.84 1.4 5.14 5.42 5.14a34.1 34.1 0 0 0 6.53-.86l.1 5.28a43.83 43.83 0 0 1-7.2.86c-7.87 0-10.6-3.36-10.6-10V10c0-6.77 2.82-10 10.6-10a49.3 49.3 0 0 1 7.2.82z"/></svg>