<svg xmlns="http://www.w3.org/2000/svg" viewBox="0 0 44.5 42.52"><title>sitwellcc-rose</title><path fill="#00803d" d="M36.2 0a18.5 18.5 0 0 1-3.74 11.85 18.5 18.5 0 0 1-10.12 7.2A18.5 18.5 0 0 1 26.07 7.2 18.5 18.5 0 0 1 36.2 0zM8.66.1a18.5 18.5 0 0 1 10.12 7.2 18.5 18.5 0 0 1 3.72 11.86A18.5 18.5 0 0 1 12.38 12 18.5 18.5 0 0 1 8.66.1zM0 26.22a18.5 18.5 0 0 1 10-7.4 18.5 18.5 0 0 1 12.42.12 18.5 18.5 0 0 1-10 7.4A18.5 18.5 0 0 1 0 26.22zM22.44 42.52a18.5 18.5 0 0 1-4-11.78 18.5 18.5 0 0 1 4-11.77 18.5 18.5 0 0 1 4 11.77 18.5 18.5 0 0 1-4 11.78zM44.5 26.36a18.5 18.5 0 0 1-12.42.12 18.5 18.5 0 0 1-10-7.4A18.5 18.5 0 0 1 34.52 19a18.5 18.5 0 0 1 9.98 7.36z"/><path fill="#fff" d="M11.15 34.17c-7.3-5.3-4.87-9.17-2.9-10.1s4.14-1.53 6.2-2.3c7.3-2.93 8.36-1.7 7.6 5.5-.1 2.2 0 4.44-.28 6.6s-3.5 5.47-10.62.3z"/><path fill="#12100b" d="M8.13 24.64c-.87 1-1.68 2.5.14 4.63.86 1.06 2.62 1.5 4.4 2.9s2.83 2.8 4.1 3.28c2.6 1.08 3.76-.15 4.4-1.2-.5.87-1.6 1.85-4.18.77-1.3-.5-1.78-2.5-3.64-3.76S9.46 30 8.6 28.93c-1.83-2.12-1.2-3.45-.47-4.3z"/><path fill="#fff" d="M33 34.22c-7.3 5.3-10.27 1.78-10.5-.37s-.18-4.4-.27-6.6c-.53-7.84 1-8.46 7.58-5.5 2.08.75 4.2 1.4 6.2 2.25s4.12 5.05-3 10.22z"/><path fill="#12100b" d="M23 34.15c.7 1.14 1.87 2.37 4.45 1.3 1.28-.5 2.25-2 4.1-3.3s3.55-1.83 4.4-2.9c1.83-2.1 1-3.6.22-4.54.68.77 1.28 2.1-.55 4.23-.86 1.06-2.92.9-4.7 2.3s-2.42 3.3-3.7 3.8c-2.57 1.08-3.64.08-4.22-.88z"/><path fill="#fff" d="M40.32 13.63c2.8 8.6-1.48 10.32-3.6 9.87s-4.24-1.2-6.36-1.78c-7.62-1.92-7.75-3.54-2.9-8.9 1.38-1.74 2.65-3.58 4.1-5.2s6.04-2.35 8.76 6z"/><path fill="#12100b" d="M37.16 23.12c1.3-.32 2.84-1 2.6-3.83-.06-1.38-1.22-2.78-1.85-4.93s-.63-3.93-1.38-5.08c-1.45-2.4-3.12-2.1-4.26-1.6.93-.42 2.4-.57 3.84 1.82.75 1.15 0 3.06.73 5.18s2.4 3.33 2.48 4.7c.23 2.77-1.04 3.47-2.14 3.72z"/><path fill="#fff" d="M22.53.6c9 0 9.36 4.6 8.28 6.46s-2.43 3.67-3.65 5.5c-4.18 6.66-5.76 6.27-9.37 0-1.22-1.83-2.58-3.6-3.67-5.5S13.75.6 22.54.6z"/><path fill="#12100b" d="M30.58 6.52c.1-1.34-.12-3-2.84-3.66-1.32-.36-3 .32-5.26.25s-3.94-.6-5.26-.24c-2.72.64-2.94 2.33-2.84 3.56-.1-1 .2-2.45 2.92-3.1 1.32-.35 2.9 1 5.15.92s3.9-1.24 5.23-.9c2.72.66 3 2.06 2.9 3.18z"/><path fill="#fff" d="M4.54 13.2c2.8-8.6 7.26-7.48 8.7-5.87s2.74 3.46 4.1 5.2c5 6 4.2 7.4-2.88 8.9-2.12.6-4.23 1.34-6.37 1.8S1.8 21.55 4.53 13.2z"/><path fill="#12100b" d="M12.68 7.38c-1.24-.5-2.9-.82-4.36 1.57-.75 1.15-.63 3-1.4 5.08s-1.78 3.56-1.85 4.92c-.23 2.8 1.3 3.52 2.5 3.8-1-.22-2.27-.95-2-3.74.03-1.35 1.8-2.44 2.43-4.6s0-4.1.75-5.26c1.44-2.4 2.9-2.2 3.93-1.76z"/><path fill="#fff" d="M22 8.92c.15 1.42.12 2.88.17 4.32.5 4.7-.18 5.52-5 3.6-1.35-.5-2.75-.92-4.06-1.5s-2.88-3.14 1.9-6.6 6.85-1.23 7 .18z"/><path fill="#12100b" d="M13.38 12.17c.56-.7 2-.63 3.12-1.53S18 8.5 18.87 8.17c1.7-.7 2.4-.06 2.74.5a2 2 0 0 0-2.86-.78c-.84.3-1.47 1.32-2.7 2.14s-2.3 1.2-2.87 1.9a2 2 0 0 0-.1 3c-.48-.52-.88-1.4.3-2.77z"/><path fill="#fff" d="M31.32 15.37c-1.3.58-2.7 1-4.06 1.5-4.32 1.93-5.3 1.53-5-3.6.06-1.44 0-2.9.18-4.32s2.1-3.72 6.87-.24 3.32 6.1 2.02 6.67z"/><path fill="#12100b" d="M25.57 8.17c.84.32 1.2 1.67 2.42 2.5s2.5.8 3.06 1.5c1.2 1.38.8 2.25.36 2.75a2 2 0 0 0-.14-3c-.56-.7-1.72-1-2.88-1.9s-1.84-1.8-2.68-2.12a2 2 0 0 0-2.9.85c.37-.63 1.07-1.28 2.75-.58z"/><path fill="#fff" d="M28.4 26.1c-1-1.05-1.78-2.25-2.67-3.4-3.17-3.5-3.1-4.56 1.9-5.82 1.38-.4 2.76-.87 4.15-1.17s4.18.85 2.35 6.47-4.77 5-5.72 3.94z"/><path fill="#12100b" d="M33.47 18.4c0 .9-1.2 1.67-1.62 3.08s0 2.64-.47 3.4c-1 1.55-1.9 1.45-2.5 1.18a2 2 0 0 0 2.78-1c.5-.75.4-1.94.9-3.32s1.18-2.33 1.23-3.22A2 2 0 0 0 32.06 16c.72.13 1.55.6 1.4 2.4z"/><path fill="#fff" d="M17 26.47c.7-1.24 1.6-2.4 2.4-3.6 2.36-4.1 3.4-4.36 6.13 0 .8 1.2 1.68 2.36 2.4 3.6s.5 4.24-5.4 4.24c-5.78 0-6.25-3-5.53-4.23z"/><path fill="#12100b" d="M25.87 28.9c-.86.24-2-.63-3.42-.6s-2.5.84-3.37.6c-1.78-.4-2-1.35-1.9-2A2 2 0 0 0 19 29.23c.86.23 2-.2 3.44-.16s2.58.4 3.44.16a2 2 0 0 0 1.86-2.4c.1.74-.1 1.67-1.87 2.1z"/><path fill="#fff" d="M13.06 15.9c1.4.3 2.78.8 4.16 1.18 4.63 1 5.2 1.88 1.9 5.83-.9 1.14-1.74 2.34-2.7 3.4s-3.87 1.78-5.7-3.84.95-6.85 2.34-6.55z"/><path fill="#12100b" d="M13.48 25.1c-.5-.74 0-2.04-.5-3.43s-1.55-2.13-1.6-3c-.15-1.82.68-2.3 1.33-2.44a2 2 0 0 0-1.63 2.5c0 .88.8 1.8 1.22 3.2s.4 2.58.9 3.33a2 2 0 0 0 2.85 1c-.67.3-1.62.4-2.57-1.15z"/><path fill="#fcc200" d="M24.58 15.55a.66.66 0 1 0 .6-.27.66.66 0 0 0-.6.27zM18.06 19.18a.66.66 0 1 0 .6-.27.66.66 0 0 0-.6.28zM18.6 20.4a.66.66 0 1 0 .6-.27.66.66 0 0 0-.6.27zM19.5 21.44a.66.66 0 1 0 .6-.27.66.66 0 0 0-.6.27zM20.8 22.06a.66.66 0 1 0 .6-.27.66.66 0 0 0-.6.26zM22.1 22.3a.66.66 0 1 0 .6-.28.66.66 0 0 0-.6.27zM23.4 22.06a.66.66 0 1 0 .6-.27.66.66 0 0 0-.6.26zM24.46 21.36a.66.66 0 1 0 .6-.27.66.66 0 0 0-.6.26zM25.28 20.4a.66.66 0 1 0 .6-.27.66.66 0 0 0-.6.27zM25.78 19.05a.66.66 0 1 0 .6-.27.66.66 0 0 0-.6.27zM25.75 17.7a.66.66 0 1 0 .6-.26.66.66 0 0 0-.6.27zM25.4 16.48a.66.66 0 1 0 .6-.27.66.66 0 0 0-.6.28zM23.5 14.76a.66.66 0 1 0 .6-.27.66.66 0 0 0-.6.26zM18 17.82a.66.66 0 1 0 .6-.27.66.66 0 0 0-.6.27zM18.5 16.5a.66.66 0 1 0 .6-.27.66.66 0 0 0-.6.27zM19.3 15.45a.66.66 0 1 0 .6-.27.66.66 0 0 0-.6.27zM20.64 14.74a.66.66 0 1 0 .6-.27.66.66 0 0 0-.6.27zM22.1 14.53a.66.66 0 1 0 .6-.27.66.66 0 0 0-.6.27zM19.9 16.95a3.14 3.14 0 1 0 4.4-.7 3.14 3.14 0 0 0-4.4.7zM21.2 17.9a1.54 1.54 0 1 0 2.16-.35 1.54 1.54 0 0 0-2.16.34z"/></svg>