<svg xmlns="http://www.w3.org/2000/svg" xmlns:xlink="http://www.w3.org/1999/xlink" viewBox="170.5 10.4 70 79.2" enable-background="new 170.5 10.4 70 79.2"><title>sitwellcc-crest</title><defs><path id="a" d="M240.6 29.9c-9.4-2.9-9.5-14.2-9.5-14.2-12.1.4-18.9-5.2-25.5-5.2s-13.4 5.6-25.5 5.2c0 0-.2 11.3-9.5 14.2 0 0 4.4 8.6 3.1 17.7s1.1 27.5 31.9 42c30.8-14.4 33.2-32.8 31.9-42-1.4-9.1 3.1-17.7 3.1-17.7z"/></defs><clipPath id="b"><use xlink:href="#a" overflow="visible"/></clipPath><g clip-path="url(#b)"><path fill="#00803D" d="M0 10.4h285v15.8H0z"/><path fill="#FDC300" d="M0 26.2h285V42H0z"/><path fill="#00803D" d="M0 42.1h285v15.8H0z"/><path fill="#FDC300" d="M0 57.9h285v15.8H0z"/><path fill="#00803D" d="M0 73.8h285v15.8H0z"/></g><path fill="#1D1D1B" stroke="#1D1D1B" stroke-width=".5" stroke-miterlimit="10" d="M235.2 33c-7.9-2.5-8.1-12.1-8.1-12.1-10.2.3-16-4.4-21.5-4.4-5.6 0-11.3 4.7-21.5 4.4 0 0-.2 9.6-8.1 12.1 0 0 3.7 7.3 2.7 15-1.1 7.7.9 23.3 27 35.5 26.1-12.2 28.1-27.8 27-35.5s2.5-15 2.5-15z"/><path fill="#fff" d="M219.1 37.4c-.6-.7-.6-1.4-.6-2.3 0-.3-.6-1.6-.4-.5.1.6-.5.9-1 1.1-.4.2-.8.2-1.1.3-1 .1-1.9.5-2.5 1.3-.6.8-1 1.8-1.1 2.8-.1.8-.1 1.7.1 2.5 0 0-.8.8-1.9-.3.6-.4 1.7-1.2 1.3-2.2 0 0-.4.9-1.6.4.4-.5 1.3-1.7.6-2.5 0 0-.2 1.1-1.7.8.1-.5.4-1.8-.4-2.2 0 0 .3 1-1.1 1.3 0-.5 0-.9-.5-1.2 0 0 .2.9-1 1.1-.2 0-.4 0-.5.1h-.1c-.3.1-.7.2-1 .4-.5.3-1 .5-1.6.5-.1 0-.2 0-.4 0-.1 0-.3.1-.2.3 0 0 0 .1 0 .1.1.2.1.3.1.5 0 .4 0 .8 0 1.2 0 .1 0 .2.1.2s.2.1.3.2c.2.2.2.4.3.7-.4 0-.8-.1-1.2-.3-.2-.1-.3-.3-.2-.5 0-.6.4-.4.3-.2 0 0 .3-.2-.1-.4s-.7.4-.4.8c-.1-.2-.2-.4-.2-.6 0-.3 0-.6 0-.9-.2 0-.4.2-.5.4-.1.3-.2.6-.2.9 0 .5.2 1 .6 1.4l-.5.1c1.2.7 2.2.5 2.6.4 0 .2-.1.4-.1.6l-.3-.2c.1.7 0 .8-.4 1.3.1 0 .3 0 .4-.1.1-.1.3 0 .4.1.1 0 .1.1.2.1.4 0 .8 0 1.3-.1.3 0 .6-.1.9-.1.2 0 .3 0 .2.2 0 .3-.2.5-.5.6-.2.1-.4.1-.5.1-.4 0-.9 0-1.3.2-.5.2-.9.4-1.4.5-.1 0-.2 0-.2 0-1.4-.7-2.5-2-3.1-3.5-.3-.8-.7-1.5-1.3-2.1-.5-.6-1.2-1.1-1.8-1.6-.5-.4-.6-.6-.4-1.2.1-.4.1-.7.1-1.1 0-.1 0-.2-.1-.3-.1-.2-.2-.3-.2-.5 0-.1-.1-.2-.1-.2-.3-.5-.8-.9-1.3-.8.3.4.6.8.5 1.4-.2 0-.3 0-.3.2-.2-.2-.4-.4-.6-.5-.3-.1-.5-.2-.8-.3-.4-.1-.9.1-1.2.5.7.2 1 .4 1.1.7-.1.1-.1.1-.3 0-.2-.1-.3-.1-.4.1 0 0-.1.1-.2.1-.4 0-.8.1-1.1.3-.2.2-.4.4-.5.7.2-.1.3-.1.4-.1s.3-.1.4.1c0 0 .1.1.2.1s.2 0 .3 0c.1 0 .2.1.2.2s.1.1.1.1c.3.1.5.2.8.2.3-.1.6.1.7.4 0 .1 0 .1 0 .2-.1.2-.3.3-.6.3-.1 0-.2 0-.3 0-.3.1-.5.3-.5.6-.5.2-.9.1-1.4 0 0 0 0 0 0 .1 0 0 0 0 0 .1.3.6.9.9 1.5 1 .5.1.9-.1 1.3-.4.4-.4 1.1-.2 1.3.2 0 .1.6 1.8.6 1.9 0 0 .1-.1.1-.1.1-.3.1-.3.3-.1.1.1.1.1.1.2 0 .4-.1 1.4 0 1.6l.3-.4c.2.2.1.3.1.5 0 .4-.1 1.4-.1 1.5.1-.1.1-.2.2-.3.1-.3.2-.3.4-.2h.1c-.1.5-.3 1-.2 1.5.1-.2.2-.3.3-.5.1-.2.3 1.3.3 1.5l.3-.5c.1.1.3.2.4.4.2.5.5 1 .8 1.4l.1.1 1.9-1.2c.4-.2.7-.5.9-.9l.3-.4s.1-.1.1 0 .1.1 0 .1l-.3.4c-.3.4-.6.7-1 .9l-2.7 1.7c-1.3.9-2.6 1.8-3.9 2.7-.5.3-1 .6-1.5.7-.5.1-1.1.1-1.5-.3-.2-.1-.3-.2-.5-.4-.1-.1-.3-.2-.4-.2-.2-.1-.4 0-.4.3-.7.1-1.2.4-1.4 1.1.2-.1.4-.1.6-.2 0 0 .1 0 .1 0 .1 0 .2.1.2.1.1 0 .3.1.4.2.2.1.4.2.6.3.1 0 .3.1.4.1l-.7.2c-.4.1-.8.2-1.1.4-.3.1-.3.3-.1.5-.5.8-.6 1.5-.2 1.8 0-.1.1-.2.1-.3 0 0 .1-.1.1-.1.1 0 .1-.1.2-.1.2-.2.4-.3.6-.4.3-.1.6-.2.8-.4.2-.2.4-.4.6-.5.2-.1.4-.2.6-.3.2-.1.3 0 .2.2-.1.3-.3.5-.5.7-.1.1-.2.3-.3.4-.1.2-.1.2.1.3-.2.9 0 1.6.5 1.9-.1-.3.1-.5.2-.7.1-.1.1-.2.2-.3.1-.2.4-.2.4-.4 0-.1.1-.2.1-.3.1-.4.1-.8.2-1.2.1-.3.2-.5.4-.7.1-.1.3-.1.4-.1.1.1.1.2.1.3 0 .4 0 .8 0 1.2 0 .1 0 .2 0 .4.1-.1.1-.2.2-.2.2-.1.3-.1.5-.2.1-.1.2-.3.3-.4.1-.1.2-.3.4-.5.1.1.2.3.4.4.1-.2 0-.9.2-1 .2-.1.1.2.3.4 0-.1.1-.1.1-.2.1-.2.2-.5.4-.6 0 0 .3.5.4.5.1-.1.3-.7.4-.8.1-.1.9.8 1.2.8-.1-.1 0-.3-.1-.4-.1-.2.3-.2.3-.2.1 0 .2.1.3.2 0-.1 0-.2 0-.3.1-.3.4-.5.7-.3.2.1.4.1.6.1 0 0-.2-.3-.2-.4.1 0 .2 0 .3.1.1 0 .3 0 .4.1.3.1.4.1.7-.1.1-.1.2-.1.3-.2.1-.1.2 0 .2.1s0 .2 0 .3c.1-.2.3-.2.5-.2.1 0 .1 0 .1-.1.1-.1.3-.3.4-.4.1-.1.3-.1.3 0 .2.3.4.5.6.8.4.4.9.8 1.5 1 .4.1.7.1 1.1.2.2 0 .4.1.5.2.2.3.4.8.4 1.2-.6.1-1.1 0-1.7-.1-.2-.1-.4-.2-.5-.3-.1-.1-.3-.2-.4-.2-.4-.2-.9-.1-1.3.1-.3.2-.6.4-1 .6-.2.2-.5.4-.7.5-.2.1-.4.2-.6.2-.3-.1-.5-.1-.8-.2-.2-.1-.4-.3-.4-.6-.1-.3 0-.6.1-.9 0-.1.1-.2.1-.3-.2.2-.4.3-.6.5-.5.5-.6 1-.2 1.6 0 .1.1.1.1.2-.9-.1-1.7-.5-2.2-1.2.2 1.3.9 2 2.1 2.3-.1.3-.4.6-.7.8-.3.2-.7.2-1.1.2.4.3.8.4 1.3.3 0 0 .1 0 .1 0 .1.1.2.1.3 0 .2-.1.3-.2.5-.3.1 0 .1-.1.3-.1l-.2.4c.1 0 .1 0 .2 0 .2-.1.4 0 .5.1.1 0 .2.1.3.1.1 0 .2 0 .3 0 .1 0 .1.1.1.1.1.3.2.6.3.9.1.3.2.6.4.9.1.2.1.4.1.6-.1 0-.1 0-.2 0-1.2 0-2.4-.1-3.7-.1-.3 0-.6-.1-.9-.4-.2-.1-.3-.3-.5-.4-.2-.1-.3-.3-.3-.5-.1-.3-.1-.5-.2-.7-.1-.3-.2-.3-.5-.1-.9-.5-1.7-.3-2.1.2.5 0 .9.2 1.2.6h-.2c-.1 0-.1 0-.2 0-.2 0-.2 0-.2.2-.6 0-1.1.5-1.1 1.1l.2-.1c.2-.1.4-.2.6.1 0 0 0 0 .1 0 0 0 .1.1.1.1s-.1.1-.2.1c-.4.1-.7.3-1 .7-.2.2-.2.5-.2.8.1-.1.2-.2.3-.2.1-.1.2-.1.3 0 .1 0 .1 0 .2 0s.2 0 .3 0c.1 0 .2 0 .3.2 0 .1.1.1.2.1.3 0 .5.1.8 0 .4-.2.9-.3 1.3-.2.1 0 .2.1.1.2s-.2.1-.3.2c-.2.1-.3.1-.5.1-.3.1-.5.3-.6.6h.3c-.4.7-.4 1.4.1 2 0-.1 0-.2 0-.2 0-.1.1-.1.1-.2.1-.1.2-.1.2-.2.1-.2.3-.3.5-.4.4-.1.6-.4.7-.8.1-.2.1-.4.2-.6.1-.2.3-.2.5-.2s.2.1.3.3c.1.3.2.5.4.8.1.1.2.2.3.3.2-.2.4-.4.6-.5.2-.1.3-.1.4.1.2.2.4.5.6.7.1.1.3.2.4.3.1-.2.3-.4.4-.5.2-.2.4-.2.5 0s.4.6.6.8c.1.1.2.1.2.2 0-.1.1-.1.1-.2.1-.1.2-.3.3-.4.1-.2.2-.3.3-.4.1-.1.2-.1.3.1.1.2.2.3.3.5.1 0 .1-.1.2-.1.2 0 .4-.1.5-.3.2-.3.5-.4.8-.3.2 0 .4 0 .7 0 .2 0 .3-.1.3-.3 0-.1 0-.1.1-.2.1-.2.2-.4.3-.5-.1 0-.2 0-.2 0-.4.1-.7.1-1.1.1-.5-.1-1-.6-1-1.1 0-.4.1-.8.2-1.2.5-1.1 1.4-1.7 2.7-1.6 0 0 .1 0 .1 0 0-.2 0-.3 0-.5 0-.1 0-.2 0-.3 0-.1 0-.1-.1-.1-.1-.1-.2-.2.1-1.2.4-1.5 2.2-1.1 2.2-1.1.1 0 .1.1.1.1 0 .1-.1.1-.1.1-.3-.1-.6-.1-.9 0-.5.1-1 .4-1.1 1-.3.9-.2.9-.1 1 .1.1.1.2.1.3 0 .1 0 .2 0 .3-.1.3 0 .5.1.8.2.5.5 1 .7 1.5.1.4.3.8.4 1.2 0 .1 0 .2-.1.2-.2.1-.5.2-.7.4-.7.5-1 1.4-.7 2.2 0 0 0 .1.1.1 0-.2.1-.3.1-.4s.1-.3.2-.4c.1 0 .1.1.2.1s.2.1.2.2c.1.3.2.5.3.8.1.1.2.2.3.3 0-.1 0-.3 0-.4 0-.3.3-.7.7-.4.1.1.2.1.3.1.2.1.5 0 .7-.2-.1 0-.1-.1-.2-.1-.3-.1-.5-.3-.6-.5-.1-.2-.1-.4-.1-.6 0-.2.2-.3.4-.2 0 0 0 0 .1 0s.3.1.4.2c.3.2.6.3 1 .2.3-.1.6-.3.8-.5.1-.1.3-.3.4-.4.1-.1.1-.1.2 0 0 0 .1.1.1.1.1.3.2.6.3.9.1.6 0 1.1-.5 1.5-.1.1-.3.3-.3.5-.1.2-.1.3-.2.5-.2.4-.5.6-.9.5-.3 0-.5-.1-.8-.2-.4-.1-.5 0-.4.4-.4.1-.7.3-.9.6-.2.3-.4.7-.3 1.1.1-.1.2-.2.3-.3.1-.1.1-.1.3 0 .1 0 .1 0 .2 0 .2-.1.4-.1.5 0-.1.2-.2.4-.3.5-.1.2-.1.2 0 .3-.4.6-.3 1.1.1 1.5 0-.1.1-.2.1-.3.1-.1.3-.2.4-.3.2-.1.3-.1.3.2 0 .3.1.7.3.9.1.1.3.3.4.4 0 0 0-.1 0-.1 0-.4.1-.8.5-1 .2-.2.4-.5.4-.7 0-.6.3-1.1.7-1.5.1-.1.2-.1.3-.1.1 0 .1 0 .2.1 0 0 0 0 0 .1s0 .3-.1.4c0 .4.2.7.5.8.3.1.4.2.4.5 0 .2 0 .3 0 .6.1-.1.3-.2.4-.3.3-.1.3-.4.4-.7 0-.3.1-.6.1-1 .1-.3 0-.6-.3-.7-.1 0-.2-.1-.3-.2-.1-.1-.2-.2-.2-.3 0-.4.1-.7.5-.8.2 0 .4 0 .5-.1.1 0 .2-.1.3-.2 0-.1.1-.2.2-.3l.2-.1-.9-.5v-.1c.1-.1.1-.1.2-.1.2-.1.4-.1.6-.2.2-.1.4-.1.4-.4 0-.1.1-.1.1-.1l.3-.3-.6-.3v-.1c.1-.1.3-.1.4-.2.1 0 .2-.1.3-.2.1-.2.2-.3.3-.4 0 0 .1 0 .1-.1-.3-.2-.6-.3-.8-.4-.1-.1-.2-.1 0-.3.1-.1.3-.2.4-.3.1 0 .1-.1.1-.2s.1-.2.1-.3c.1-.1.2-.2.2-.3-.3-.1-.5-.1-.8-.3l.4-.2c.1 0 .2-.1.4-.1.1-.1.2-.3.3-.4 0-.1.1-.1.1-.2-.1 0-.2 0-.3 0-.3-.1-.6-.2-.8-.4-.1-.1-.2-.3-.2-.5 0-.1 0-.2 0-.3-.1-.1 0-.2.1-.3 0-.1.1-.1.2-.2h-.2c-.4 0-.8-.4-.8-.8 0-.1 0-.3 0-.4 0-.1 0-.2 0-.4 0 .1-.1.1-.1.1-.3.5-.8.9-1.4 1.2-.5.2-1 .4-1.6.1-.4-.2-.8-.4-.8-.9 0-.4 0-.8 0-1.2 0-.1 0-.2.1-.3.1-.8.2-2.9-.6-4.4-.4-.8-.8-1.5-1.2-2.3-.3-.6-.8-1.2-1.1-1.8-.2-.3-.1-.6 0-.9 0 0 0 0 0 .1.2.3 1 .8 1.8.3-.4-.2-.6-.4-.7-.7 0-.3 0-.6.1-.9.7.1 1.8 0 2.1-.9 0 0-1.3.5-1.8-1.5 0-.1 0-.1 0-.2.7 0 1.6-.1 1.8-.9 0 0-.9.4-1.5-.7.7-.2 1.6-.7 1.5-1.6.3 1.5 1.2 2.8 2.5 3.9.5.4 1 .8 1.4 1.2 1 1.1 1.7 2.4 2 3.9 0 .1 0 .2 0 .3 0 0-.1 0-.1-.1-.5-.7-1.3-1.2-2.1-1.3-.4-.1-.7-.4-.7-.8 0-.1 0-.2 0-.3-.1-.3 0-.5.1-.8 0-.1.1-.1.1-.2-.7.2-1 .6-1 1.2 0 .3.1.6.2.9 0 .1.1.3.2.4-.4.2-.8.4-.9.9-.5 0-1-.3-1.6-.9 0 0 0 0 0 .1-.1.5.1 1 .5 1.3.1.1.2.1.3.2.1 0 .1.1.1.2-.1.2-.2.4-.3.5-.4.8-.2 1.7.4 2.3.1.1.2.2.3.2 0-.1 0-.1 0-.2-.1-.4-.1-.9 0-1.4.1-.2.2-.3.3-.4.1-.1.3-.1.4 0 .2.2.4.3.6.5.2.1.6.2.7 0s.2-.3.3-.4c-.2-.2-.4-.4-.5-.6-.1-.1-.1-.3 0-.5.1-.1.2-.3.4-.3.6-.3 1.3-.2 1.9.3.6.5.9 1.2.7 2-.2.9-.7 1.8-1.5 2.3-1.3 1-2.7.9-3.9-.1-.4-.4-.8-.8-1.1-1.3.2 1 .3 2.1.2 3.1.1-.1.3-.1.5 0 .4.1.8.3 1.2.3 1 .2 2 .2 3-.1.9-.3 1.7-.8 2.1-1.6.4-.6.7-1.3.9-2 .3-1.1.4-2.2.2-3.4-.1-1.2-.6-2.3-1.3-3.3-.9-1.2-2-2.2-3-3.3-.6-.6-1.1-1.2-1.6-1.8-.4-.6-.6-1.2-.6-1.9 0-.5 0-.9.1-1.4.1-.6.3-1.1.6-1.7.2-.4.5-.7.9-1 .3-.3.6-.5 1-.6.2-.1.5 0 .6.2.2.2.2.5.1.7-.1.1-.1.2-.1.3-.3.6-.4 1.2-.3 1.8 0 .3 0 .5.1.8.1-.1.3-.2.3-.3.7-.5.1.4.1.5-.1.2-.2.5-.3.7-.2.6-.1 1.2.4 1.7.1.1.3.2.4.3 0-.2.1-.5.3-.6.2.4.5.8 1 .8-.2-.6-.2-1.3.2-1.8.1-.1.2-.3.3-.4.1-.2.3-.2.5 0s.5.4.7.6c.2.1.4.1.6 0 .1-.1.2-.1.3-.2.1 0 .1-.1.2-.1h-.1c-.6-.3-1.1-.9-1-1.6 0-.2.1-.3.2-.5.3-.6.9-1 1.1-1.6.1-.2.1-.3.2-.5-.2.1-.3.2-.5.3-.8.7-1.7.3-2.2-.3zm-15.7 4.4c0-.1 0-.2.1-.2.3-.3.8-.4 1.2-.4.1 0 .3 0 .4 0 .1 0 .1.1.1.1 0 .2 0 .4 0 .6l-1.4-.1c-.1 0-.2 0-.2 0-.1.1-.1.1-.2 0zm1.7 1.6c-.4.3-.9.4-1.3.3 0 0-.1 0-.1-.1-.1-.2-.1-.4-.2-.6 0-.1 0-.1.1-.2 0 0 0 0 .1 0 .5 0 1.1 0 1.6 0 .1 0 .2 0 .3.1-.2.2-.3.4-.5.5zm-.3-4s.3-.5 1.4-.5c.1 0-.1 1.1-1.4.5z"/><path fill="#00803D" d="M190.8 42.8c0 1.6-1 3.1-2.6 3.5 0-1.6 1.1-3 2.6-3.5zM185.7 42.8c1.6.5 2.6 1.9 2.6 3.5-1.6-.4-2.6-1.8-2.6-3.5zM184.1 47.7c.9-1.3 2.6-1.9 4.2-1.4-1 1.4-2.7 1.9-4.2 1.4zM188.3 50.7c-1-1.3-1-3.1 0-4.4 1 1.3 1 3.1 0 4.4zM192.4 47.7c-1.5.5-3.2 0-4.2-1.4 1.6-.5 3.3.1 4.2 1.4z"/><path fill="#fff" d="M186.2 49.2c-1.4-1-.9-1.7-.5-1.9.4-.2.8-.3 1.2-.4 1.4-.5 1.6-.3 1.4 1 0 .4 0 .8-.1 1.2-.1.4-.7 1-2 .1z"/><path fill="#12100B" d="M185.6 47.4c-.2.2-.3.5 0 .9.2.2.5.3.8.5.3.3.5.5.8.6.5.2.7 0 .8-.2-.1.2-.3.3-.8.1-.2-.1-.3-.5-.7-.7-.3-.2-.7-.2-.9-.4-.2-.4-.1-.6 0-.8z"/><path fill="#fff" d="M190.2 49.2c-1.4 1-1.9.3-2-.1 0-.4 0-.8-.1-1.2-.1-1.5.2-1.6 1.4-1 .4.1.8.3 1.2.4s.9.9-.5 1.9z"/><path fill="#12100B" d="M188.4 49.2c.1.2.3.4.8.2.2-.1.4-.4.8-.6.3-.2.7-.3.8-.5.3-.4.2-.7 0-.8.1.1.2.4-.1.8-.2.2-.5.2-.9.4-.3.3-.5.6-.7.7-.4.1-.6-.1-.7-.2z"/><path fill="#fff" d="M191.6 45.3c.5 1.6-.3 1.9-.7 1.8-.4-.1-.8-.2-1.2-.3-1.4-.4-1.4-.7-.5-1.7.3-.3.5-.7.8-1s1.1-.3 1.6 1.2z"/><path fill="#12100B" d="M191 47.1c.2-.1.5-.2.5-.7 0-.3-.2-.5-.3-.9-.1-.4-.1-.7-.3-.9-.3-.4-.6-.4-.8-.3.2-.1.4-.1.7.3.1.2 0 .6.1 1s.4.6.5.9c.1.4-.2.6-.4.6z"/><path fill="#fff" d="M188.3 42.9c1.7 0 1.7.9 1.5 1.2-.2.3-.5.7-.7 1-.8 1.2-1.1 1.2-1.7 0-.2-.3-.5-.7-.7-1-.2-.3 0-1.2 1.6-1.2z"/><path fill="#12100B" d="M189.8 44c0-.2 0-.6-.5-.7-.2-.1-.6.1-1 0s-.7-.1-1 0c-.5.1-.5.4-.5.7 0-.2 0-.5.5-.6.2-.1.5.2 1 .2s.7-.2 1-.2c.5.2.5.4.5.6z"/><path fill="#fff" d="M184.9 45.3c.5-1.6 1.4-1.4 1.6-1.1s.5.6.8 1c.9 1.1.8 1.4-.5 1.7-.4.1-.8.2-1.2.3-.4 0-1.2-.4-.7-1.9z"/><path fill="#12100B" d="M186.5 44.2c-.2-.1-.5-.2-.8.3-.1.2-.1.6-.3.9-.1.4-.3.7-.3.9 0 .5.2.7.5.7-.2 0-.4-.2-.4-.7 0-.3.3-.5.5-.9.1-.4 0-.8.1-1 .2-.3.5-.3.7-.2z"/><path fill="#fff" d="M188.2 44.5c0 .3 0 .5 0 .8.1.9 0 1-.9.7-.3-.1-.5-.2-.8-.3-.2-.1-.5-.6.4-1.2s1.3-.3 1.3 0z"/><path fill="#12100B" d="M186.6 45.1c.1-.1.4-.1.6-.3s.3-.4.4-.5c.3-.1.4 0 .5.1-.1-.2-.3-.3-.5-.2-.2.1-.3.2-.5.4s-.4.3-.5.5c-.2.1-.2.3-.1.5-.1-.1-.1-.3.1-.5z"/><path fill="#fff" d="M189.9 45.7c-.2.1-.5.2-.8.3-.8.4-1 .3-.9-.7 0-.3 0-.5 0-.8s.4-.7 1.3 0 .7 1.1.4 1.2z"/><path fill="#12100B" d="M188.9 44.3c.2.1.2.3.5.5.2.2.5.1.6.3.2.3.1.4.1.5.1-.1.2-.4 0-.5-.1-.1-.3-.2-.5-.4s-.6-.4-.7-.4c-.1-.2-.4-.1-.5.1 0-.1.1-.2.5-.1z"/><path fill="#fff" d="M189.4 47.7c-.2-.2-.3-.4-.5-.6-.6-.7-.6-.9.4-1.1.3-.1.5-.2.8-.2.3-.1.8.2.4 1.2s-.9.9-1.1.7z"/><path fill="#12100B" d="M190.3 46.2c0 .2-.2.3-.3.6s0 .5-.1.6c-.2.3-.4.3-.5.2.2.1.4 0 .5-.2.1-.1.1-.4.2-.6s.3-.4.2-.6c.1-.2 0-.4-.2-.4 0 0 0 0-.1 0 .2 0 .4.1.3.4z"/><path fill="#fff" d="M187.3 47.7c.1-.2.3-.4.4-.7.4-.8.6-.8 1.1 0 .1.2.3.4.4.7.1.2.1.8-1 .8-1 0-1.1-.5-.9-.8z"/><path fill="#12100B" d="M188.9 48.2c-.2 0-.4-.1-.6-.1s-.5.2-.6.1c-.3-.1-.4-.3-.4-.4 0 .2.1.4.3.4.2 0 .4 0 .6 0s.6.1.7 0c.2.1.4-.1.4-.3 0 0 0 0 0-.1 0 .1-.1.3-.4.4z"/><path fill="#fff" d="M186.5 45.8c.3.1.5.1.8.2.9.2 1 .4.4 1.1-.2.2-.3.4-.5.6-.2.2-.7.3-1.1-.7-.3-1.1.2-1.3.4-1.2z"/><path fill="#12100B" d="M186.6 47.5c-.1-.1 0-.4-.1-.6s-.3-.4-.3-.6c0-.3.1-.4.2-.5-.2 0-.3.2-.3.4s.2.3.2.6c.2.4.2.6.3.7 0 .2.2.3.4.2 0 .1-.2.1-.4-.2z"/><path fill="#FDC300" d="M188.7 45.7c0 .1 0 .1 0 .2s.1 0 .2 0c0-.1 0-.1 0-.2 0 0 0 0-.1 0s-.1 0-.1 0zM187.5 46.4c0 .1 0 .1 0 .2.1 0 .1 0 .2 0 0-.1 0-.1 0-.2 0 0 0 0-.1 0-.1-.1-.1-.1-.1 0zM187.6 46.6c0 .1 0 .1 0 .2.1 0 .1 0 .2 0 0-.1 0-.1 0-.2 0 0 0 0-.1 0s-.1 0-.1 0zM187.7 46.8c0 .1 0 .1 0 .2.1 0 .1 0 .2 0 0-.1 0-.1 0-.2 0 0 0 0-.1 0 0-.1 0 0-.1 0zM188 46.9c0 .1 0 .1 0 .2s.1 0 .2 0c0-.1 0-.1 0-.2 0 0 0 0-.1 0s-.1 0-.1 0zM188.2 47c0 .1 0 .1 0 .2.1 0 .1 0 .2 0 0-.1 0-.1 0-.2 0 0 0 0-.1 0 0-.1-.1-.1-.1 0zM188.5 46.9c0 .1 0 .1 0 .2s.1 0 .2 0c0-.1 0-.1 0-.2 0 0 0 0-.1 0s-.1 0-.1 0zM188.7 46.8c0 .1 0 .1 0 .2.1 0 .1 0 .2 0 0-.1 0-.1 0-.2 0 0 0 0-.1 0-.1-.1-.1 0-.1 0zM188.8 46.6c0 .1 0 .1 0 .2.1 0 .1 0 .2 0s0-.1 0-.2c0 0 0 0-.1 0 0 0-.1 0-.1 0zM188.9 46.4c0 .1 0 .1 0 .2s.1 0 .2 0c0-.1 0-.1 0-.2 0 0 0 0-.1 0 0-.1-.1-.1-.1 0zM188.9 46.1c0 .1 0 .1 0 .2.1 0 .1 0 .2 0 0-.1 0-.1 0-.2 0 0 0 0-.1 0 0 0-.1 0-.1 0zM188.8 45.9c0 .1 0 .1 0 .2.1 0 .1 0 .2 0 0-.1 0-.1 0-.2 0 0 0 0-.1 0 0-.1 0-.1-.1 0zM188.5 45.6c0 .1 0 .1 0 .2.1 0 .1 0 .2 0 0-.1 0-.1 0-.2 0 0 0 0-.1 0-.1-.1-.1-.1-.1 0zM187.5 46.1c0 .1 0 .1 0 .2.1 0 .1 0 .2 0 0-.1 0-.1 0-.2 0 0 0 0-.1 0s-.1 0-.1 0zM187.5 45.9c0 .1 0 .1 0 .2.1 0 .1 0 .2 0 0-.1 0-.1 0-.2 0 0 0 0-.1 0 0-.1 0-.1-.1 0zM187.7 45.7c0 .1 0 .1 0 .2s.1 0 .2 0c0-.1 0-.1 0-.2 0 0 0 0-.1 0 0-.1-.1 0-.1 0zM187.9 45.6c0 .1 0 .1 0 .2.1 0 .1 0 .2 0 0-.1 0-.1 0-.2 0 0 0 0-.1 0 0-.1 0-.1-.1 0zM188.2 45.5c0 .1 0 .1 0 .2.1 0 .1 0 .2 0 0-.1 0-.1 0-.2 0 0 0 0-.1 0 0 0-.1 0-.1 0zM187.8 46c-.2.3-.1.6.1.8.3.2.6.1.8-.1.2-.3.1-.6-.1-.8-.2-.3-.6-.2-.8.1zM188 46.1c-.1.1-.1.3.1.4.1.1.3.1.4-.1.1-.1.1-.3-.1-.4-.1 0-.3 0-.4.1z"/><path fill="#fff" d="M189.2 26.2v1c-.4-.1-.9-.1-1.3-.2-.6 0-.8.2-.8.6v.2c0 .3.1.4.6.6l.8.3c.8.3 1.1.7 1.1 1.6v.2c0 1.1-.6 1.7-2 1.7-.5 0-.9-.1-1.4-.2v-1c.4.1.9.2 1.3.2.7 0 1-.2 1-.6v-.2c0-.3-.1-.5-.5-.6l-.9-.3c-.9-.3-1.2-.7-1.2-1.6v-.1c0-1.1.5-1.6 1.8-1.6.5-.1 1-.1 1.5 0zM190.3 32v-5.9h1.1V32h-1.1zM194.7 27.1V32h-1.1v-4.9H192v-1h4.3v1h-1.6zM201.3 32l-1-4.7-1 4.7H198l-1.3-5.9h1.1l.8 4.8 1-4.8h1.3l1 4.7.8-4.7h1.1l-1.3 5.9h-1.2zM205.6 27.1v1.4h2v1h-2V31h2.2v1h-3.3v-5.9h3.3v1h-2.2zM211.9 31v1h-3.3v-5.9h1.1V31c.1 0 2.2 0 2.2 0zM215.9 31v1h-3.3v-5.9h1.1V31h2.2zM221 26.2v1c-.4-.1-.8-.1-1.2-.1-.8 0-1 .2-1 1v2.2c0 .7.3 1 1 1 .4 0 .8-.1 1.2-.2v1c-.4.1-.9.1-1.3.2-1.5 0-2-.6-2-1.9v-2.3c0-1.3.5-1.9 2-1.9.4-.1.9-.1 1.3 0zM225.1 26.2v1c-.4-.1-.8-.1-1.2-.1-.8 0-1 .2-1 1v2.2c0 .7.3 1 1 1 .4 0 .8-.1 1.2-.2v1c-.4.1-.9.1-1.3.2-1.5 0-2-.6-2-1.9v-2.3c0-1.3.5-1.9 2-1.9.4-.1.8-.1 1.3 0z"/></svg>