<svg id="4a14018f-dc5b-489e-8719-356cf48c9f28" data-name="Layer 1" xmlns="http://www.w3.org/2000/svg" viewBox="0 0 661.5 199.05"><title>sitwellcc-logotype</title><path d="M70.29,3.07,69.8,24.63c-9.85-1.71-21.76-3.32-29-3.32-12.44,0-17.07,4.93-17.07,13.85v4.15c0,7.17,2.19,9.9,12.53,13.36l17.42,5.66C72,64.48,78.92,73.8,78.92,93.65V97.5c0,23.7-12.19,36.73-45.07,36.73-7.17,0-19.07-1.71-30.48-4.15l.29-22c10.63,2.68,22.48,4.39,29.61,4.39,16.68,0,22.19-5.07,22.19-14.19V93.16c0-6.93-2.83-10.58-10.59-13.12L25.76,73.8C6.49,67.36,0,58.92,0,38.58v-2C0,13,11.85,0,40.19,0,48,0,59.75,1.37,70.29,3.07" fill="#fff"/><rect x="95.36" y="2.36" width="23.75" height="129.5" fill="#fff"/><polygon points="193.23 24.12 193.23 131.87 169.71 131.87 169.71 24.12 134.06 24.12 134.06 2.37 228.88 2.37 228.88 24.12 193.23 24.12" fill="#fff"/><polygon points="338.79 131.87 316.84 27.83 294.84 131.87 265.82 131.87 237.62 2.37 262.45 2.37 281.13 107.58 302.74 2.37 330.69 2.37 352.44 107.38 371.08 2.37 396.05 2.37 367.81 131.87 338.79 131.87" fill="#fff"/><polygon points="433.72 24.12 433.72 55.39 478.15 55.39 478.15 76.9 433.72 76.9 433.72 110.11 482.15 110.11 482.15 131.87 410.02 131.87 410.02 2.37 482.15 2.37 482.15 24.12 433.72 24.12" fill="#fff"/><polygon points="574.52 110.48 574.52 131.84 502.33 131.84 502.33 2.35 526.08 2.35 526.08 110.48 574.52 110.48" fill="#fff"/><polygon points="661.5 110.48 661.5 131.84 589.36 131.84 589.36 2.35 613.06 2.35 613.06 110.48 661.5 110.48" fill="#fff"/><path d="M122.4,149.53l-.15,5.6a59.24,59.24,0,0,0-10.16-1.2c-6.8,0-9.56,2.54-9.56,9v21.37c0,6.42,2.69,9,9.56,9a59.23,59.23,0,0,0,10.16-1.2l.15,5.75a68,68,0,0,1-10.31,1.2c-11.8,0-15.91-5.08-15.91-15.09V163.42c0-10.16,4.26-15.09,15.91-15.09a68.27,68.27,0,0,1,10.31,1.19" fill="#fff"/><polygon points="155.12 181.35 155.12 198.16 148.77 198.16 148.77 181.35 134.57 149.23 141.82 149.23 151.98 174.63 162.21 149.23 169.31 149.23 155.12 181.35" fill="#fff"/><path d="M206.58,149.53l-.15,5.6a59.24,59.24,0,0,0-10.16-1.2c-6.8,0-9.56,2.54-9.56,9v21.37c0,6.42,2.69,9,9.56,9a59.23,59.23,0,0,0,10.16-1.2l.15,5.75a68,68,0,0,1-10.31,1.2c-11.8,0-15.91-5.08-15.91-15.09V163.42c0-10.16,4.26-15.09,15.91-15.09a68.27,68.27,0,0,1,10.31,1.19" fill="#fff"/><polygon points="230.11 192.55 249.53 192.55 249.53 198.16 223.76 198.16 223.76 149.23 230.11 149.23 230.11 192.55" fill="#fff"/><rect x="264.85" y="149.23" width="6.35" height="48.93" fill="#fff"/><polygon points="296.14 156.85 296.14 198.16 289.87 198.16 289.87 149.23 300.03 149.23 315.86 190.54 315.86 149.23 322.14 149.23 322.14 198.16 312.28 198.16 296.14 156.85" fill="#fff"/><path d="M369.27,149.9l-.15,5.6a74.35,74.35,0,0,0-12.77-1.64c-6.95,0-9.56,2.54-9.56,8.89v21.66c0,6.35,2.61,9,9.56,9a49.38,49.38,0,0,0,8.74-1V175.9h-9.34v-6h15.69v26.37c-4.11,1.27-9.86,2.76-15.09,2.76-11.8,0-15.91-5.08-15.91-15.09V163.42c0-10.53,4.63-15.09,15.91-15.09a74.56,74.56,0,0,1,12.92,1.57" fill="#fff"/><path d="M436.5,149.53l-.15,5.6a59.24,59.24,0,0,0-10.16-1.2c-6.8,0-9.56,2.54-9.56,9v21.37c0,6.42,2.69,9,9.56,9a59.23,59.23,0,0,0,10.16-1.2l.15,5.75a68,68,0,0,1-10.31,1.2c-11.8,0-15.91-5.08-15.91-15.09V163.42c0-10.16,4.26-15.09,15.91-15.09a68.27,68.27,0,0,1,10.31,1.19" fill="#fff"/><polygon points="460.02 192.55 479.45 192.55 479.45 198.16 453.68 198.16 453.68 149.23 460.02 149.23 460.02 192.55" fill="#fff"/><path d="M523.59,182.69c0,10.46-5.3,16.36-15.91,16.36-10.31,0-15.91-5.45-15.91-16.21V149.23h6.35v34.44c0,6.5,3.51,9.79,9.56,9.79s9.56-3.29,9.56-9.79V149.23h6.35Z" fill="#fff"/><path d="M571.47,160.29v1.64c0,4.93-2.09,8.74-6.87,10.83,5.53,1.2,8.89,5.3,8.89,11.13v1.64c0,7.84-5.38,13.52-17.55,13.52-4.56,0-6.42-.07-13.67-.45v-50c3.44-.15,7.84-.3,13.15-.3,10.76,0,16.06,4.85,16.06,12M548.61,154v16.73h7.32c6.05,0,9.19-3.06,9.19-8.22v-1.27c0-4.78-3-7.47-10.68-7.47q-2.69,0-5.83.22m0,21.89v17.18a62.33,62.33,0,0,0,7.32.45c7.92,0,11.2-3.36,11.2-8.37v-1.57c0-4.93-3.21-7.69-10.76-7.69Z" fill="#fff"/></svg>