<svg xmlns="http://www.w3.org/2000/svg" viewBox="0 0 179.07 215.43"><title>sitwellcc-lion</title><path d="M165.41,17.34c-3.06-3.77-3.17-7.77-3.21-12.4,0-1.64-3.22-8.56-2.41-2.49,0.41,3.06-2.77,4.77-5.44,6a18.1,18.1,0,0,1-6.17,1.39c-5.5.39-10.09,2.5-13.52,7a29.39,29.39,0,0,0-6.1,14.86,39.22,39.22,0,0,0,.68,13.21c-0.09.09-4.51,4.42-10.33-1.86,3.17-2,9-6.57,6.91-11.79,0,0-2.35,4.68-8.47,2.35,2.37-2.79,6.84-9.09,3.2-13.55,0,0-1,6.16-9.29,4.56,0.77-2.74,2.18-9.66-2.41-11.8,0,0,1.56,5.18-5.71,6.92,0.24-2.5-.22-5.08-2.54-6.48,0,0,.91,4.9-5.58,6.13a17.85,17.85,0,0,0-2.81.27H91.49l0.15,0.11a15,15,0,0,0-5.2,2.2A14.58,14.58,0,0,1,78,24.33a8.17,8.17,0,0,0-2,.15,1.45,1.45,0,0,0-1.19,2.09,8.7,8.7,0,0,1,.77,2.7c0.1,2.14,0,4.29-.05,6.43a0.87,0.87,0,0,0,.62,1,7.67,7.67,0,0,1,1.84.94c1.18,0.91,1.13,2.41,1.84,3.74a21.89,21.89,0,0,1-6.58-1.56,3,3,0,0,1-1.29-2.76C72,34,74.1,35.22,73.37,36c0,0,1.74-1.18-.62-2.36S69,35.74,70.49,37.94a5.61,5.61,0,0,1-1.27-3.2c-0.13-1.54,0-3.1,0-4.75a3.74,3.74,0,0,0-2.76,2.15,9.56,9.56,0,0,0-.91,4.63,9.93,9.93,0,0,0,3.21,7.34L66,44.87c6.42,4,11.71,2.87,13.9,2.05a0.71,0.71,0,0,1,0,.25c-0.22,1-.49,2-0.76,3l-1.67-.81c0.46,3.75.26,4.34-2,6.92,0.7-.12,1.37-0.22,2-0.36a2.26,2.26,0,0,1,2.29.47,1.69,1.69,0,0,0,1.14.36c2.26-.09,4.53-0.2,6.78-0.39,1.67-.14,3.32-0.44,5-0.6,1.09-.11,1.37.22,1.34,1.32a3.28,3.28,0,0,1-2.43,3.31,7.49,7.49,0,0,1-2.86.37A14.4,14.4,0,0,0,82,61.91c-2.45.92-4.88,1.92-7.33,2.84a1.69,1.69,0,0,1-1.23,0A33.93,33.93,0,0,1,57,45.88a34.33,34.33,0,0,0-6.93-11.4,55.12,55.12,0,0,0-9.84-8.57C37.47,24,37,22.75,38,19.63a14.45,14.45,0,0,0,.43-6,5.24,5.24,0,0,0-.47-1.41c-0.39-.87-0.84-1.72-1.25-2.58-0.2-.42-0.37-0.87-0.58-1.29C34.63,5.5,31.62,3.66,28.85,4c1.81,2.15,3,4.48,2.78,7.45-0.87,0-1.5.2-1.6,0.84-1.09-.87-2.08-2.18-3.34-2.53C25.22,9.31,24,8.4,22.54,8.07a6.31,6.31,0,0,0-6.27,2.4c3.57,0.92,5.36,2.08,6,3.87-0.64.68-.64,0.68-1.52,0.22-1.18-.61-1.39-0.52-2,0.59a1.1,1.1,0,0,1-.83.38,9.28,9.28,0,0,0-5.7,1.83,7.89,7.89,0,0,0-2.58,3.89C10.54,21,11.25,20.7,12,20.54s1.51-.51,2.07.41a1.4,1.4,0,0,0,.88.34c0.58,0.1,1.17.14,1.75,0.2a1.35,1.35,0,0,1,1.34.94,1.31,1.31,0,0,0,.65.79c1.38,0.43,2.64,1.28,4.22,1a3.41,3.41,0,0,1,3.9,1.88,1.24,1.24,0,0,1-.06,1.07,4.08,4.08,0,0,1-3,1.78,14.66,14.66,0,0,0-1.84.25,3.15,3.15,0,0,0-2.54,3c-2.52,1.19-5.07.78-7.63,0a1.28,1.28,0,0,0,0,.28,2,2,0,0,0,.15.32,10.9,10.9,0,0,0,8.22,5.37A7.1,7.1,0,0,0,26.82,36c2-2.1,6-1.22,7.15,1.28,0.23,0.51,3.08,9.83,3.31,10.44a1.06,1.06,0,0,0,.33-0.61c0.31-1.41.49-1.52,1.71-.73a1.43,1.43,0,0,1,.47,1.09c-0.09,2.26-.31,7.76-0.25,8.43l1.77-2.06c0.86,0.85.59,1.75,0.52,2.61-0.19,2.23-.5,7.51-0.45,7.92a7.08,7.08,0,0,0,1-1.45c0.79-1.38.86-1.41,2.32-.87l0.49,0.2c-0.45,2.67-1.4,5.26-.93,8.2,0.63-1,1.13-1.83,1.66-2.64s1.58,7.09,1.68,7.92h0.17l1.55-2.93a8.26,8.26,0,0,1,1.92,2.06,25.6,25.6,0,0,0,4.51,7.64l0.5,0.6,10.14-6.37A18.22,18.22,0,0,0,71.42,72L73,69.82a0.49,0.49,0,0,1,.8.58l-1.58,2.18a19.19,19.19,0,0,1-5.36,5L52.13,86.84a0.49,0.49,0,0,1-.26.08h0c-7,4.85-13.94,9.68-20.87,14.57a23,23,0,0,1-8.24,3.71c-2.94.67-5.66,0.44-8-1.64a23.32,23.32,0,0,0-2.56-1.88,9.49,9.49,0,0,0-2.1-1.11c-1.25-.42-2.17-0.08-2.37,1.38-3.76.37-6.5,2.1-7.68,5.93,1.1-.32,2.1-0.63,3.11-0.89a1.2,1.2,0,0,1,.71.14,10.58,10.58,0,0,0,1.34.67,6.59,6.59,0,0,1,2.14.87,17,17,0,0,0,3.3,1.61,20.79,20.79,0,0,0,2.41.66L9.4,112.13c-2,.65-4.07,1.19-6,2-1.59.62-1.7,1.49-.57,2.72-2.75,4.14-3.25,8-1.25,9.92a16.84,16.84,0,0,1,.75-1.59A1.44,1.44,0,0,1,3,124.7a6.46,6.46,0,0,0,1.17-.46,8.23,8.23,0,0,1,3.33-1.91A7.61,7.61,0,0,0,11.54,120a26.7,26.7,0,0,1,3-2.75,11.69,11.69,0,0,1,3.26-1.69c1.22-.39,1.44,0,1.08,1.18a10.15,10.15,0,0,1-2.6,3.94,21.6,21.6,0,0,0-1.85,2.13c-0.67.94-.56,1.24,0.35,1.86-1.19,4.69,0,8.74,2.94,10-0.48-1.55.53-2.61,1.09-3.8A8.09,8.09,0,0,1,20,129.18c0.72-.86,2.06-1.11,2.37-2.39,0.14-.57.32-1.13,0.42-1.7,0.38-2.17.66-4.35,1.11-6.5a5.72,5.72,0,0,1,2.4-3.59,3.93,3.93,0,0,1,2.11-.55,2.91,2.91,0,0,1,.49,1.61c0,2.12,0,4.24,0,6.36,0,0.63.07,1.26,0.13,2.13a14.42,14.42,0,0,1,1.22-1.08,23.62,23.62,0,0,0,2.47-1.24c0.6-.71,1-1.56,1.58-2.33s1.2-1.66,1.91-2.63a14.66,14.66,0,0,0,2,2.11c0.8-.83.22-4.68,1.07-5.4s0.65,1.09,1.36,2a8.24,8.24,0,0,0,.58-1.08c0.34-1,1.32-2.78,2.06-3.1,0.25-.11,1.82,2.62,2,2.71,0.5-.8,1.41-3.54,1.91-4.12s5,4.45,6.25,4.52c-0.33-.59-0.1-1.62-0.37-2.13-0.7-1.34,1.55-1.16,1.85-1,0.5,0.26,1,.54,1.52.84a4.64,4.64,0,0,1,.12-1.47c0.71-1.45,2-2.49,3.78-1.54a6,6,0,0,0,3.27.59c-0.11-.21-1-1.69-1.17-2a4.54,4.54,0,0,1,1.51.33,9.25,9.25,0,0,1,2.27.53c1.67,0.68,2.31.56,3.66-.67a6,6,0,0,1,1.55-1c0.66-.3,1.08,0,1.13.72,0,0.42,0,.84.08,1.45a3.33,3.33,0,0,1,2.82-1.26,1.4,1.4,0,0,0,.73-0.45c0.8-.64,1.54-1.36,2.38-1.94a1.3,1.3,0,0,1,1.92.4,47.15,47.15,0,0,0,3.47,4.11c2.37,2.35,4.95,4.5,8.22,5.44,1.91,0.55,3.93.67,5.88,1.06,1,0.19,2.24.27,2.75,0.9a11,11,0,0,1,2.07,6.34,31.2,31.2,0,0,1-9-.31A12.56,12.56,0,0,1,91,122.5a13.46,13.46,0,0,0-2.24-1.18,8.82,8.82,0,0,0-7.19.68c-1.77,1-3.45,2.25-5.15,3.42-1.31.9-2.56,1.89-3.9,2.75a4.69,4.69,0,0,1-3.48,1A21.53,21.53,0,0,1,65,127.85a4.24,4.24,0,0,1-2.35-3.23,8,8,0,0,1,.72-4.9c0.21-.51.45-1,0.68-1.52l-0.18-.13c-1,.87-2.14,1.66-3.09,2.61-2.67,2.66-3,5.35-1.22,8.67,0.19,0.35.37,0.7,0.63,1.21a15.66,15.66,0,0,1-11.94-6.64c1,7,4.87,11,11.53,12.5a8.62,8.62,0,0,1-3.87,4.23,10.68,10.68,0,0,1-5.7,1,9.79,9.79,0,0,0,6.76,1.7,1.15,1.15,0,0,1,.74,0,1.25,1.25,0,0,0,1.62.07c0.9-.44,1.75-1,2.63-1.43,0.38-.2.79-0.36,1.43-0.65l-0.84,2.21c0.42-.08.73-0.12,1-0.19a3.21,3.21,0,0,1,2.69.34,4.68,4.68,0,0,0,1.86.34,7,7,0,0,1,1.39.14,1.24,1.24,0,0,1,.64.75c0.49,1.66.84,3.36,1.39,5s1.34,3.08,1.89,4.66a22.88,22.88,0,0,1,.63,3.13c-0.5,0-.75.09-1,0.08-6.56-.24-13.13-0.47-19.69-0.75a7.87,7.87,0,0,1-4.77-1.88c-0.93-.77-1.82-1.6-2.77-2.33a4.71,4.71,0,0,1-1.69-2.51c-0.4-1.36-.77-2.72-1.26-4-0.56-1.48-1.14-1.63-2.45-.77-5.08-2.89-9.25-1.43-11.07,1.08a7.39,7.39,0,0,1,6.56,3.19l-1.11-.18c-0.35-.05-0.7-0.12-1-0.15-1.16-.11-1.22-0.05-1.21,1a6.29,6.29,0,0,0-6,5.66l0.83-.28c1.08-.38,2.18-0.9,3,0.4a2.28,2.28,0,0,0,.3.18c0.25,0.25.49,0.51,0.73,0.77a4,4,0,0,1-.88.57,9.22,9.22,0,0,0-5.19,3.6,7.28,7.28,0,0,0-1.23,4.12c0.66-.43,1.18-0.81,1.73-1.13s1.12-.77,1.78,0a1.91,1.91,0,0,0,1.18.13c0.47,0,.94-0.1,1.4-0.14a1.35,1.35,0,0,1,1.5.82,1.38,1.38,0,0,0,.83.73c1.4,0.23,2.77.52,4.19-.21a13.48,13.48,0,0,1,7-1.34c0.73,0,.93.42,0.42,0.94a3.83,3.83,0,0,1-1.48.85c-0.83.28-1.74,0.35-2.55,0.67a5.55,5.55,0,0,0-3,3.12L39,170.09c-2,3.72-2.39,7.28.72,10.85a8.09,8.09,0,0,1,.2-1.24,3.81,3.81,0,0,1,.57-1.14c0.36-.44.9-0.75,1.21-1.22a5.72,5.72,0,0,1,2.67-2.22,6.15,6.15,0,0,0,3.79-4.34,15.28,15.28,0,0,1,1.26-3.17,2.34,2.34,0,0,1,2.49-1c0.9,0.06,1.07.8,1.35,1.44,0.65,1.45,1.23,2.93,2,4.32A8.27,8.27,0,0,0,56.76,174c1.13-1,2.05-2,3.08-2.75,0.83-.64,1.37-0.43,2,0.4,1,1.3,1.9,2.62,3,3.83a15.42,15.42,0,0,0,2.14,1.72c0.74-1,1.36-1.9,2-2.75,1-1.31,2-1.25,2.88.08s2,3,3.11,4.39a7.9,7.9,0,0,0,1.3,1.12c0.21-.47.33-0.79,0.5-1.09,0.47-.8.95-1.6,1.47-2.37A19.05,19.05,0,0,1,80,174.25c0.53-.56,1.1-0.42,1.47.32,0.47,0.94,1,1.86,1.46,2.81a2.36,2.36,0,0,1,1-.52c1.31,0.13,2-.74,2.68-1.59a4.52,4.52,0,0,1,4.33-1.79,15.18,15.18,0,0,0,3.6-.15,2.12,2.12,0,0,0,1.82-1.69,3.6,3.6,0,0,1,.32-1.11c0.44-1,.92-1.89,1.38-2.83a3.93,3.93,0,0,0-1.34.18,12.44,12.44,0,0,1-5.85.37c-2.87-.59-5.25-3.15-5.27-5.79a15.25,15.25,0,0,1,1.18-6.55c2.7-6,7.4-9.24,14.27-8.5a3.5,3.5,0,0,1,.76.15,8.64,8.64,0,0,1,.15-2.56,8.6,8.6,0,0,0,.17-1.54,0.75,0.75,0,0,0-.3-0.8c-0.76-.58-1.15-1.2.32-6.33,2.29-8,11.63-5.82,11.73-5.8a0.49,0.49,0,0,1-.23,1,13,13,0,0,0-4.58-.12,6.93,6.93,0,0,0-6,5.24c-1.36,4.75-.94,5.07-0.67,5.28a1.67,1.67,0,0,1,.69,1.58,9.52,9.52,0,0,1-.18,1.71,7.9,7.9,0,0,0,.27,4.23c1.22,2.65,2.52,5.27,3.61,8a67.55,67.55,0,0,1,2,6.48,1,1,0,0,1-.67,1.22,24.39,24.39,0,0,0-3.64,2.14A10.32,10.32,0,0,0,100.59,179a6.77,6.77,0,0,0,.33.65c0.24-.86.4-1.58,0.63-2.27s0.54-1.4.82-2.09a3.86,3.86,0,0,0,1.15.48,1.22,1.22,0,0,1,1.23,1.1,41.06,41.06,0,0,0,1.62,4.27,2.57,2.57,0,0,0,1.83,1.48c0-.8-0.14-1.5-0.11-2.2,0.07-1.87,1.83-3.6,4-2.37a7.89,7.89,0,0,0,1.87.77,3.71,3.71,0,0,0,3.65-.94c-0.38-.19-0.67-0.32-1-0.47a8.68,8.68,0,0,1-3.38-2.9,3.59,3.59,0,0,1-.36-3,1.65,1.65,0,0,1,2.25-1.22,9.44,9.44,0,0,1,2,1,6.79,6.79,0,0,0,5.31,1,9.09,9.09,0,0,0,4.53-2.93,18,18,0,0,1,2.08-1.89,0.81,0.81,0,0,1,1.43.45c0.48,1.63,1.05,3.25,1.4,4.91,0.63,3,0,5.69-2.49,7.8a8.57,8.57,0,0,0-1.78,2.69c-0.43.83-.65,1.77-1,2.64a4.82,4.82,0,0,1-4.9,2.86c-1.48-.24-2.92-0.68-4.4-1-2.12-.4-2.63.14-2.29,2.28a1,1,0,0,1,0,.24,11.08,11.08,0,0,0-5,3.26,7.61,7.61,0,0,0-1.6,5.8c0.6-.53,1.07-1,1.56-1.36s0.8-.73,1.43-0.2a1.57,1.57,0,0,0,1.16,0,4.72,4.72,0,0,1,2.81-.15c-0.63,1-1.23,2-1.78,2.93-0.47.81-.44,0.82,0.26,1.39-2,3.39-1.76,6.12.72,8.22a3.82,3.82,0,0,1,.61-1.41,16.88,16.88,0,0,1,2.25-1.42c1-.61,1.51-0.35,1.52.85a7.88,7.88,0,0,0,1.68,5.1,23,23,0,0,0,2.19,2.05A3.29,3.29,0,0,0,123,215c0-.09,0-0.18,0-0.26a6.56,6.56,0,0,1,2.47-5.57,4.65,4.65,0,0,0,1.89-4,9.94,9.94,0,0,1,3.7-7.8,4,4,0,0,1,1.77-.62,0.73,0.73,0,0,1,.9.9c-0.07.73-.2,1.45-0.3,2.18a4.16,4.16,0,0,0,2.9,4.36c1.64,0.44,2,.86,2,2.58,0,0.93-.08,1.85-0.14,3a9.73,9.73,0,0,1,2.21-1.59c1.79-.61,1.86-2.08,2.05-3.53,0.23-1.7.36-3.43,0.69-5.11a3.1,3.1,0,0,0-1.63-3.7,8.59,8.59,0,0,1-1.63-.87,3,3,0,0,1-1.24-1.6c-0.05-2.05.52-3.74,2.86-4.05a25.17,25.17,0,0,0,2.88-.4A2.42,2.42,0,0,0,146,188a2.43,2.43,0,0,1,1.32-1.39l0.89-.65-4.79-2.51,0-.35a4.52,4.52,0,0,1,1.1-.8c1.09-.37,2.21-0.61,3.32-0.93s2.07-.54,2.26-1.88a1.89,1.89,0,0,1,.64-0.67l1.41-1.42-3.56-1,0-.35c0.73-.4,1.47-0.78,2.19-1.2a3,3,0,0,0,1.38-1,3.36,3.36,0,0,1,1.74-2,4.37,4.37,0,0,1,.76-0.28c-1.69-.9-3-1.5-4.29-2.23-0.8-.47-0.82-0.8-0.09-1.42s1.61-1.06,2.38-1.64a1.49,1.49,0,0,0,.66-0.95,1.55,1.55,0,0,1,.75-1.37c0.43-.4.81-0.85,1.32-1.41-1.53-.37-2.92-0.35-4.24-1.48l2.36-1a6.17,6.17,0,0,0,1.91-.8A13,13,0,0,0,157,157a6.43,6.43,0,0,0,.41-0.86c-0.58-.1-1-0.17-1.45-0.26a8.5,8.5,0,0,1-4.13-2.08,2.79,2.79,0,0,1-.93-2.69,2.91,2.91,0,0,0-.11-1.55,1.67,1.67,0,0,1,.28-1.8c0.23-.32.51-0.62,0.84-1l-1-.17a4.6,4.6,0,0,1-4.3-4.49,15.64,15.64,0,0,1,0-2.12c0-.59.1-1.18,0.18-2-0.23.29-.34,0.42-0.44,0.56a18.82,18.82,0,0,1-7.3,6.26c-2.72,1.27-5.57,1.91-8.47.78-2.22-.86-4.15-2.12-4.09-5,0-2.09-.07-4.19,0-6.27a4.55,4.55,0,0,1,.28-1.4c0.52-4.3,1.27-15.4-3.14-23.76l0.14-.08c-2.16-4.13-4.3-8.28-6.58-12.35-1.87-3.34-4.08-6.48-6.14-9.71a5.18,5.18,0,0,1,.06-4.92,0.77,0.77,0,0,1,.23.09,0.92,0.92,0,0,1,.23.27c1,1.79,5.62,4.22,9.41,1.63-2.22-1.27-3.06-2.14-3.61-3.67a23.51,23.51,0,0,1,.46-4.67c3.92,0.31,9.54-.11,11.11-4.65,0,0-6.95,2.9-9.57-8.17q0-.51,0-1c3.76,0.09,8.34-.69,9.73-4.72,0,0-4.94,2.06-8.06-3.93,3.7-1.25,8.48-3.78,8.2-8.44,1.86,8,6.42,14.86,13.43,20.7,2.62,2.18,5.35,4.27,7.74,6.7a38.88,38.88,0,0,1,10.74,20.8c0.11,0.61.11,1.24,0.16,1.86a1,1,0,0,1-.58-0.4,16.89,16.89,0,0,0-11.38-7.09,4.4,4.4,0,0,1-3.65-4.49,4.89,4.89,0,0,0,0-1.67c-0.59-1.57,0-2.95.55-4.35,0.14-.36.3-0.72,0.48-1.15-3.55,1-5.55,3.11-5.6,6.32a20.64,20.64,0,0,0,.89,4.82,13.31,13.31,0,0,0,.82,2c-2.32,1.07-4.36,2.34-4.65,5.08-2.86-.12-5.57-1.7-8.84-5.09a1.36,1.36,0,0,0-.14.31A6.81,6.81,0,0,0,132,96.4q0.83,0.58,1.67,1.14a0.76,0.76,0,0,1,.18,1.25,28.46,28.46,0,0,0-1.8,2.93,9.65,9.65,0,0,0,2.31,12.18c0.51,0.46,1.07.87,1.6,1.3a2.07,2.07,0,0,0-.06-1.13,11.19,11.19,0,0,1,.26-7.28,7.09,7.09,0,0,1,1.59-2.27,1.56,1.56,0,0,1,2.06,0,38.59,38.59,0,0,0,3.27,2.52c1.22,0.8,3,.83,3.67.14s1.22-1.35,1.77-2c-0.94-1-2-2-2.88-3.12a2.08,2.08,0,0,1-.05-2.63,5.39,5.39,0,0,1,2-1.85,9.22,9.22,0,0,1,9.94,1.52,10.91,10.91,0,0,1,3.93,10.61,19.11,19.11,0,0,1-7.86,12.56c-6.84,5.19-14.7,4.93-21.21-.64a27.75,27.75,0,0,1-5.71-6.94,50.62,50.62,0,0,1,1.13,16.89,3,3,0,0,1,2.53-.08,45.08,45.08,0,0,0,6.25,1.8,33.45,33.45,0,0,0,15.91-.69,19.94,19.94,0,0,0,11.48-8.69,38,38,0,0,0,4.67-10.9,47.75,47.75,0,0,0,1.3-18.1,33.7,33.7,0,0,0-7.1-17.68c-5-6.2-10.5-11.86-16-17.55a68.82,68.82,0,0,1-8.38-9.78,21.64,21.64,0,0,1-3.3-10.15,26,26,0,0,1,.34-7.54A28,28,0,0,1,139,23.3a23.89,23.89,0,0,1,4.73-5.57c1.6-1.41,3.26-2.76,5.46-3.05a3.48,3.48,0,0,1,3.33,1,3.26,3.26,0,0,1,.39,3.8c-0.27.52-.48,1.08-0.7,1.62a19.83,19.83,0,0,0-1.72,9.82A39.74,39.74,0,0,0,151,35c0.62-.56,1.38-1.1,1.73-1.42,3.63-2.58.61,1.92,0.32,2.56a36,36,0,0,0-1.59,3.73c-1.07,3.36-.74,6.49,2,9a22.1,22.1,0,0,0,2.41,1.69,3,3,0,0,1,1.77-3c1.08,2.38,2.44,4.24,5.35,4.4a14.9,14.9,0,0,1-.57-2.19,15,15,0,0,1,1.44-7.7,9.75,9.75,0,0,1,1.36-2.15c0.79-1,1.56-.84,2.43,0A39.75,39.75,0,0,0,171.46,43a2.86,2.86,0,0,0,3.16.08,12.72,12.72,0,0,1,1.36-1c0.3-.21.63-0.37,1.07-0.61l-0.52-.26c-3.4-1.44-5.85-4.67-5.23-8.47a8.16,8.16,0,0,1,1-2.67c1.65-3,4.76-5.2,5.93-8.44,0.3-.84.56-1.71,0.88-2.69a24.9,24.9,0,0,1-2.57,1.79C172.4,22.86,168.08,20.63,165.41,17.34ZM81,41.17A1.82,1.82,0,0,1,81.41,40a8.9,8.9,0,0,1,6.64-2c0.71,0.08,1.45-.11,2.16-0.06a0.88,0.88,0,0,1,.55.65c0.06,1.07,0,2.14,0,3.46L83,41.73a7,7,0,0,1-1.31-.15A1.32,1.32,0,0,1,81,41.17Zm9.1,8.24a9.81,9.81,0,0,1-7.2,1.73,0.88,0.88,0,0,1-.64-0.38c-0.39-1.07-.75-2.15-1.06-3.25a0.64,0.64,0,0,1,.72-0.85c2.85-.09,5.7-0.18,8.55-0.23a5.52,5.52,0,0,1,1.36.36A4.16,4.16,0,0,1,90.07,49.4ZM88.61,28.12s1.82-2.55,7.65-2.92C96.27,25.21,95.3,31.53,88.61,28.12Z" fill="#fff"/></svg>