<svg xmlns="http://www.w3.org/2000/svg" viewBox="0 0 210 32.59"><title>sitwellcc-logotype</title><path d="M17,0.77L16.95,6a46.88,46.88,0,0,0-7.06-.82c-3,0-4.13,1.2-4.13,3.36v1c0,1.73.53,2.4,3,3.22L13,14.16c4.46,1.49,6.14,3.74,6.14,8.59v0.91c0,5.76-3,8.93-10.94,8.93a42.86,42.86,0,0,1-7.39-1l0-5.33a35.6,35.6,0,0,0,7.2,1.06c4,0,5.38-1.25,5.38-3.46V22.61c0-1.68-.67-2.54-2.54-3.17L6.24,17.91C1.58,16.37,0,14.31,0,9.36V8.88C0,3.17,2.88,0,9.75,0A49.08,49.08,0,0,1,17,.77Z" fill="#fff"/><path d="M23.14,32V0.58H28.9V32H23.14Z" fill="#fff"/><path d="M46.9,5.86V32H41.18V5.86H32.54V0.58h23V5.86H46.9Z" fill="#fff"/><path d="M82.23,32L76.9,6.77,71.57,32H64.51L57.65,0.58h6l4.56,25.54L73.49,0.58h6.77l5.28,25.49L90,0.58h6L89.28,32H82.23Z" fill="#fff"/><path d="M105.26,5.86v7.58h10.8v5.23h-10.8v8.06H117V32H99.5V0.58H117V5.86H105.26Z" fill="#fff"/><path d="M139.44,26.83V32H121.92V0.58h5.76V26.83h11.76Z" fill="#fff"/><path d="M160.56,26.83V32H143V0.58h5.76V26.83h11.76Z" fill="#fff"/><path d="M188.3,0.82L188.21,6a38.65,38.65,0,0,0-6.53-.77c-4.08,0-5.42,1.3-5.42,5.18V22.18c0,3.84,1.39,5.14,5.42,5.14a34.09,34.09,0,0,0,6.53-.86l0.1,5.28a43.83,43.83,0,0,1-7.2.86c-7.87,0-10.61-3.36-10.61-10V10c0-6.77,2.83-10,10.61-10A49.29,49.29,0,0,1,188.3.82Z" fill="#fff"/><path d="M210,0.82L209.9,6a38.65,38.65,0,0,0-6.53-.77c-4.08,0-5.42,1.3-5.42,5.18V22.18c0,3.84,1.39,5.14,5.42,5.14a34.09,34.09,0,0,0,6.53-.86l0.1,5.28a43.83,43.83,0,0,1-7.2.86c-7.87,0-10.61-3.36-10.61-10V10c0-6.77,2.83-10,10.61-10A49.29,49.29,0,0,1,210,.82Z" fill="#fff"/></svg>