<?xml version="1.0" encoding="utf-8"?>
<!-- Generator: Adobe Illustrator 17.1.0, SVG Export Plug-In . SVG Version: 6.00 Build 0)  -->
<!DOCTYPE svg PUBLIC "-//W3C//DTD SVG 1.1//EN" "http://www.w3.org/Graphics/SVG/1.1/DTD/svg11.dtd">
<svg version="1.1" id="Layer_1" xmlns="http://www.w3.org/2000/svg" xmlns:xlink="http://www.w3.org/1999/xlink" x="0px" y="0px"
	 viewBox="0 0 247.4 46.5" enable-background="new 0 0 247.4 46.5" xml:space="preserve">
<g id="TJ1vjL.tif">
	<g>
		<path fill="#4589B9" d="M17.6,0.7c0.9,0,1.9,0,2.8,0c0,0.6,0,1.2,0,1.8c0.7,0.7,1.5,1.5,2.2,2.2c0.4,0.4,0.9,0.1,1.3,0.2
			c0,0.9,0,1.9,0,2.8c-0.9,0-1.9-0.2-2.8,0c-3,0.7-6,1.4-7.8,4.1c1.9,3.8,3.7,7.3,5.6,11.1c2.2-2.1,2.7-4.7,4-6.8c0.4,0,0.7,0,1.1,0
			c0,1.4,0,2.8,0,4.2c0.3,1.6-1.6,2.5-1.4,4.2c0.5,0,1,0,1.4,0c0,1.6,0,3.3,0,4.9c0,0.5,0,0.9,0,1.4c0,1.6,0,3.3,0,4.9
			c-1.4,0-2.8,0-4,0c-2.8-6.5-8.9-18.3-10.5-20c-0.2,1.7-1.2,2.9-1.1,4.5c0.1,1.4-1.4,2.9,0,4.3c-0.2,1.6,0.1,3.2,0.7,4.6
			c0.6,1.4,1.4,2.8,2.6,3.9c1.2,1.1,2.3,2.4,3.6,3.3c1.2,0.9,2.7,1.4,4.4,2.2c1.1,0,2.7,0,4.2,0c0,1.2,0,2.3,0,3.5
			c-1.1-0.3-1.8,0.8-2.6,0.9c-0.6,1.1-1.1,2.2-1.6,3.3c-0.7,0-1.4,0-2.1,0c0.2-0.7-0.9-0.8-0.6-1.8c2-1.3-0.2-2.5-0.4-3.5
			c-1.2-0.9-2.4-1.3-4.3-0.8c-0.3,0.4-1,1.1-1.8,1.9c-0.7-0.4-1.4-0.8-1.9-1c-0.8-1.6,0.5-2.1,1.1-2.8c0.5-1.5-0.4-2.7-0.9-4.1
			c-0.9,0.7-1.1-1-2.1-0.6c-0.9,1-2,0.8-3.1,0.5c-1.2-0.6-1.1-1.5-0.9-1.9c0.7-1.6,2.3-1.4,2.8-2.5c0-0.9,0-1.9,0-2.8
			c-0.6-0.6-1.2-1.2-1.7-1.8c-1.1,0-2.1,0-3.2,0c0-1.2,0-2.3,0-3.5c1.1,0,2.1,0,3.2,0c0.6-0.6,1.2-1.2,1.6-1.7c0-1.1,0-2.1,0-3.2
			c-0.9-0.6-1.8-1.1-2.7-1.7C2.9,14,2.4,12.5,4.3,12c1.2,1,2.6,0.7,3.7,0.7C8.7,12,9.3,11.5,9.8,11c0-0.8,0-1.5,0-2.5
			c-0.4-0.3-1-0.7-1.4-0.9C8.3,5.6,9,4.8,10.7,4.9c3.1,2.4,3.1,2.4,5.1,1.6c2.2-1.8,2.4-3.3,1.1-4.5C17.1,1.4,17.7,1.3,17.6,0.7z
			 M21.4,27.4c0.1-0.1,0.4-0.3,0.4-0.4c-0.2-0.3,0.4-1.1-0.3-0.9c-0.6,0.1-0.5,0.8,0.3-0.1c0.3,0.1,0.6-0.1,0.6-0.4
			c0-0.1-0.2-0.2-0.2-0.2C21.9,25.5,21.8,25.7,21.4,27.4z"/>
		<path fill="#90AC4A" d="M24,29.6c0-1.6,0-3.3,0-4.9c-0.1-1.7,1.2-2.7,1.8-4.1c0.3-0.8,0.5-1.4,0.1-2.1c-1.2,0.2-0.7,1.8-1.9,2
			c0-1.4,0-2.8,0-4.2c2.1,0,4.2,0,6.3,0c2.1,0,4.1,1.5,6.3,0.5c0.4-1.9-0.2-3.6-1.8-4.7C31.6,9.6,28.2,7.4,24,7.8c0-0.9,0-1.9,0-2.8
			c0.4-0.1,0.9,0.1,1.3-0.2c1.5-1,1.5-2.7,2.2-4c0.7,0,1.4,0,2.1,0c0.1,0.8,0.9,1.2,0.7,2.2c-0.2,0.8,0,1.6,0,2.4
			c0.9,1.1,2.3,1.4,3.5,2.1c1-1,1.8-1.8,2.4-2.4c1.2-0.2,2,0.3,2.6,1.3c-0.8,1.7-1,3.6-0.7,5.5c0.2,0.2,0.5,0.5,0.9,0.9
			c1.6,0,3.3,0,4.9,0c0.4,0.4,0.8,0.8,1.1,1.1c0,0.4,0,0.9,0,1.5c-1.1,0.1-1.8,1.1-2.7,1.9c0,0.9,0,1.9,0,3c0.5,0.5,1,1,1.6,1.6
			c0.7,0,1.4,0,2.1,0c1.6,1.6,1.6,1.6,0.2,3.6c-0.6,0-1.3,0-2.2,0c-0.4,0.6-0.8,1.3-1.3,2c-0.1-0.1-0.3-0.2-0.4-0.3
			c0,0.9,0,1.8,0,2.9c0.7,0.8,1.3,2,2.7,1.9c0.2,1.2,0,2.1-0.9,2.6c-1.1,0.2-2.2,0.3-3.2-0.6c-0.9,0.6-2.1,0.7-2.8,1.7
			c-0.3,1.8-0.1,3.6,0.7,5c-0.3,1.5-1.2,1.8-2.6,1.7c-0.5-0.7-1.2-1.5-1.6-2.1c-1.2,0-1.9,0-2.6,0c-0.6,0.6-1.1,1.2-1.7,1.8
			c-0.1,1.5,0.4,3.2-0.7,4.6c-0.7,0-1.4,0-2.1,0c0-0.7-0.7-1-0.8-1.8c-0.2-1.4-1-2.5-2.7-2.4c0-1.2,0-2.3,0-3.5
			c4.6,0.4,8.3-1.4,11.4-4.7c3.5-3.8,4.6-8.3,4.1-13.3c-0.3-0.4-0.7-0.7-1-1c-2.3,0-2.3,0-4.5,1c-1.5,3.7-3.8,6.9-5.5,10.4
			c-0.8,1.7-1.4,3.5-2.7,4.8c-0.6,0-1.2,0-1.8,0c0-1.6,0-3.3,0-4.9c0.3,0,0.7,0,1,0c2-3.9,4.7-7.5,6-12.1c-2.1,0.2-2.2,1.8-2.8,2.9
			C26.7,24.4,25.9,27.3,24,29.6z"/>
		<path fill="#FFFFFF" d="M247.4,29.6c-4.9,0-9.8,0-14.6,0c-0.3,1.2-0.4,2.1,1.2,2.7c3.5,0,7.6,0,11.6,0c0.4,0.4,0.8,0.8,1,1
			c0,1.1,0,2.1,0,3.2c-6.9,0-13.7,0-20.6,0c-1.9-1.3-2.7-3.2-2.5-5.7c0.1-3.3,0-6.6,0-9.8c0.8-1.7,1.8-3.4,4.9-4.1
			c3.7,0,8.5,0,13.3,0c2.7,0,4.2,0.8,5.8,2.8C247.4,23,247.4,26.3,247.4,29.6z M239,25.3c-0.3-1.4,0.6-3-1.1-4.1c-1.5,0-3,0-4.3,0
			c-1.7,1.2-0.8,2.7-1,4.1C234.8,25.3,236.7,25.3,239,25.3z"/>
		<path fill="#FFFFFF" d="M112.1,28.5c-0.4,0.4-0.7,0.7-1.1,1.1c-4.4,0-9,0-13.6,0c0,0.9,0,1.7,0,2.7c3.8,0,7.7,0,11.5,0
			c1,0,1.9,0.1,2.4,1c0,1,0,2,0,3.1c-7,0-13.9,0-20.8,0c-0.3-0.4-0.7-0.7-1.4-0.7c-0.3-0.7-0.9-1.4-0.9-2.1c-0.1-4.3-0.1-8.7,0-13
			c0-1.9,1.9-3.6,4.2-3.9c0.7-0.1,1.4,0,2.1,0c4.1,0,8.2,0,12.3,0c3,0,5.2,2.4,5.3,5.3c0,0.2,0,0.5,0,0.7
			C112.1,24.8,112.1,26.7,112.1,28.5z M97.4,21.2c0,1.6,0,2.8,0,4.2c1.9-0.1,3.7,0.1,5.4-0.1c0-1.5,0-2.8,0-4.1
			C100.9,21.2,99.2,21.2,97.4,21.2z"/>
		<path fill="#FFFFFF" d="M149.5,34.8c-0.6,0.6-1.2,1.2-1.8,1.8c-6.6,0-13.1,0-19.7,0c-1.1-0.8-2-1.8-2.5-3.1c0-3.4,0-6.8,0-10.2
			c0-3,0.1-3.2,2.5-5.7c6.6,0,13.1,0,19.7,0c1.9,1.4,2.4,3.4,2.5,5.6c0.1,2.6-0.1,5.2,0.1,7.7C150.3,32.4,149,33.5,149.5,34.8z
			 M134.6,21.2c0,3.5,0,6.6,0,9.7c0,0.9,0.3,1.5,1,2.1c1.4,0,2.9,0,4.2,0c0.4-0.4,0.8-0.7,1-0.9c0-3.5,0-6.9,0-10.1
			c-0.4-0.4-0.6-0.6-0.9-0.9C138.3,21.2,136.6,21.2,134.6,21.2z"/>
		<path fill="#FFFFFF" d="M179.9,36.5c-1.9-2-3.2-4.3-3-7.4c0.2-3.7,0-7.5,0-11.2c0.3-0.3,0.6-0.6,0.9-0.9c2.5,0,5.2,0,8.1,0
			c0,4.9,0,9.9,0,14.8c2.1,1.8,4.2,1.7,6.4,0.4c0-4.9,0-9.9,0-15.2c3.1,0.1,6.2-0.7,9.2,0.6c0,6.5,0,12.7,0,19
			C194.3,36.5,187.2,36.5,179.9,36.5z"/>
		<path fill="#FFFFFF" d="M57,10.7c3.3,0,6.5,0,10,0c2.4,6.3,4.4,13,6.7,19.7c3.2-6.4,4.3-13.5,7.5-19.7c1.4,0,2.7,0,4.3,0
			c-0.6,3.1-2.1,5.8-3,8.7c-0.9,2.9-1.7,5.9-3,8.6c-1.2,2.8-1.5,6-3.5,8.6c-3.3,0-6.7,0-10.4,0C62.8,28.1,59.9,19.5,57,10.7z"/>
		<path fill="#FFFFFF" d="M152.2,21.2c1-3,3-3.7,5.7-3.6c5,0.1,10.1,0,15.3,0c0.4,1.1,0.2,2.2,0.2,3.6c-4.3,0-8.4,0-12.5,0
			c-0.5,1.2,0.4,1.4,0.7,2c3.5,0,7,0,10.5,0c1.2,0.8,2.1,1.8,2.7,3.1c0,1.6,0,3.3,0,4.9c0,3.2-0.3,3.7-3.1,5.4c-6.1,0-12.3,0-18.6,0
			c0-1.1,0-2.1,0-3.3c4,0,8,0,11.9,0c0.7-0.7,1.6-1,1.2-2.3c-2.7,0-5.5-0.1-8.3,0c-2.6,0.1-4.6-0.6-5.7-3.6
			C152.2,25.5,152.2,23.1,152.2,21.2z"/>
		<path fill="#FFFFFF" d="M123.9,36.6c-3,0-5.9,0-8.8,0c-0.3-3.5-0.3-22.1,0-25.9c2.9,0,5.8,0,8.8,0
			C123.9,19.3,123.9,27.9,123.9,36.6z"/>
		<path fill="#FFFFFF" d="M204.5,17.8c0.3-0.3,0.6-0.6,0.9-0.9c2.3,0,4.6,0,7.2,0c0.3,0.4,0.7,0.9,0.9,1.1c2.9-1,5.6-0.2,8.4-0.6
			c0,1.7,0,3.3,0,5.1c-2.2,1.5-4.9,0.2-7.4,0.8c-0.2,0.2-0.4,0.4-0.8,0.8c0,3.9,0,8,0,12.3c-1.6,0.4-3,0.2-4.5,0.2c-1.5,0-3,0-4.6,0
			C204.5,30.4,204.5,24.2,204.5,17.8z"/>
	</g>
</g>
</svg>
